<?xml version="1.0" encoding="UTF-8"?>
<!DOCTYPE svg PUBLIC "-//W3C//DTD SVG 1.1//EN" "http://www.w3.org/Graphics/SVG/1.1/DTD/svg11.dtd">
<svg xmlns="http://www.w3.org/2000/svg" version="1.1" width="680px" height="720px" style="shape-rendering:geometricPrecision; text-rendering:geometricPrecision; image-rendering:optimizeQuality; fill-rule:evenodd; clip-rule:evenodd" xmlns:xlink="http://www.w3.org/1999/xlink">
<g><path style="opacity:1" fill="#000000" d="M -0.5,-0.5 C 109.833,-0.5 220.167,-0.5 330.5,-0.5C 302.113,41.9174 274.446,84.9174 247.5,128.5C 200.1,114.315 152.766,99.8151 105.5,85C 103.167,84.3333 100.833,84.3333 98.5,85C 97.9032,86.0617 97.5698,87.2284 97.5,88.5C 104.93,142.286 112.263,195.953 119.5,249.5C 119.5,251.833 119.5,254.167 119.5,256.5C 117.295,282.774 115.629,309.107 114.5,335.5C 114.443,336.609 114.11,337.609 113.5,338.5C 106.343,348.804 99.6761,359.471 93.5,370.5C 93.5288,372.029 94.1955,373.196 95.5,374C 100.527,376.845 105.527,379.679 110.5,382.5C 110.434,391.029 109.767,399.362 108.5,407.5C 105,405.585 101.333,403.918 97.5,402.5C 95.1667,402.833 93.8333,404.167 93.5,406.5C 97.7681,413.437 102.435,420.103 107.5,426.5C 103.455,494.862 99.2881,563.196 95,631.5C 97.1529,633.444 99.6529,633.944 102.5,633C 148.739,622.719 195.072,612.886 241.5,603.5C 270.5,642.167 299.5,680.833 328.5,719.5C 218.833,719.5 109.167,719.5 -0.5,719.5C -0.5,479.5 -0.5,239.5 -0.5,-0.5 Z"/></g>
<g><path style="opacity:1" fill="#000000" d="M 332.5,-0.5 C 448.167,-0.5 563.833,-0.5 679.5,-0.5C 679.5,239.5 679.5,479.5 679.5,719.5C 564.5,719.5 449.5,719.5 334.5,719.5C 363.167,681.167 391.833,642.833 420.5,604.5C 420.833,604.5 421.167,604.5 421.5,604.5C 466.196,614.473 510.862,624.64 555.5,635C 558.554,635.821 561.554,635.655 564.5,634.5C 565.095,632.56 565.428,630.56 565.5,628.5C 561.629,561.842 557.962,495.175 554.5,428.5C 554.5,427.833 554.5,427.167 554.5,426.5C 560.356,420.648 565.023,413.981 568.5,406.5C 568.91,403.745 567.744,402.412 565,402.5C 560.963,404.102 557.13,406.102 553.5,408.5C 552.58,400.335 551.913,392.002 551.5,383.5C 551.5,383.167 551.5,382.833 551.5,382.5C 556.938,379.947 562.271,377.113 567.5,374C 568.804,373.196 569.471,372.029 569.5,370.5C 563.324,359.471 556.657,348.804 549.5,338.5C 548.89,337.609 548.557,336.609 548.5,335.5C 547.432,309.153 546.099,282.819 544.5,256.5C 544.5,254.167 544.5,251.833 544.5,249.5C 552.669,196.658 560.669,143.658 568.5,90.5C 567.148,86.7459 564.482,85.5792 560.5,87C 512.613,101.686 464.613,115.853 416.5,129.5C 388.971,85.7534 360.971,42.42 332.5,-0.5 Z"/></g>
<g><path style="opacity:1" fill="#b2b2b2" d="M 330.5,-0.5 C 331.167,-0.5 331.833,-0.5 332.5,-0.5C 360.971,42.42 388.971,85.7534 416.5,129.5C 416.5,129.833 416.5,130.167 416.5,130.5C 414.106,131.015 411.772,131.681 409.5,132.5C 385.08,93.9886 360.413,55.6553 335.5,17.5C 334.5,63.1618 334.167,108.828 334.5,154.5C 332.047,155.645 329.713,155.312 327.5,153.5C 327.667,108.165 327.5,62.8321 327,17.5C 302.573,55.359 278.406,93.359 254.5,131.5C 254.167,131.5 253.833,131.5 253.5,131.5C 251.786,130.262 249.786,129.595 247.5,129.5C 247.5,129.167 247.5,128.833 247.5,128.5C 274.446,84.9174 302.113,41.9174 330.5,-0.5 Z"/></g>
<g><path style="opacity:1" fill="#c2c2c2" d="M 327.5,153.5 C 303.054,146.574 278.72,139.24 254.5,131.5C 278.406,93.359 302.573,55.359 327,17.5C 327.5,62.8321 327.667,108.165 327.5,153.5 Z"/></g>
<g><path style="opacity:1" fill="#c2c2c2" d="M 409.5,132.5 C 384.538,139.99 359.538,147.323 334.5,154.5C 334.167,108.828 334.5,63.1618 335.5,17.5C 360.413,55.6553 385.08,93.9886 409.5,132.5 Z"/></g>
<g><path style="opacity:1" fill="#656565" d="M 247.5,128.5 C 247.5,128.833 247.5,129.167 247.5,129.5C 245.367,131.091 243.701,133.091 242.5,135.5C 199.663,122.777 156.996,109.444 114.5,95.5C 114.167,95.8333 113.833,96.1667 113.5,96.5C 140.806,130.128 168.806,163.128 197.5,195.5C 195.698,196.458 193.698,197.125 191.5,197.5C 188.308,195.828 185.475,193.495 183,190.5C 159,161.833 135,133.167 111,104.5C 109.887,102.671 108.387,101.837 106.5,102C 112.788,147.47 119.122,192.97 125.5,238.5C 123.61,238.297 122.11,238.963 121,240.5C 120.498,243.513 119.998,246.513 119.5,249.5C 112.263,195.953 104.93,142.286 97.5,88.5C 97.5698,87.2284 97.9032,86.0617 98.5,85C 100.833,84.3333 103.167,84.3333 105.5,85C 152.766,99.8151 200.1,114.315 247.5,128.5 Z"/></g>
<g><path style="opacity:1" fill="#646464" d="M 544.5,249.5 C 543.79,247.254 543.29,244.92 543,242.5C 541.89,240.963 540.39,240.297 538.5,240.5C 545.504,194.807 551.838,149.14 557.5,103.5C 529.84,135.494 502.173,167.494 474.5,199.5C 472.106,198.985 469.772,198.319 467.5,197.5C 494.75,164.744 522.583,132.411 551,100.5C 551.667,99.5 551.667,98.5 551,97.5C 507.997,111 464.831,124 421.5,136.5C 419.833,134.5 418.167,132.5 416.5,130.5C 416.5,130.167 416.5,129.833 416.5,129.5C 464.613,115.853 512.613,101.686 560.5,87C 564.482,85.5792 567.148,86.7459 568.5,90.5C 560.669,143.658 552.669,196.658 544.5,249.5 Z"/></g>
<g><path style="opacity:1" fill="#6e6e6e" d="M 242.5,135.5 C 230.5,154.5 218.5,173.5 206.5,192.5C 206.167,193.5 205.5,194.167 204.5,194.5C 202.194,194.993 199.861,195.326 197.5,195.5C 168.806,163.128 140.806,130.128 113.5,96.5C 113.833,96.1667 114.167,95.8333 114.5,95.5C 156.996,109.444 199.663,122.777 242.5,135.5 Z"/></g>
<g><path style="opacity:1" fill="#6e6e6e" d="M 467.5,197.5 C 464.598,196.422 461.598,195.756 458.5,195.5C 458.5,194.833 458.167,194.5 457.5,194.5C 445.511,175.195 433.511,155.861 421.5,136.5C 464.831,124 507.997,111 551,97.5C 551.667,98.5 551.667,99.5 551,100.5C 522.583,132.411 494.75,164.744 467.5,197.5 Z"/></g>
<g><path style="opacity:1" fill="#6e6e6e" d="M 191.5,197.5 C 176.977,202.06 162.31,206.56 147.5,211C 144.125,212.029 142.958,214.196 144,217.5C 149.606,232.819 155.106,248.152 160.5,263.5C 155.912,272.35 150.579,280.684 144.5,288.5C 139.111,272.502 133.611,256.502 128,240.5C 127.292,239.619 126.458,238.953 125.5,238.5C 119.122,192.97 112.788,147.47 106.5,102C 108.387,101.837 109.887,102.671 111,104.5C 135,133.167 159,161.833 183,190.5C 185.475,193.495 188.308,195.828 191.5,197.5 Z"/></g>
<g><path style="opacity:1" fill="#6e6e6e" d="M 538.5,240.5 C 537.542,240.953 536.708,241.619 536,242.5C 530.666,258.473 524.833,274.14 518.5,289.5C 513.5,281.5 508.5,273.5 503.5,265.5C 508.701,250.091 514.201,234.757 520,219.5C 520.92,216.692 520.087,214.525 517.5,213C 502.962,208.763 488.628,204.263 474.5,199.5C 502.173,167.494 529.84,135.494 557.5,103.5C 551.838,149.14 545.504,194.807 538.5,240.5 Z"/></g>
<g><path style="opacity:1" fill="#cccccc" d="M 247.5,129.5 C 249.786,129.595 251.786,130.262 253.5,131.5C 241.923,151.081 229.923,170.414 217.5,189.5C 217.5,190.167 217.167,190.5 216.5,190.5C 213.237,191.482 209.903,192.149 206.5,192.5C 218.5,173.5 230.5,154.5 242.5,135.5C 243.701,133.091 245.367,131.091 247.5,129.5 Z"/></g>
<g><path style="opacity:1" fill="#cccccc" d="M 416.5,130.5 C 418.167,132.5 419.833,134.5 421.5,136.5C 433.511,155.861 445.511,175.195 457.5,194.5C 454.183,193.503 450.85,192.503 447.5,191.5C 446.833,191.167 446.167,190.833 445.5,190.5C 433.923,170.919 421.923,151.586 409.5,132.5C 411.772,131.681 414.106,131.015 416.5,130.5 Z"/></g>
<g><path style="opacity:1" fill="#eaeaea" d="M 445.5,190.5 C 446.167,190.833 446.833,191.167 447.5,191.5C 464.693,219.378 482.026,247.211 499.5,275C 493.292,293.137 486.626,310.97 479.5,328.5C 431.613,306.979 383.613,285.646 335.5,264.5C 334.167,228.5 334.167,192.5 335.5,156.5C 372.186,167.837 408.853,179.17 445.5,190.5 Z"/></g>
<g><path style="opacity:1" fill="#eaeaea" d="M 216.5,190.5 C 217.167,190.5 217.5,190.167 217.5,189.5C 254.434,178.682 291.434,168.016 328.5,157.5C 328.833,193.173 328.5,228.84 327.5,264.5C 279.49,285.554 231.657,306.887 184,328.5C 177.463,311.221 171.13,293.888 165,276.5C 164.333,274.833 164.333,273.167 165,271.5C 182.177,244.472 199.344,217.472 216.5,190.5 Z"/></g>
<g><path style="opacity:1" fill="#dbdbdb" d="M 253.5,131.5 C 253.833,131.5 254.167,131.5 254.5,131.5C 278.72,139.24 303.054,146.574 327.5,153.5C 329.713,155.312 332.047,155.645 334.5,154.5C 359.538,147.323 384.538,139.99 409.5,132.5C 421.923,151.586 433.923,170.919 445.5,190.5C 408.853,179.17 372.186,167.837 335.5,156.5C 334.167,192.5 334.167,228.5 335.5,264.5C 383.613,285.646 431.613,306.979 479.5,328.5C 479.539,331.089 478.539,333.089 476.5,334.5C 429.186,313.844 381.853,293.178 334.5,272.5C 334.5,342.833 334.5,413.167 334.5,483.5C 332.5,483.5 330.5,483.5 328.5,483.5C 328.667,413.499 328.5,343.499 328,273.5C 327.586,273.043 327.086,272.709 326.5,272.5C 280.315,293.424 233.982,314.091 187.5,334.5C 186.386,335.723 186.219,337.056 187,338.5C 199.007,371.024 210.507,403.691 221.5,436.5C 210.946,430.638 200.446,424.638 190,418.5C 190.494,421.836 191.328,425.169 192.5,428.5C 174.994,418.579 157.327,408.913 139.5,399.5C 139.5,399.167 139.5,398.833 139.5,398.5C 138.841,395.545 138.508,392.545 138.5,389.5C 154.423,398.757 170.423,407.923 186.5,417C 187.483,417.591 188.15,417.257 188.5,416C 180.354,392.876 172.354,369.71 164.5,346.5C 163.635,345.417 162.635,345.251 161.5,346C 152.634,350.338 143.634,354.171 134.5,357.5C 135.28,367.856 136.28,378.189 137.5,388.5C 129.225,384.027 120.892,379.527 112.5,375C 111.577,372.959 111.244,370.792 111.5,368.5C 112.729,365.865 112.729,363.199 111.5,360.5C 110.391,361.59 109.391,361.59 108.5,360.5C 110.375,357.249 112.375,354.082 114.5,351C 113.536,346.934 113.203,342.767 113.5,338.5C 114.11,337.609 114.443,336.609 114.5,335.5C 119.318,329.211 123.651,322.544 127.5,315.5C 133.554,306.772 139.221,297.772 144.5,288.5C 150.579,280.684 155.912,272.35 160.5,263.5C 175.913,241.016 190.579,218.016 204.5,194.5C 205.5,194.167 206.167,193.5 206.5,192.5C 209.903,192.149 213.237,191.482 216.5,190.5C 199.344,217.472 182.177,244.472 165,271.5C 164.333,273.167 164.333,274.833 165,276.5C 171.13,293.888 177.463,311.221 184,328.5C 231.657,306.887 279.49,285.554 327.5,264.5C 328.5,228.84 328.833,193.173 328.5,157.5C 291.434,168.016 254.434,178.682 217.5,189.5C 229.923,170.414 241.923,151.081 253.5,131.5 Z"/></g>
<g><path style="opacity:1" fill="#a7a7a7" d="M 204.5,194.5 C 190.579,218.016 175.913,241.016 160.5,263.5C 155.106,248.152 149.606,232.819 144,217.5C 142.958,214.196 144.125,212.029 147.5,211C 162.31,206.56 176.977,202.06 191.5,197.5C 193.698,197.125 195.698,196.458 197.5,195.5C 199.861,195.326 202.194,194.993 204.5,194.5 Z"/></g>
<g><path style="opacity:1" fill="#a9a9a9" d="M 458.5,195.5 C 461.598,195.756 464.598,196.422 467.5,197.5C 469.772,198.319 472.106,198.985 474.5,199.5C 488.628,204.263 502.962,208.763 517.5,213C 520.087,214.525 520.92,216.692 520,219.5C 514.201,234.757 508.701,250.091 503.5,265.5C 488.534,242.189 473.534,218.856 458.5,195.5 Z"/></g>
<g><path style="opacity:1" fill="#a4a4a4" d="M 125.5,238.5 C 126.458,238.953 127.292,239.619 128,240.5C 133.611,256.502 139.111,272.502 144.5,288.5C 139.221,297.772 133.554,306.772 127.5,315.5C 125.785,295.569 123.118,275.902 119.5,256.5C 119.5,254.167 119.5,251.833 119.5,249.5C 119.998,246.513 120.498,243.513 121,240.5C 122.11,238.963 123.61,238.297 125.5,238.5 Z"/></g>
<g><path style="opacity:1" fill="#a5a5a5" d="M 538.5,240.5 C 540.39,240.297 541.89,240.963 543,242.5C 543.29,244.92 543.79,247.254 544.5,249.5C 544.5,251.833 544.5,254.167 544.5,256.5C 541.199,275.986 538.199,295.652 535.5,315.5C 529.847,306.87 524.18,298.203 518.5,289.5C 524.833,274.14 530.666,258.473 536,242.5C 536.708,241.619 537.542,240.953 538.5,240.5 Z"/></g>
<g><path style="opacity:1" fill="#666666" d="M 119.5,256.5 C 123.118,275.902 125.785,295.569 127.5,315.5C 123.651,322.544 119.318,329.211 114.5,335.5C 115.629,309.107 117.295,282.774 119.5,256.5 Z"/></g>
<g><path style="opacity:1" fill="#676767" d="M 544.5,256.5 C 546.099,282.819 547.432,309.153 548.5,335.5C 543.682,329.211 539.349,322.544 535.5,315.5C 538.199,295.652 541.199,275.986 544.5,256.5 Z"/></g>
<g><path style="opacity:1" fill="#eaeaea" d="M 328.5,483.5 C 328.5,485.833 328.5,488.167 328.5,490.5C 322.208,489.196 315.874,488.029 309.5,487C 280.941,470.556 252.274,454.389 223.5,438.5C 222.833,437.833 222.167,437.167 221.5,436.5C 210.507,403.691 199.007,371.024 187,338.5C 186.219,337.056 186.386,335.723 187.5,334.5C 233.982,314.091 280.315,293.424 326.5,272.5C 327.086,272.709 327.586,273.043 328,273.5C 328.5,343.499 328.667,413.499 328.5,483.5 Z"/></g>
<g><path style="opacity:1" fill="#eaeaea" d="M 476.5,334.5 C 476.804,335.15 477.137,335.817 477.5,336.5C 464.695,370.084 452.195,403.751 440,437.5C 411.248,454.126 382.415,470.626 353.5,487C 347.222,487.8 341.056,488.966 335,490.5C 334.503,488.19 334.337,485.857 334.5,483.5C 334.5,413.167 334.5,342.833 334.5,272.5C 381.853,293.178 429.186,313.844 476.5,334.5 Z"/></g>
<g><path style="opacity:1" fill="#d8d8d8" d="M 447.5,191.5 C 450.85,192.503 454.183,193.503 457.5,194.5C 458.167,194.5 458.5,194.833 458.5,195.5C 473.534,218.856 488.534,242.189 503.5,265.5C 508.5,273.5 513.5,281.5 518.5,289.5C 524.18,298.203 529.847,306.87 535.5,315.5C 539.349,322.544 543.682,329.211 548.5,335.5C 548.557,336.609 548.89,337.609 549.5,338.5C 549.797,342.767 549.464,346.934 548.5,351C 550.506,354.017 552.506,357.017 554.5,360C 553.863,361.713 552.863,361.879 551.5,360.5C 550.476,367.823 550.476,375.157 551.5,382.5C 551.5,382.833 551.5,383.167 551.5,383.5C 541.732,388.553 532.065,393.886 522.5,399.5C 504.465,409.849 486.465,420.182 468.5,430.5C 457.301,436.596 446.301,442.929 435.5,449.5C 416.468,459.678 397.801,470.345 379.5,481.5C 370.674,485.41 362.341,490.077 354.5,495.5C 353.833,495.5 353.167,495.5 352.5,495.5C 344.676,493.307 336.676,491.974 328.5,491.5C 328.884,493.665 328.217,495.332 326.5,496.5C 324.264,494.383 321.597,493.383 318.5,493.5C 315.183,494.053 311.85,494.386 308.5,494.5C 300.324,489.912 291.991,485.578 283.5,481.5C 264.731,470.276 245.731,459.276 226.5,448.5C 225.833,448.5 225.5,448.167 225.5,447.5C 224.677,444.539 224.01,441.539 223.5,438.5C 252.274,454.389 280.941,470.556 309.5,487C 315.874,488.029 322.208,489.196 328.5,490.5C 328.5,488.167 328.5,485.833 328.5,483.5C 330.5,483.5 332.5,483.5 334.5,483.5C 334.337,485.857 334.503,488.19 335,490.5C 341.056,488.966 347.222,487.8 353.5,487C 382.415,470.626 411.248,454.126 440,437.5C 452.195,403.751 464.695,370.084 477.5,336.5C 477.137,335.817 476.804,335.15 476.5,334.5C 478.539,333.089 479.539,331.089 479.5,328.5C 486.626,310.97 493.292,293.137 499.5,275C 482.026,247.211 464.693,219.378 447.5,191.5 Z"/></g>
<g><path style="opacity:1" fill="#e9e9e9" d="M 147.5,298.5 C 152.133,311.391 156.8,324.391 161.5,337.5C 152.468,342.347 143.135,346.681 133.5,350.5C 131.512,342.591 130.345,334.591 130,326.5C 136.058,317.282 141.891,307.949 147.5,298.5 Z"/></g>
<g><path style="opacity:1" fill="#eaeaea" d="M 515.5,299.5 C 521.47,308.325 527.304,317.325 533,326.5C 532.81,333.509 532.143,340.509 531,347.5C 530.751,348.624 530.251,349.624 529.5,350.5C 520.685,346.924 512.019,343.091 503.5,339C 502.978,338.439 502.645,337.772 502.5,337C 506.932,324.536 511.266,312.036 515.5,299.5 Z"/></g>
<g><path style="opacity:1" fill="#b1b1b1" d="M 113.5,338.5 C 113.203,342.767 113.536,346.934 114.5,351C 112.375,354.082 110.375,357.249 108.5,360.5C 109.391,361.59 110.391,361.59 111.5,360.5C 112.729,363.199 112.729,365.865 111.5,368.5C 106.029,369.376 105.529,371.043 110,373.5C 110.498,376.482 110.665,379.482 110.5,382.5C 105.527,379.679 100.527,376.845 95.5,374C 94.1955,373.196 93.5288,372.029 93.5,370.5C 99.6761,359.471 106.343,348.804 113.5,338.5 Z"/></g>
<g><path style="opacity:1" fill="#b1b1b1" d="M 549.5,338.5 C 556.657,348.804 563.324,359.471 569.5,370.5C 569.471,372.029 568.804,373.196 567.5,374C 562.271,377.113 556.938,379.947 551.5,382.5C 550.476,375.157 550.476,367.823 551.5,360.5C 552.863,361.879 553.863,361.713 554.5,360C 552.506,357.017 550.506,354.017 548.5,351C 549.464,346.934 549.797,342.767 549.5,338.5 Z"/></g>
<g><path style="opacity:1" fill="#eaeaea" d="M 138.5,389.5 C 137.833,389.5 137.5,389.167 137.5,388.5C 136.28,378.189 135.28,367.856 134.5,357.5C 143.634,354.171 152.634,350.338 161.5,346C 162.635,345.251 163.635,345.417 164.5,346.5C 172.354,369.71 180.354,392.876 188.5,416C 188.15,417.257 187.483,417.591 186.5,417C 170.423,407.923 154.423,398.757 138.5,389.5 Z"/></g>
<g><path style="opacity:1" fill="#eaeaea" d="M 499.5,345.5 C 509.534,349.346 519.367,353.679 529,358.5C 527.869,368.837 526.202,379.171 524,389.5C 507.24,398.978 490.574,408.645 474,418.5C 482.029,394.077 490.529,369.743 499.5,345.5 Z"/></g>
<g><path style="opacity:1" fill="#cbcbcb" d="M 111.5,368.5 C 111.244,370.792 111.577,372.959 112.5,375C 120.892,379.527 129.225,384.027 137.5,388.5C 137.5,389.167 137.833,389.5 138.5,389.5C 138.508,392.545 138.841,395.545 139.5,398.5C 129.7,393.433 120.033,388.099 110.5,382.5C 110.665,379.482 110.498,376.482 110,373.5C 105.529,371.043 106.029,369.376 111.5,368.5 Z"/></g>
<g><path style="opacity:1" fill="#6d6d6d" d="M 110.5,382.5 C 120.033,388.099 129.7,393.433 139.5,398.5C 139.5,398.833 139.5,399.167 139.5,399.5C 140.785,408.326 142.118,417.16 143.5,426C 143.43,426.765 143.097,427.265 142.5,427.5C 131.833,421.5 121.167,415.5 110.5,409.5C 109.833,408.833 109.167,408.167 108.5,407.5C 109.767,399.362 110.434,391.029 110.5,382.5 Z"/></g>
<g><path style="opacity:1" fill="#6d6d6d" d="M 551.5,383.5 C 551.913,392.002 552.58,400.335 553.5,408.5C 553.5,408.833 553.5,409.167 553.5,409.5C 542.367,415.234 531.367,421.234 520.5,427.5C 519.844,426.378 519.511,425.045 519.5,423.5C 520.937,415.545 521.937,407.545 522.5,399.5C 532.065,393.886 541.732,388.553 551.5,383.5 Z"/></g>
<g><path style="opacity:1" fill="#afafaf" d="M 108.5,407.5 C 109.167,408.167 109.833,408.833 110.5,409.5C 109.883,409.611 109.383,409.944 109,410.5C 108.501,415.823 108.334,421.156 108.5,426.5C 108.167,426.5 107.833,426.5 107.5,426.5C 102.435,420.103 97.7681,413.437 93.5,406.5C 93.8333,404.167 95.1667,402.833 97.5,402.5C 101.333,403.918 105,405.585 108.5,407.5 Z"/></g>
<g><path style="opacity:1" fill="#b0b0b0" d="M 554.5,426.5 C 553.511,421.025 553.178,415.358 553.5,409.5C 553.5,409.167 553.5,408.833 553.5,408.5C 557.13,406.102 560.963,404.102 565,402.5C 567.744,402.412 568.91,403.745 568.5,406.5C 565.023,413.981 560.356,420.648 554.5,426.5 Z"/></g>
<g><path style="opacity:1" fill="#aaaaaa" d="M 139.5,399.5 C 157.327,408.913 174.994,418.579 192.5,428.5C 193.167,429.167 193.833,429.833 194.5,430.5C 194.062,430.435 193.728,430.601 193.5,431C 197.462,441.718 201.128,452.551 204.5,463.5C 184.357,451.592 164.024,439.926 143.5,428.5C 142.833,428.5 142.5,428.167 142.5,427.5C 143.097,427.265 143.43,426.765 143.5,426C 142.118,417.16 140.785,408.326 139.5,399.5 Z"/></g>
<g><path style="opacity:1" fill="#aaaaaa" d="M 522.5,399.5 C 521.937,407.545 520.937,415.545 519.5,423.5C 519.511,425.045 519.844,426.378 520.5,427.5C 519.833,428.167 519.167,428.833 518.5,429.5C 498.005,440.58 477.672,451.913 457.5,463.5C 461.453,452.594 465.12,441.594 468.5,430.5C 486.465,420.182 504.465,409.849 522.5,399.5 Z"/></g>
<g><path style="opacity:1" fill="#cccccc" d="M 110.5,409.5 C 121.167,415.5 131.833,421.5 142.5,427.5C 142.5,428.167 142.833,428.5 143.5,428.5C 143.963,431.482 144.296,434.482 144.5,437.5C 134.146,431.328 123.646,425.328 113,419.5C 124.148,435.842 135.981,451.842 148.5,467.5C 148.5,467.833 148.5,468.167 148.5,468.5C 149.445,473.114 150.112,477.781 150.5,482.5C 138.5,467.167 126.5,451.833 114.5,436.5C 112.5,433.167 110.5,429.833 108.5,426.5C 108.334,421.156 108.501,415.823 109,410.5C 109.383,409.944 109.883,409.611 110.5,409.5 Z"/></g>
<g><path style="opacity:1" fill="#cccccc" d="M 221.5,436.5 C 222.167,437.167 222.833,437.833 223.5,438.5C 224.01,441.539 224.677,444.539 225.5,447.5C 215.033,442.1 204.7,436.433 194.5,430.5C 193.833,429.833 193.167,429.167 192.5,428.5C 191.328,425.169 190.494,421.836 190,418.5C 200.446,424.638 210.946,430.638 221.5,436.5 Z"/></g>
<g><path style="opacity:1" fill="#dbdbdb" d="M 144.5,437.5 C 145.926,447.484 147.26,457.484 148.5,467.5C 135.981,451.842 124.148,435.842 113,419.5C 123.646,425.328 134.146,431.328 144.5,437.5 Z"/></g>
<g><path style="opacity:1" fill="#646464" d="M 107.5,426.5 C 107.833,426.5 108.167,426.5 108.5,426.5C 110.5,429.833 112.5,433.167 114.5,436.5C 111.755,491.974 108.089,547.807 103.5,604C 103.449,608.632 103.616,613.465 104,618.5C 130.752,588.255 156.918,557.588 182.5,526.5C 184.543,527.579 185.876,529.246 186.5,531.5C 185.949,534.267 184.616,536.6 182.5,538.5C 158.009,566.494 133.676,594.661 109.5,623C 151.563,614.754 193.563,605.92 235.5,596.5C 237.139,598.806 239.139,600.806 241.5,602.5C 241.5,602.833 241.5,603.167 241.5,603.5C 195.072,612.886 148.739,622.719 102.5,633C 99.6529,633.944 97.1529,633.444 95,631.5C 99.2881,563.196 103.455,494.862 107.5,426.5 Z"/></g>
<g><path style="opacity:1" fill="#dbdbdb" d="M 143.5,428.5 C 164.024,439.926 184.357,451.592 204.5,463.5C 205.833,467.167 207.167,470.833 208.5,474.5C 187.194,462.178 165.861,449.845 144.5,437.5C 144.296,434.482 143.963,431.482 143.5,428.5 Z"/></g>
<g><path style="opacity:1" fill="#dbdbdb" d="M 513.5,468.5 C 515.002,458.499 516.169,448.499 517,438.5C 495.888,450.971 474.721,463.305 453.5,475.5C 454.202,472.56 455.202,469.727 456.5,467C 455.944,466.617 455.611,466.117 455.5,465.5C 456.5,465.167 457.167,464.5 457.5,463.5C 477.672,451.913 498.005,440.58 518.5,429.5C 518.051,432.29 518.051,434.956 518.5,437.5C 528.871,431.3 539.371,425.3 550,419.5C 538.518,436.176 526.351,452.51 513.5,468.5 Z"/></g>
<g><path style="opacity:1" fill="#646464" d="M 554.5,428.5 C 557.962,495.175 561.629,561.842 565.5,628.5C 565.428,630.56 565.095,632.56 564.5,634.5C 561.554,635.655 558.554,635.821 555.5,635C 510.862,624.64 466.196,614.473 421.5,604.5C 422.811,601.865 424.478,599.531 426.5,597.5C 467.09,606.953 507.757,616.286 548.5,625.5C 549.167,625.167 549.833,624.833 550.5,624.5C 525.519,594.187 500.186,564.187 474.5,534.5C 475.075,532.589 476.075,530.922 477.5,529.5C 479.09,529.628 480.423,530.295 481.5,531.5C 506.027,561.213 530.86,590.88 556,620.5C 556.374,619.584 556.874,618.75 557.5,618C 553.508,557.648 550.175,497.481 547.5,437.5C 549.458,434.208 551.791,431.208 554.5,428.5 Z"/></g>
<g><path style="opacity:1" fill="#6e6e6e" d="M 114.5,436.5 C 126.5,451.833 138.5,467.167 150.5,482.5C 151.11,483.391 151.443,484.391 151.5,485.5C 152.682,497.626 154.515,509.626 157,521.5C 158.569,522.122 160.236,522.456 162,522.5C 167.222,521.736 172.389,520.736 177.5,519.5C 179.547,521.55 181.214,523.883 182.5,526.5C 156.918,557.588 130.752,588.255 104,618.5C 103.616,613.465 103.449,608.632 103.5,604C 108.089,547.807 111.755,491.974 114.5,436.5 Z"/></g>
<g><path style="opacity:1" fill="#6d6d6d" d="M 194.5,430.5 C 204.7,436.433 215.033,442.1 225.5,447.5C 225.5,448.167 225.833,448.5 226.5,448.5C 229.017,456.556 232.017,464.389 235.5,472C 251.451,475.491 267.451,478.658 283.5,481.5C 291.991,485.578 300.324,489.912 308.5,494.5C 308.5,494.833 308.5,495.167 308.5,495.5C 295.926,497.216 283.593,499.549 271.5,502.5C 249.003,489.752 226.669,476.752 204.5,463.5C 201.128,452.551 197.462,441.718 193.5,431C 193.728,430.601 194.062,430.435 194.5,430.5 Z"/></g>
<g><path style="opacity:1" fill="#6d6d6d" d="M 468.5,430.5 C 465.12,441.594 461.453,452.594 457.5,463.5C 457.167,464.5 456.5,465.167 455.5,465.5C 433.669,477.914 412.002,490.581 390.5,503.5C 378.675,500.547 366.675,497.88 354.5,495.5C 362.341,490.077 370.674,485.41 379.5,481.5C 395.323,479.252 410.99,476.252 426.5,472.5C 430.085,465.08 433.085,457.413 435.5,449.5C 446.301,442.929 457.301,436.596 468.5,430.5 Z"/></g>
<g><path style="opacity:1" fill="#eaeaea" d="M 144.5,437.5 C 165.861,449.845 187.194,462.178 208.5,474.5C 208.5,475.167 208.833,475.5 209.5,475.5C 210.849,482.216 213.183,488.549 216.5,494.5C 228.857,496.741 241.19,499.075 253.5,501.5C 254.833,501.833 256.167,502.167 257.5,502.5C 258.953,503.825 258.619,504.658 256.5,505C 232.878,509.66 209.212,513.66 185.5,517C 173.687,500.364 161.353,484.198 148.5,468.5C 148.5,468.167 148.5,467.833 148.5,467.5C 147.26,457.484 145.926,447.484 144.5,437.5 Z"/></g>
<g><path style="opacity:1" fill="#eaeaea" d="M 513.5,468.5 C 501.065,485.717 488.399,502.717 475.5,519.5C 451.104,514.991 426.77,510.158 402.5,505C 403.416,504.722 404.082,504.222 404.5,503.5C 406.167,502.833 407.833,502.167 409.5,501.5C 421.358,499.695 433.191,497.695 445,495.5C 445.945,495.095 446.612,494.428 447,493.5C 448.848,487.812 450.681,482.146 452.5,476.5C 452.5,475.833 452.833,475.5 453.5,475.5C 474.721,463.305 495.888,450.971 517,438.5C 516.169,448.499 515.002,458.499 513.5,468.5 Z"/></g>
<g><path style="opacity:1" fill="#6e6e6e" d="M 547.5,437.5 C 550.175,497.481 553.508,557.648 557.5,618C 556.874,618.75 556.374,619.584 556,620.5C 530.86,590.88 506.027,561.213 481.5,531.5C 480.423,530.295 479.09,529.628 477.5,529.5C 479.5,526.833 481.5,524.167 483.5,521.5C 489.18,522.336 494.847,523.336 500.5,524.5C 502.374,524.61 503.874,523.944 505,522.5C 506.944,510.505 508.777,498.505 510.5,486.5C 522.48,469.859 534.814,453.526 547.5,437.5 Z"/></g>
<g><path style="opacity:1" fill="#a5a5a5" d="M 226.5,448.5 C 245.731,459.276 264.731,470.276 283.5,481.5C 267.451,478.658 251.451,475.491 235.5,472C 232.017,464.389 229.017,456.556 226.5,448.5 Z"/></g>
<g><path style="opacity:1" fill="#a8a8a8" d="M 435.5,449.5 C 433.085,457.413 430.085,465.08 426.5,472.5C 410.99,476.252 395.323,479.252 379.5,481.5C 397.801,470.345 416.468,459.678 435.5,449.5 Z"/></g>
<g><path style="opacity:1" fill="#cbcbcb" d="M 204.5,463.5 C 226.669,476.752 249.003,489.752 271.5,502.5C 273.883,504.358 276.55,505.692 279.5,506.5C 286.836,512.173 294.836,516.839 303.5,520.5C 303.5,520.833 303.5,521.167 303.5,521.5C 298.84,522.167 294.174,522.333 289.5,522C 280.833,517 272.167,512 263.5,507C 261.561,506.092 260.561,504.592 260.5,502.5C 259.5,502.5 258.5,502.5 257.5,502.5C 256.167,502.167 254.833,501.833 253.5,501.5C 239.116,492.47 224.449,483.803 209.5,475.5C 208.833,475.5 208.5,475.167 208.5,474.5C 207.167,470.833 205.833,467.167 204.5,463.5 Z"/></g>
<g><path style="opacity:1" fill="#cbcbcb" d="M 455.5,465.5 C 455.611,466.117 455.944,466.617 456.5,467C 455.202,469.727 454.202,472.56 453.5,475.5C 452.833,475.5 452.5,475.833 452.5,476.5C 437.903,484.442 423.569,492.775 409.5,501.5C 407.833,502.167 406.167,502.833 404.5,503.5C 402.473,503.338 400.473,503.505 398.5,504C 401.943,504.221 402.276,505.221 399.5,507C 389.939,512.274 380.606,517.774 371.5,523.5C 371.167,523.5 370.833,523.5 370.5,523.5C 366.888,522.578 363.221,521.911 359.5,521.5C 367.836,517.001 375.836,512.001 383.5,506.5C 385.954,505.773 388.287,504.773 390.5,503.5C 412.002,490.581 433.669,477.914 455.5,465.5 Z"/></g>
<g><path style="opacity:1" fill="#dcdcdc" d="M 209.5,475.5 C 224.449,483.803 239.116,492.47 253.5,501.5C 241.19,499.075 228.857,496.741 216.5,494.5C 213.183,488.549 210.849,482.216 209.5,475.5 Z"/></g>
<g><path style="opacity:1" fill="#dcdcdc" d="M 452.5,476.5 C 450.681,482.146 448.848,487.812 447,493.5C 446.612,494.428 445.945,495.095 445,495.5C 433.191,497.695 421.358,499.695 409.5,501.5C 423.569,492.775 437.903,484.442 452.5,476.5 Z"/></g>
<g><path style="opacity:1" fill="#a8a8a8" d="M 151.5,485.5 C 160.519,496.525 169.186,507.858 177.5,519.5C 172.389,520.736 167.222,521.736 162,522.5C 160.236,522.456 158.569,522.122 157,521.5C 154.515,509.626 152.682,497.626 151.5,485.5 Z"/></g>
<g><path style="opacity:1" fill="#a5a5a5" d="M 510.5,486.5 C 508.777,498.505 506.944,510.505 505,522.5C 503.874,523.944 502.374,524.61 500.5,524.5C 494.847,523.336 489.18,522.336 483.5,521.5C 492.148,509.524 501.148,497.857 510.5,486.5 Z"/></g>
<g><path style="opacity:1" fill="#b2b2b2" d="M 352.5,495.5 C 346.014,500.248 339.014,504.248 331.5,507.5C 323.659,503.747 315.992,499.747 308.5,495.5C 308.5,495.167 308.5,494.833 308.5,494.5C 311.85,494.386 315.183,494.053 318.5,493.5C 321.597,493.383 324.264,494.383 326.5,496.5C 328.217,495.332 328.884,493.665 328.5,491.5C 336.676,491.974 344.676,493.307 352.5,495.5 Z"/></g>
<g><path style="opacity:1" fill="#030303" d="M 308.5,495.5 C 315.992,499.747 323.659,503.747 331.5,507.5C 339.014,504.248 346.014,500.248 352.5,495.5C 353.167,495.5 353.833,495.5 354.5,495.5C 366.675,497.88 378.675,500.547 390.5,503.5C 388.287,504.773 385.954,505.773 383.5,506.5C 365.905,509.885 348.239,512.885 330.5,515.5C 313.459,512.625 296.459,509.625 279.5,506.5C 276.55,505.692 273.883,504.358 271.5,502.5C 283.593,499.549 295.926,497.216 308.5,495.5 Z"/></g>
<g><path style="opacity:1" fill="#dbdbdb" d="M 148.5,468.5 C 161.353,484.198 173.687,500.364 185.5,517C 209.212,513.66 232.878,509.66 256.5,505C 258.619,504.658 258.953,503.825 257.5,502.5C 258.5,502.5 259.5,502.5 260.5,502.5C 260.561,504.592 261.561,506.092 263.5,507C 272.167,512 280.833,517 289.5,522C 294.174,522.333 298.84,522.167 303.5,521.5C 312.806,526.821 322.139,532.155 331.5,537.5C 337.184,534.139 342.851,530.806 348.5,527.5C 351.869,525.485 355.202,523.485 358.5,521.5C 358.833,521.5 359.167,521.5 359.5,521.5C 363.221,521.911 366.888,522.578 370.5,523.5C 358.647,530.348 346.814,537.348 335,544.5C 334.5,557.162 334.333,569.829 334.5,582.5C 371.441,574.51 408.441,566.843 445.5,559.5C 434.59,573.655 423.923,587.988 413.5,602.5C 413.167,602.5 412.833,602.5 412.5,602.5C 386.879,596.626 361.212,590.96 335.5,585.5C 335.389,584.883 335.056,584.383 334.5,584C 332.527,583.505 330.527,583.338 328.5,583.5C 328.667,570.496 328.5,557.496 328,544.5C 316.348,537.26 304.514,530.427 292.5,524C 262.899,527.89 233.399,532.723 204,538.5C 202.743,538.85 202.409,539.517 203,540.5C 207.384,546.044 211.551,551.711 215.5,557.5C 212.421,556.628 209.421,556.628 206.5,557.5C 206.167,556.5 205.5,555.833 204.5,555.5C 201.188,550.196 197.521,545.196 193.5,540.5C 191.518,537.19 189.185,534.19 186.5,531.5C 185.876,529.246 184.543,527.579 182.5,526.5C 181.214,523.883 179.547,521.55 177.5,519.5C 169.186,507.858 160.519,496.525 151.5,485.5C 151.443,484.391 151.11,483.391 150.5,482.5C 150.112,477.781 149.445,473.114 148.5,468.5 Z"/></g>
<g><path style="opacity:1" fill="#656565" d="M 279.5,506.5 C 296.459,509.625 313.459,512.625 330.5,515.5C 348.239,512.885 365.905,509.885 383.5,506.5C 375.836,512.001 367.836,517.001 359.5,521.5C 359.167,521.5 358.833,521.5 358.5,521.5C 348.962,519.185 339.296,517.518 329.5,516.5C 323.138,517.341 316.804,518.341 310.5,519.5C 308.236,520.219 305.903,520.552 303.5,520.5C 294.836,516.839 286.836,512.173 279.5,506.5 Z"/></g>
<g><path style="opacity:1" fill="#dbdbdb" d="M 404.5,503.5 C 404.082,504.222 403.416,504.722 402.5,505C 426.77,510.158 451.104,514.991 475.5,519.5C 470.136,526.524 464.802,533.524 459.5,540.5C 430.342,534.603 401.009,528.936 371.5,523.5C 380.606,517.774 389.939,512.274 399.5,507C 402.276,505.221 401.943,504.221 398.5,504C 400.473,503.505 402.473,503.338 404.5,503.5 Z"/></g>
<g><path style="opacity:1" fill="#a0a0a0" d="M 358.5,521.5 C 355.202,523.485 351.869,525.485 348.5,527.5C 335.836,524.834 323.169,522.167 310.5,519.5C 316.804,518.341 323.138,517.341 329.5,516.5C 339.296,517.518 348.962,519.185 358.5,521.5 Z"/></g>
<g><path style="opacity:1" fill="#eaeaea" d="M 328.5,583.5 C 291.574,574.782 254.574,566.448 217.5,558.5C 216.833,558.167 216.167,557.833 215.5,557.5C 211.551,551.711 207.384,546.044 203,540.5C 202.409,539.517 202.743,538.85 204,538.5C 233.399,532.723 262.899,527.89 292.5,524C 304.514,530.427 316.348,537.26 328,544.5C 328.5,557.496 328.667,570.496 328.5,583.5 Z"/></g>
<g><path style="opacity:1" fill="#acacac" d="M 310.5,519.5 C 323.169,522.167 335.836,524.834 348.5,527.5C 342.851,530.806 337.184,534.139 331.5,537.5C 322.139,532.155 312.806,526.821 303.5,521.5C 303.5,521.167 303.5,520.833 303.5,520.5C 305.903,520.552 308.236,520.219 310.5,519.5 Z"/></g>
<g><path style="opacity:1" fill="#eaeaea" d="M 370.5,523.5 C 370.833,523.5 371.167,523.5 371.5,523.5C 401.009,528.936 430.342,534.603 459.5,540.5C 454.833,546.833 450.167,553.167 445.5,559.5C 408.441,566.843 371.441,574.51 334.5,582.5C 334.333,569.829 334.5,557.162 335,544.5C 346.814,537.348 358.647,530.348 370.5,523.5 Z"/></g>
<g><path style="opacity:1" fill="#6e6e6e" d="M 474.5,534.5 C 500.186,564.187 525.519,594.187 550.5,624.5C 549.833,624.833 549.167,625.167 548.5,625.5C 507.757,616.286 467.09,606.953 426.5,597.5C 436.48,583.526 446.814,569.859 457.5,556.5C 464.134,554.939 470.8,553.439 477.5,552C 481.279,550.596 482.279,548.096 480.5,544.5C 477.721,543.644 474.888,542.977 472,542.5C 470.624,542.316 469.791,541.649 469.5,540.5C 470.701,538.091 472.367,536.091 474.5,534.5 Z"/></g>
<g><path style="opacity:1" fill="#a6a6a6" d="M 193.5,540.5 C 197.521,545.196 201.188,550.196 204.5,555.5C 196.872,553.607 189.205,551.773 181.5,550C 178.141,547.966 177.808,545.632 180.5,543C 184.728,541.588 189.061,540.754 193.5,540.5 Z"/></g>
<g><path style="opacity:1" fill="#d2d2d2" d="M 553.5,409.5 C 553.178,415.358 553.511,421.025 554.5,426.5C 554.5,427.167 554.5,427.833 554.5,428.5C 551.791,431.208 549.458,434.208 547.5,437.5C 534.814,453.526 522.48,469.859 510.5,486.5C 501.148,497.857 492.148,509.524 483.5,521.5C 481.5,524.167 479.5,526.833 477.5,529.5C 476.075,530.922 475.075,532.589 474.5,534.5C 472.367,536.091 470.701,538.091 469.5,540.5C 465.147,545.527 461.147,550.86 457.5,556.5C 446.814,569.859 436.48,583.526 426.5,597.5C 424.478,599.531 422.811,601.865 421.5,604.5C 421.167,604.5 420.833,604.5 420.5,604.5C 418.228,603.681 415.894,603.015 413.5,602.5C 423.923,587.988 434.59,573.655 445.5,559.5C 450.167,553.167 454.833,546.833 459.5,540.5C 464.802,533.524 470.136,526.524 475.5,519.5C 488.399,502.717 501.065,485.717 513.5,468.5C 526.351,452.51 538.518,436.176 550,419.5C 539.371,425.3 528.871,431.3 518.5,437.5C 518.051,434.956 518.051,432.29 518.5,429.5C 519.167,428.833 519.833,428.167 520.5,427.5C 531.367,421.234 542.367,415.234 553.5,409.5 Z"/></g>
<g><path style="opacity:1" fill="#6e6e6e" d="M 186.5,531.5 C 189.185,534.19 191.518,537.19 193.5,540.5C 189.061,540.754 184.728,541.588 180.5,543C 177.808,545.632 178.141,547.966 181.5,550C 189.205,551.773 196.872,553.607 204.5,555.5C 205.5,555.833 206.167,556.5 206.5,557.5C 216.552,570.218 226.219,583.218 235.5,596.5C 193.563,605.92 151.563,614.754 109.5,623C 133.676,594.661 158.009,566.494 182.5,538.5C 184.616,536.6 185.949,534.267 186.5,531.5 Z"/></g>
<g><path style="opacity:1" fill="#a4a4a4" d="M 469.5,540.5 C 469.791,541.649 470.624,542.316 472,542.5C 474.888,542.977 477.721,543.644 480.5,544.5C 482.279,548.096 481.279,550.596 477.5,552C 470.8,553.439 464.134,554.939 457.5,556.5C 461.147,550.86 465.147,545.527 469.5,540.5 Z"/></g>
<g><path style="opacity:1" fill="#dbdbdb" d="M 217.5,558.5 C 254.574,566.448 291.574,574.782 328.5,583.5C 328.5,583.833 328.5,584.167 328.5,584.5C 305.739,588.886 283.072,593.719 260.5,599C 256.527,599.998 252.527,600.331 248.5,600C 237.925,586.271 227.592,572.438 217.5,558.5 Z"/></g>
<g><path style="opacity:1" fill="#c2c2c2" d="M 215.5,557.5 C 216.167,557.833 216.833,558.167 217.5,558.5C 227.592,572.438 237.925,586.271 248.5,600C 252.527,600.331 256.527,599.998 260.5,599C 283.072,593.719 305.739,588.886 328.5,584.5C 328.833,624.506 328.5,664.506 327.5,704.5C 302.102,671.384 276.935,638.051 252,604.5C 249.089,601.238 245.589,600.571 241.5,602.5C 239.139,600.806 237.139,598.806 235.5,596.5C 226.219,583.218 216.552,570.218 206.5,557.5C 209.421,556.628 212.421,556.628 215.5,557.5 Z"/></g>
<g><path style="opacity:1" fill="#b1b1b1" d="M 328.5,583.5 C 330.527,583.338 332.527,583.505 334.5,584C 335.056,584.383 335.389,584.883 335.5,585.5C 335.333,625.168 335.5,664.835 336,704.5C 361.332,670.34 386.832,636.34 412.5,602.5C 412.833,602.5 413.167,602.5 413.5,602.5C 415.894,603.015 418.228,603.681 420.5,604.5C 391.833,642.833 363.167,681.167 334.5,719.5C 332.5,719.5 330.5,719.5 328.5,719.5C 299.5,680.833 270.5,642.167 241.5,603.5C 241.5,603.167 241.5,602.833 241.5,602.5C 245.589,600.571 249.089,601.238 252,604.5C 276.935,638.051 302.102,671.384 327.5,704.5C 328.5,664.506 328.833,624.506 328.5,584.5C 328.5,584.167 328.5,583.833 328.5,583.5 Z"/></g>
<g><path style="opacity:1" fill="#c2c2c2" d="M 335.5,585.5 C 361.212,590.96 386.879,596.626 412.5,602.5C 386.832,636.34 361.332,670.34 336,704.5C 335.5,664.835 335.333,625.168 335.5,585.5 Z"/></g>
</svg>
