<?xml version="1.0" encoding="UTF-8"?>
<!DOCTYPE svg PUBLIC "-//W3C//DTD SVG 1.1//EN" "http://www.w3.org/Graphics/SVG/1.1/DTD/svg11.dtd">
<svg xmlns="http://www.w3.org/2000/svg" version="1.1" width="682px" height="720px" style="shape-rendering:geometricPrecision; text-rendering:geometricPrecision; image-rendering:optimizeQuality; fill-rule:evenodd; clip-rule:evenodd" xmlns:xlink="http://www.w3.org/1999/xlink">
<g><path style="opacity:1" fill="#fefefe" d="M -0.5,-0.5 C 109.833,-0.5 220.167,-0.5 330.5,-0.5C 302.113,41.9174 274.446,84.9174 247.5,128.5C 199.999,114.723 152.666,100.223 105.5,85C 103.098,84.1859 100.765,84.3526 98.5,85.5C 97.9781,86.6074 97.6448,87.7741 97.5,89C 104.62,141.667 111.953,194.167 119.5,246.5C 119.5,249.833 119.5,253.167 119.5,256.5C 117.407,282.805 115.74,309.138 114.5,335.5C 114.443,336.609 114.11,337.609 113.5,338.5C 106.343,348.804 99.6761,359.471 93.5,370.5C 93.5288,372.029 94.1955,373.196 95.5,374C 100.527,376.845 105.527,379.679 110.5,382.5C 110.072,391.162 109.738,399.829 109.5,408.5C 105.739,406.085 101.739,404.085 97.5,402.5C 95.1667,402.833 93.8333,404.167 93.5,406.5C 97.7681,413.437 102.435,420.103 107.5,426.5C 103.166,494.841 98.9989,563.175 95,631.5C 97.1529,633.444 99.6529,633.944 102.5,633C 148.758,622.715 195.091,612.882 241.5,603.5C 270.5,642.167 299.5,680.833 328.5,719.5C 218.833,719.5 109.167,719.5 -0.5,719.5C -0.5,479.5 -0.5,239.5 -0.5,-0.5 Z"/></g>
<g><path style="opacity:1" fill="#fefefe" d="M 332.5,-0.5 C 448.833,-0.5 565.167,-0.5 681.5,-0.5C 681.5,239.5 681.5,479.5 681.5,719.5C 565.833,719.5 450.167,719.5 334.5,719.5C 363.167,681.167 391.833,642.833 420.5,604.5C 420.833,604.5 421.167,604.5 421.5,604.5C 466.206,614.475 510.872,624.641 555.5,635C 558.554,635.821 561.554,635.655 564.5,634.5C 565.095,632.56 565.428,630.56 565.5,628.5C 561.2,561.868 557.533,495.201 554.5,428.5C 558.49,421.874 562.99,415.54 568,409.5C 568.667,407.5 568.667,405.5 568,403.5C 567.275,402.941 566.442,402.608 565.5,402.5C 561.261,404.085 557.261,406.085 553.5,408.5C 552.58,400.335 551.913,392.002 551.5,383.5C 551.5,383.167 551.5,382.833 551.5,382.5C 556.938,379.947 562.271,377.113 567.5,374C 568.83,371.123 568.664,368.289 567,365.5C 561.304,356.325 555.47,347.325 549.5,338.5C 548.89,337.609 548.557,336.609 548.5,335.5C 547.323,309.159 545.99,282.825 544.5,256.5C 544.5,253.833 544.5,251.167 544.5,248.5C 552.652,195.974 560.652,143.308 568.5,90.5C 567.148,86.7459 564.482,85.5792 560.5,87C 512.602,101.69 464.602,115.857 416.5,129.5C 388.971,85.7534 360.971,42.42 332.5,-0.5 Z"/></g>
<g><path style="opacity:1" fill="#474747" d="M 330.5,-0.5 C 331.167,-0.5 331.833,-0.5 332.5,-0.5C 360.971,42.42 388.971,85.7534 416.5,129.5C 416.5,129.833 416.5,130.167 416.5,130.5C 413.833,131.167 411.167,131.833 408.5,132.5C 408.5,131.833 408.167,131.5 407.5,131.5C 383.677,93.8615 359.844,56.1948 336,18.5C 335.5,63.8321 335.333,109.165 335.5,154.5C 335.5,154.833 335.5,155.167 335.5,155.5C 332.794,155.425 330.127,155.092 327.5,154.5C 327.5,154.167 327.5,153.833 327.5,153.5C 327.667,108.832 327.5,64.1654 327,19.5C 302.906,56.6921 279.073,94.0255 255.5,131.5C 255.167,131.5 254.833,131.5 254.5,131.5C 252.167,130.833 249.833,130.167 247.5,129.5C 247.5,129.167 247.5,128.833 247.5,128.5C 274.446,84.9174 302.113,41.9174 330.5,-0.5 Z"/></g>
<g><path style="opacity:1" fill="#979797" d="M 327.5,153.5 C 303.31,146.77 279.31,139.437 255.5,131.5C 279.073,94.0255 302.906,56.6921 327,19.5C 327.5,64.1654 327.667,108.832 327.5,153.5 Z"/></g>
<g><path style="opacity:1" fill="#d2d2d2" d="M 407.5,131.5 C 407.119,132.931 406.119,133.764 404.5,134C 381.452,140.739 358.452,147.572 335.5,154.5C 335.333,109.165 335.5,63.8321 336,18.5C 359.844,56.1948 383.677,93.8615 407.5,131.5 Z"/></g>
<g><path style="opacity:1" fill="#969696" d="M 247.5,128.5 C 247.5,128.833 247.5,129.167 247.5,129.5C 245.674,131.147 244.34,133.147 243.5,135.5C 242.833,135.833 242.167,136.167 241.5,136.5C 199.827,122.746 157.827,109.913 115.5,98C 142.766,131.064 170.599,163.564 199,195.5C 200.766,194.767 202.599,194.433 204.5,194.5C 203.89,196.434 202.89,198.101 201.5,199.5C 200.709,197.557 199.209,196.557 197,196.5C 194.133,196.839 191.633,197.839 189.5,199.5C 188.833,199.5 188.167,199.5 187.5,199.5C 188.501,198.211 188.334,196.878 187,195.5C 161,164.833 135,134.167 109,103.5C 114.036,148.918 119.869,194.252 126.5,239.5C 121.388,238.607 119.055,240.941 119.5,246.5C 111.953,194.167 104.62,141.667 97.5,89C 97.6448,87.7741 97.9781,86.6074 98.5,85.5C 100.765,84.3526 103.098,84.1859 105.5,85C 152.666,100.223 199.999,114.723 247.5,128.5 Z"/></g>
<g><path style="opacity:1" fill="#969696" d="M 544.5,248.5 C 543.691,246.708 543.191,244.708 543,242.5C 541.556,240.845 539.722,240.178 537.5,240.5C 544.41,195.551 550.91,150.551 557,105.5C 529.226,136.764 502.06,168.431 475.5,200.5C 475.167,200.5 474.833,200.5 474.5,200.5C 472.064,199.129 469.397,198.129 466.5,197.5C 493.916,164.577 521.916,132.077 550.5,100C 508.111,111.85 465.778,124.184 423.5,137C 422.944,137.383 422.611,137.883 422.5,138.5C 420.5,135.833 418.5,133.167 416.5,130.5C 416.5,130.167 416.5,129.833 416.5,129.5C 464.602,115.857 512.602,101.69 560.5,87C 564.482,85.5792 567.148,86.7459 568.5,90.5C 560.652,143.308 552.652,195.974 544.5,248.5 Z"/></g>
<g><path style="opacity:1" fill="#e5e5e5" d="M 241.5,136.5 C 229.582,155.333 217.916,174.333 206.5,193.5C 205.833,193.833 205.167,194.167 204.5,194.5C 202.599,194.433 200.766,194.767 199,195.5C 170.599,163.564 142.766,131.064 115.5,98C 157.827,109.913 199.827,122.746 241.5,136.5 Z"/></g>
<g><path style="opacity:1" fill="#c4c4c4" d="M 466.5,197.5 C 466.167,197.5 465.833,197.5 465.5,197.5C 463.401,196.388 461.067,195.721 458.5,195.5C 458.5,194.833 458.167,194.5 457.5,194.5C 445.844,175.861 434.178,157.195 422.5,138.5C 422.611,137.883 422.944,137.383 423.5,137C 465.778,124.184 508.111,111.85 550.5,100C 521.916,132.077 493.916,164.577 466.5,197.5 Z"/></g>
<g><path style="opacity:1" fill="#c4c4c4" d="M 187.5,199.5 C 175.188,202.984 162.855,206.484 150.5,210C 145.686,210.466 143.519,212.966 144,217.5C 149.606,232.819 155.106,248.152 160.5,263.5C 155.752,271.999 150.752,280.332 145.5,288.5C 139.082,272.903 133.248,256.903 128,240.5C 127.617,239.944 127.117,239.611 126.5,239.5C 119.869,194.252 114.036,148.918 109,103.5C 135,134.167 161,164.833 187,195.5C 188.334,196.878 188.501,198.211 187.5,199.5 Z"/></g>
<g><path style="opacity:1" fill="#e5e5e5" d="M 537.5,240.5 C 537.5,240.833 537.5,241.167 537.5,241.5C 536.883,241.611 536.383,241.944 536,242.5C 530.666,258.473 524.833,274.14 518.5,289.5C 513.5,281.5 508.5,273.5 503.5,265.5C 508.701,250.091 514.201,234.757 520,219.5C 521.042,216.196 519.875,214.029 516.5,213C 502.774,208.924 489.107,204.757 475.5,200.5C 502.06,168.431 529.226,136.764 557,105.5C 550.91,150.551 544.41,195.551 537.5,240.5 Z"/></g>
<g><path style="opacity:1" fill="#2d2d2d" d="M 247.5,129.5 C 249.833,130.167 252.167,130.833 254.5,131.5C 253.921,134.331 252.588,136.664 250.5,138.5C 247.654,138.448 245.32,137.448 243.5,135.5C 244.34,133.147 245.674,131.147 247.5,129.5 Z"/></g>
<g><path style="opacity:1" fill="#b8b8b8" d="M 407.5,131.5 C 408.167,131.5 408.5,131.833 408.5,132.5C 410.167,135.167 411.833,137.833 413.5,140.5C 391.465,146.672 369.465,153.172 347.5,160C 379.593,169.88 411.593,180.046 443.5,190.5C 444.107,190.376 444.44,190.043 444.5,189.5C 445.167,190.167 445.833,190.833 446.5,191.5C 448.5,194.833 450.5,198.167 452.5,201.5C 413.511,189.504 374.511,177.504 335.5,165.5C 335.5,164.833 335.5,164.167 335.5,163.5C 335.5,160.833 335.5,158.167 335.5,155.5C 335.5,155.167 335.5,154.833 335.5,154.5C 358.452,147.572 381.452,140.739 404.5,134C 406.119,133.764 407.119,132.931 407.5,131.5 Z"/></g>
<g><path style="opacity:1" fill="#414141" d="M 243.5,135.5 C 245.32,137.448 247.654,138.448 250.5,138.5C 250.5,138.833 250.5,139.167 250.5,139.5C 239.473,155.876 228.806,172.543 218.5,189.5C 217.833,189.5 217.5,189.833 217.5,190.5C 213.691,191.035 210.024,192.035 206.5,193.5C 217.916,174.333 229.582,155.333 241.5,136.5C 242.167,136.167 242.833,135.833 243.5,135.5 Z"/></g>
<g><path style="opacity:1" fill="#383838" d="M 416.5,130.5 C 418.5,133.167 420.5,135.833 422.5,138.5C 434.178,157.195 445.844,175.861 457.5,194.5C 453.905,193.303 450.239,192.303 446.5,191.5C 445.833,190.833 445.167,190.167 444.5,189.5C 434.562,172.9 424.228,156.566 413.5,140.5C 411.833,137.833 410.167,135.167 408.5,132.5C 411.167,131.833 413.833,131.167 416.5,130.5 Z"/></g>
<g><path style="opacity:1" fill="#919191" d="M 250.5,139.5 C 272.976,145.869 295.309,152.702 317.5,160C 284.538,169.99 251.538,179.823 218.5,189.5C 228.806,172.543 239.473,155.876 250.5,139.5 Z"/></g>
<g><path style="opacity:1" fill="#c4c4c4" d="M 413.5,140.5 C 424.228,156.566 434.562,172.9 444.5,189.5C 444.44,190.043 444.107,190.376 443.5,190.5C 411.593,180.046 379.593,169.88 347.5,160C 369.465,153.172 391.465,146.672 413.5,140.5 Z"/></g>
<g><path style="opacity:1" fill="#1f1f1f" d="M 327.5,154.5 C 330.127,155.092 332.794,155.425 335.5,155.5C 335.5,158.167 335.5,160.833 335.5,163.5C 332.933,164.475 330.267,165.142 327.5,165.5C 327.5,161.833 327.5,158.167 327.5,154.5 Z"/></g>
<g><path style="opacity:1" fill="#7c7c7c" d="M 254.5,131.5 C 254.833,131.5 255.167,131.5 255.5,131.5C 279.31,139.437 303.31,146.77 327.5,153.5C 327.5,153.833 327.5,154.167 327.5,154.5C 327.5,158.167 327.5,161.833 327.5,165.5C 327.5,165.833 327.5,166.167 327.5,166.5C 288.781,177.628 250.114,188.962 211.5,200.5C 213.5,197.167 215.5,193.833 217.5,190.5C 217.5,189.833 217.833,189.5 218.5,189.5C 251.538,179.823 284.538,169.99 317.5,160C 295.309,152.702 272.976,145.869 250.5,139.5C 250.5,139.167 250.5,138.833 250.5,138.5C 252.588,136.664 253.921,134.331 254.5,131.5 Z"/></g>
<g><path style="opacity:1" fill="#333333" d="M 335.5,163.5 C 335.5,164.167 335.5,164.833 335.5,165.5C 335.333,198.168 335.5,230.835 336,263.5C 336.671,264.252 337.504,264.586 338.5,264.5C 343.864,267.182 349.198,269.849 354.5,272.5C 347.104,270.817 339.771,268.817 332.5,266.5C 323.815,268.841 315.148,271.174 306.5,273.5C 312.5,270.5 318.5,267.5 324.5,264.5C 325.496,264.586 326.329,264.252 327,263.5C 327.5,231.168 327.667,198.835 327.5,166.5C 327.5,166.167 327.5,165.833 327.5,165.5C 330.267,165.142 332.933,164.475 335.5,163.5 Z"/></g>
<g><path style="opacity:1" fill="#868686" d="M 327.5,166.5 C 327.667,198.835 327.5,231.168 327,263.5C 326.329,264.252 325.496,264.586 324.5,264.5C 293.969,254.713 263.302,245.213 232.5,236C 224.301,226.307 215.968,216.807 207.5,207.5C 208.584,204.996 209.917,202.663 211.5,200.5C 250.114,188.962 288.781,177.628 327.5,166.5 Z"/></g>
<g><path style="opacity:1" fill="#c1c1c1" d="M 335.5,165.5 C 374.511,177.504 413.511,189.504 452.5,201.5C 454.086,203.67 455.42,206.004 456.5,208.5C 447.833,218.167 439.167,227.833 430.5,237.5C 399.94,246.807 369.274,255.807 338.5,264.5C 337.504,264.586 336.671,264.252 336,263.5C 335.5,230.835 335.333,198.168 335.5,165.5 Z"/></g>
<g><path style="opacity:1" fill="#595959" d="M 201.5,199.5 C 200.925,201.411 199.925,203.078 198.5,204.5C 196.801,204.66 195.134,204.494 193.5,204C 192.672,202.008 191.339,200.508 189.5,199.5C 191.633,197.839 194.133,196.839 197,196.5C 199.209,196.557 200.709,197.557 201.5,199.5 Z"/></g>
<g><path style="opacity:1" fill="#878787" d="M 458.5,195.5 C 461.067,195.721 463.401,196.388 465.5,197.5C 464.738,199.262 463.404,200.262 461.5,200.5C 460.752,198.668 459.752,197.001 458.5,195.5 Z"/></g>
<g><path style="opacity:1" fill="#5a5a5a" d="M 465.5,197.5 C 465.833,197.5 466.167,197.5 466.5,197.5C 469.397,198.129 472.064,199.129 474.5,200.5C 472.402,203.606 469.735,205.939 466.5,207.5C 465.091,205.028 463.424,202.695 461.5,200.5C 463.404,200.262 464.738,199.262 465.5,197.5 Z"/></g>
<g><path style="opacity:1" fill="#767676" d="M 187.5,199.5 C 188.167,199.5 188.833,199.5 189.5,199.5C 191.339,200.508 192.672,202.008 193.5,204C 195.134,204.494 196.801,204.66 198.5,204.5C 198.573,206.027 197.906,207.027 196.5,207.5C 196.189,206.522 195.522,205.855 194.5,205.5C 184.219,208.821 173.885,211.987 163.5,215C 171.031,217.965 178.698,220.465 186.5,222.5C 178.429,236.306 170.096,249.972 161.5,263.5C 161.167,263.5 160.833,263.5 160.5,263.5C 155.106,248.152 149.606,232.819 144,217.5C 143.519,212.966 145.686,210.466 150.5,210C 162.855,206.484 175.188,202.984 187.5,199.5 Z"/></g>
<g><path style="opacity:1" fill="#acacac" d="M 474.5,200.5 C 474.833,200.5 475.167,200.5 475.5,200.5C 489.107,204.757 502.774,208.924 516.5,213C 519.875,214.029 521.042,216.196 520,219.5C 514.201,234.757 508.701,250.091 503.5,265.5C 494.514,251.536 485.514,237.536 476.5,223.5C 484.893,221.648 493.226,219.482 501.5,217C 491.833,214 482.167,211 472.5,208C 470.735,207.36 469.068,207.527 467.5,208.5C 467.167,208.5 466.833,208.5 466.5,208.5C 466.5,208.167 466.5,207.833 466.5,207.5C 469.735,205.939 472.402,203.606 474.5,200.5 Z"/></g>
<g><path style="opacity:1" fill="#2a2a2a" d="M 446.5,191.5 C 450.239,192.303 453.905,193.303 457.5,194.5C 458.167,194.5 458.5,194.833 458.5,195.5C 459.752,197.001 460.752,198.668 461.5,200.5C 463.424,202.695 465.091,205.028 466.5,207.5C 466.5,207.833 466.5,208.167 466.5,208.5C 465.214,211.117 463.547,213.45 461.5,215.5C 460.066,212.953 458.4,210.619 456.5,208.5C 455.42,206.004 454.086,203.67 452.5,201.5C 450.5,198.167 448.5,194.833 446.5,191.5 Z"/></g>
<g><path style="opacity:1" fill="#a2a2a2" d="M 196.5,207.5 C 193.898,213.053 190.564,218.053 186.5,222.5C 178.698,220.465 171.031,217.965 163.5,215C 173.885,211.987 184.219,208.821 194.5,205.5C 195.522,205.855 196.189,206.522 196.5,207.5 Z"/></g>
<g><path style="opacity:1" fill="#d6d6d6" d="M 476.5,223.5 C 473.075,218.745 470.075,213.745 467.5,208.5C 469.068,207.527 470.735,207.36 472.5,208C 482.167,211 491.833,214 501.5,217C 493.226,219.482 484.893,221.648 476.5,223.5 Z"/></g>
<g><path style="opacity:1" fill="#282828" d="M 217.5,190.5 C 215.5,193.833 213.5,197.167 211.5,200.5C 209.917,202.663 208.584,204.996 207.5,207.5C 192.669,229.159 178.336,251.159 164.5,273.5C 162.723,270.495 161.723,267.162 161.5,263.5C 170.096,249.972 178.429,236.306 186.5,222.5C 190.564,218.053 193.898,213.053 196.5,207.5C 197.906,207.027 198.573,206.027 198.5,204.5C 199.925,203.078 200.925,201.411 201.5,199.5C 202.89,198.101 203.89,196.434 204.5,194.5C 205.167,194.167 205.833,193.833 206.5,193.5C 210.024,192.035 213.691,191.035 217.5,190.5 Z"/></g>
<g><path style="opacity:1" fill="#787878" d="M 207.5,207.5 C 215.968,216.807 224.301,226.307 232.5,236C 263.302,245.213 293.969,254.713 324.5,264.5C 318.5,267.5 312.5,270.5 306.5,273.5C 292.304,278.928 278.304,284.928 264.5,291.5C 237.679,303.741 210.679,315.741 183.5,327.5C 177.364,309.757 171.03,292.091 164.5,274.5C 164.5,274.167 164.5,273.833 164.5,273.5C 178.336,251.159 192.669,229.159 207.5,207.5 Z"/></g>
<g><path style="opacity:1" fill="#c0c0c0" d="M 461.5,216.5 C 474.663,236.154 487.33,256.154 499.5,276.5C 492.992,293.348 486.659,310.348 480.5,327.5C 452.928,316.047 425.594,304.047 398.5,291.5C 398.167,291.5 397.833,291.5 397.5,291.5C 418.09,265.906 439.424,240.906 461.5,216.5 Z"/></g>
<g><path style="opacity:1" fill="#383838" d="M 466.5,208.5 C 466.833,208.5 467.167,208.5 467.5,208.5C 470.075,213.745 473.075,218.745 476.5,223.5C 485.514,237.536 494.514,251.536 503.5,265.5C 508.5,273.5 513.5,281.5 518.5,289.5C 521.598,294.709 524.932,299.709 528.5,304.5C 528.833,305.167 529.167,305.833 529.5,306.5C 528.007,309.583 527.007,312.917 526.5,316.5C 523.078,311.322 519.411,306.322 515.5,301.5C 510.912,292.65 505.579,284.316 499.5,276.5C 487.33,256.154 474.663,236.154 461.5,216.5C 461.5,216.167 461.5,215.833 461.5,215.5C 463.547,213.45 465.214,211.117 466.5,208.5 Z"/></g>
<g><path style="opacity:1" fill="#afafaf" d="M 456.5,208.5 C 458.4,210.619 460.066,212.953 461.5,215.5C 461.5,215.833 461.5,216.167 461.5,216.5C 439.424,240.906 418.09,265.906 397.5,291.5C 388.98,287.739 380.647,283.739 372.5,279.5C 378.87,280.457 385.037,282.124 391,284.5C 404.658,269.142 417.825,253.475 430.5,237.5C 439.167,227.833 447.833,218.167 456.5,208.5 Z"/></g>
<g><path style="opacity:1" fill="#5b5b5b" d="M 126.5,239.5 C 127.505,249.536 128.838,259.536 130.5,269.5C 130.48,270.726 130.147,271.726 129.5,272.5C 129.357,269.903 128.523,267.569 127,265.5C 126.739,273.87 126.072,282.203 125,290.5C 123.644,278.947 121.811,267.614 119.5,256.5C 119.5,253.167 119.5,249.833 119.5,246.5C 119.055,240.941 121.388,238.607 126.5,239.5 Z"/></g>
<g><path style="opacity:1" fill="#b7b7b7" d="M 430.5,237.5 C 417.825,253.475 404.658,269.142 391,284.5C 385.037,282.124 378.87,280.457 372.5,279.5C 366.5,277.167 360.5,274.833 354.5,272.5C 349.198,269.849 343.864,267.182 338.5,264.5C 369.274,255.807 399.94,246.807 430.5,237.5 Z"/></g>
<g><path style="opacity:1" fill="#757575" d="M 126.5,239.5 C 127.117,239.611 127.617,239.944 128,240.5C 133.248,256.903 139.082,272.903 145.5,288.5C 143.154,291.871 140.821,295.204 138.5,298.5C 135.897,289.69 132.897,281.024 129.5,272.5C 130.147,271.726 130.48,270.726 130.5,269.5C 128.838,259.536 127.505,249.536 126.5,239.5 Z"/></g>
<g><path style="opacity:1" fill="#ababab" d="M 537.5,241.5 C 534.418,262.49 531.418,283.49 528.5,304.5C 524.932,299.709 521.598,294.709 518.5,289.5C 524.833,274.14 530.666,258.473 536,242.5C 536.383,241.944 536.883,241.611 537.5,241.5 Z"/></g>
<g><path style="opacity:1" fill="#969696" d="M 544.5,256.5 C 545.99,282.825 547.323,309.159 548.5,335.5C 543.682,329.211 539.349,322.544 535.5,315.5C 538.197,295.659 541.197,275.992 544.5,256.5 Z"/></g>
<g><path style="opacity:1" fill="#8f8f8f" d="M 119.5,256.5 C 121.811,267.614 123.644,278.947 125,290.5C 126.072,282.203 126.739,273.87 127,265.5C 128.523,267.569 129.357,269.903 129.5,272.5C 132.897,281.024 135.897,289.69 138.5,298.5C 135.069,304.373 131.402,310.04 127.5,315.5C 127.714,308.945 126.88,302.612 125,296.5C 124.389,304.831 123.889,313.164 123.5,321.5C 121.281,326.709 118.281,331.376 114.5,335.5C 115.74,309.138 117.407,282.805 119.5,256.5 Z"/></g>
<g><path style="opacity:1" fill="#616161" d="M 537.5,240.5 C 539.722,240.178 541.556,240.845 543,242.5C 543.191,244.708 543.691,246.708 544.5,248.5C 544.5,251.167 544.5,253.833 544.5,256.5C 541.197,275.992 538.197,295.659 535.5,315.5C 533.265,312.709 531.265,309.709 529.5,306.5C 529.167,305.833 528.833,305.167 528.5,304.5C 531.418,283.49 534.418,262.49 537.5,241.5C 537.5,241.167 537.5,240.833 537.5,240.5 Z"/></g>
<g><path style="opacity:1" fill="#282828" d="M 327.5,371.5 C 303.155,399.18 279.155,427.18 255.5,455.5C 244.904,448.747 233.904,442.747 222.5,437.5C 218.525,426.581 214.525,415.581 210.5,404.5C 210.5,403.833 210.5,403.167 210.5,402.5C 226.997,370.17 242.997,337.504 258.5,304.5C 234.586,314.1 210.586,324.434 186.5,335.5C 185.129,333.064 184.129,330.397 183.5,327.5C 210.679,315.741 237.679,303.741 264.5,291.5C 263.941,294.843 262.608,297.843 260.5,300.5C 261.723,301.614 263.056,301.781 264.5,301C 284.988,291.593 305.655,282.426 326.5,273.5C 327.5,306.16 327.833,338.827 327.5,371.5 Z"/></g>
<g><path style="opacity:1" fill="#212121" d="M 354.5,272.5 C 360.5,274.833 366.5,277.167 372.5,279.5C 380.647,283.739 388.98,287.739 397.5,291.5C 397.833,291.5 398.167,291.5 398.5,291.5C 400.167,295.5 401.833,299.5 403.5,303.5C 381.105,293.806 358.772,283.806 336.5,273.5C 335.5,345.83 335.167,418.164 335.5,490.5C 332.833,490.5 330.167,490.5 327.5,490.5C 327.5,450.833 327.5,411.167 327.5,371.5C 327.833,338.827 327.5,306.16 326.5,273.5C 305.655,282.426 284.988,291.593 264.5,301C 263.056,301.781 261.723,301.614 260.5,300.5C 262.608,297.843 263.941,294.843 264.5,291.5C 278.304,284.928 292.304,278.928 306.5,273.5C 315.148,271.174 323.815,268.841 332.5,266.5C 339.771,268.817 347.104,270.817 354.5,272.5 Z"/></g>
<g><path style="opacity:1" fill="#898989" d="M 164.5,274.5 C 171.03,292.091 177.364,309.757 183.5,327.5C 176.388,331.057 169.055,334.057 161.5,336.5C 156.599,324.468 152.265,312.134 148.5,299.5C 153.598,290.961 158.931,282.627 164.5,274.5 Z"/></g>
<g><path style="opacity:1" fill="#cccccc" d="M 499.5,276.5 C 505.579,284.316 510.912,292.65 515.5,301.5C 510.796,313.273 506.462,325.273 502.5,337.5C 494.86,334.677 487.527,331.344 480.5,327.5C 486.659,310.348 492.992,293.348 499.5,276.5 Z"/></g>
<g><path style="opacity:1" fill="#363636" d="M 398.5,291.5 C 425.594,304.047 452.928,316.047 480.5,327.5C 487.527,331.344 494.86,334.677 502.5,337.5C 509.5,340.833 516.5,344.167 523.5,347.5C 521.777,349.78 521.111,352.447 521.5,355.5C 514.167,352.5 506.833,349.5 499.5,346.5C 492.275,342.415 484.608,339.082 476.5,336.5C 453.016,325.594 429.349,314.928 405.5,304.5C 405.158,303.662 404.492,303.328 403.5,303.5C 401.833,299.5 400.167,295.5 398.5,291.5 Z"/></g>
<g><path style="opacity:1" fill="#303030" d="M 160.5,263.5 C 160.833,263.5 161.167,263.5 161.5,263.5C 161.723,267.162 162.723,270.495 164.5,273.5C 164.5,273.833 164.5,274.167 164.5,274.5C 158.931,282.627 153.598,290.961 148.5,299.5C 137.082,317.338 125.415,335.005 113.5,352.5C 113.5,347.833 113.5,343.167 113.5,338.5C 114.11,337.609 114.443,336.609 114.5,335.5C 118.281,331.376 121.281,326.709 123.5,321.5C 125.192,319.795 126.525,317.795 127.5,315.5C 131.402,310.04 135.069,304.373 138.5,298.5C 140.821,295.204 143.154,291.871 145.5,288.5C 150.752,280.332 155.752,271.999 160.5,263.5 Z"/></g>
<g><path style="opacity:1" fill="#444444" d="M 403.5,303.5 C 404.492,303.328 405.158,303.662 405.5,304.5C 419.931,337.393 435.098,370.393 451,403.5C 451.328,406.207 450.995,408.874 450,411.5C 446.336,419.662 443.169,427.995 440.5,436.5C 439.833,436.5 439.5,436.833 439.5,437.5C 407.729,455.557 375.729,473.39 343.5,491C 342.833,491.667 342.167,492.333 341.5,493C 345.145,493.995 348.812,494.828 352.5,495.5C 346.014,500.248 339.014,504.248 331.5,507.5C 323.659,503.747 315.992,499.747 308.5,495.5C 308.5,495.167 308.5,494.833 308.5,494.5C 317.656,493.28 326.656,491.947 335.5,490.5C 335.167,418.164 335.5,345.83 336.5,273.5C 358.772,283.806 381.105,293.806 403.5,303.5 Z"/></g>
<g><path style="opacity:1" fill="#bcbcbc" d="M 515.5,301.5 C 519.411,306.322 523.078,311.322 526.5,316.5C 533.671,328.847 541.337,340.847 549.5,352.5C 549.962,354.757 550.962,356.757 552.5,358.5C 551.575,359.562 550.575,359.562 549.5,358.5C 540.838,354.836 532.171,351.169 523.5,347.5C 516.5,344.167 509.5,340.833 502.5,337.5C 506.462,325.273 510.796,313.273 515.5,301.5 Z"/></g>
<g><path style="opacity:1" fill="#bfbfbf" d="M 127.5,315.5 C 126.525,317.795 125.192,319.795 123.5,321.5C 123.889,313.164 124.389,304.831 125,296.5C 126.88,302.612 127.714,308.945 127.5,315.5 Z"/></g>
<g><path style="opacity:1" fill="#2e2e2e" d="M 210.5,402.5 C 202.115,380.348 194.115,358.015 186.5,335.5C 210.586,324.434 234.586,314.1 258.5,304.5C 242.997,337.504 226.997,370.17 210.5,402.5 Z"/></g>
<g><path style="opacity:1" fill="#535353" d="M 405.5,304.5 C 429.349,314.928 453.016,325.594 476.5,336.5C 468.823,358.197 460.99,379.864 453,401.5C 452.333,403.5 452.333,405.5 453,407.5C 455.983,412.949 458.483,418.616 460.5,424.5C 453.878,428.482 447.212,432.482 440.5,436.5C 443.169,427.995 446.336,419.662 450,411.5C 450.995,408.874 451.328,406.207 451,403.5C 435.098,370.393 419.931,337.393 405.5,304.5 Z"/></g>
<g><path style="opacity:1" fill="#7f7f7f" d="M 148.5,299.5 C 152.265,312.134 156.599,324.468 161.5,336.5C 161.5,336.833 161.5,337.167 161.5,337.5C 152.167,341.5 142.833,345.5 133.5,349.5C 126.314,352.594 119.314,355.928 112.5,359.5C 111.624,359.631 110.957,359.298 110.5,358.5C 112.038,356.757 113.038,354.757 113.5,352.5C 125.415,335.005 137.082,317.338 148.5,299.5 Z"/></g>
<g><path style="opacity:1" fill="#2c2c2c" d="M 529.5,306.5 C 531.265,309.709 533.265,312.709 535.5,315.5C 539.349,322.544 543.682,329.211 548.5,335.5C 548.557,336.609 548.89,337.609 549.5,338.5C 549.5,343.167 549.5,347.833 549.5,352.5C 541.337,340.847 533.671,328.847 526.5,316.5C 527.007,312.917 528.007,309.583 529.5,306.5 Z"/></g>
<g><path style="opacity:1" fill="#404040" d="M 183.5,327.5 C 184.129,330.397 185.129,333.064 186.5,335.5C 194.115,358.015 202.115,380.348 210.5,402.5C 210.5,403.167 210.5,403.833 210.5,404.5C 206.864,411.003 203.364,417.67 200,424.5C 196.103,422.534 192.437,420.2 189,417.5C 179.53,390.922 170.363,364.255 161.5,337.5C 161.5,337.167 161.5,336.833 161.5,336.5C 169.055,334.057 176.388,331.057 183.5,327.5 Z"/></g>
<g><path style="opacity:1" fill="#5f5f5f" d="M 476.5,336.5 C 484.608,339.082 492.275,342.415 499.5,346.5C 490.792,369.618 482.459,392.951 474.5,416.5C 470.167,419.669 465.5,422.336 460.5,424.5C 458.483,418.616 455.983,412.949 453,407.5C 452.333,405.5 452.333,403.5 453,401.5C 460.99,379.864 468.823,358.197 476.5,336.5 Z"/></g>
<g><path style="opacity:1" fill="#474747" d="M 113.5,338.5 C 113.5,343.167 113.5,347.833 113.5,352.5C 113.038,354.757 112.038,356.757 110.5,358.5C 110.957,359.298 111.624,359.631 112.5,359.5C 111.687,367.138 111.354,374.804 111.5,382.5C 111.167,382.5 110.833,382.5 110.5,382.5C 105.527,379.679 100.527,376.845 95.5,374C 94.1955,373.196 93.5288,372.029 93.5,370.5C 99.6761,359.471 106.343,348.804 113.5,338.5 Z"/></g>
<g><path style="opacity:1" fill="#2e2e2e" d="M 161.5,337.5 C 170.363,364.255 179.53,390.922 189,417.5C 192.437,420.2 196.103,422.534 200,424.5C 203.364,417.67 206.864,411.003 210.5,404.5C 214.525,415.581 218.525,426.581 222.5,437.5C 223.901,440.704 224.901,444.037 225.5,447.5C 214.5,441.5 203.5,435.5 192.5,429.5C 189.534,427.012 186.201,425.012 182.5,423.5C 172.089,417.099 161.423,411.099 150.5,405.5C 147.001,403.25 143.335,401.25 139.5,399.5C 139.5,399.167 139.5,398.833 139.5,398.5C 138.491,395.473 138.491,392.473 139.5,389.5C 151.884,397.056 164.384,404.389 177,411.5C 170.831,390.326 163.831,369.326 156,348.5C 148.868,351.984 141.701,355.317 134.5,358.5C 133.516,355.572 133.183,352.572 133.5,349.5C 142.833,345.5 152.167,341.5 161.5,337.5 Z"/></g>
<g><path style="opacity:1" fill="#535353" d="M 499.5,346.5 C 506.833,349.5 514.167,352.5 521.5,355.5C 521.5,355.833 521.5,356.167 521.5,356.5C 519.267,368.661 517.267,380.995 515.5,393.5C 501.936,401.446 488.269,409.113 474.5,416.5C 482.459,392.951 490.792,369.618 499.5,346.5 Z"/></g>
<g><path style="opacity:1" fill="#373737" d="M 139.5,398.5 C 133.15,395.138 126.816,391.805 120.5,388.5C 117.672,386.252 114.672,384.252 111.5,382.5C 111.354,374.804 111.687,367.138 112.5,359.5C 119.314,355.928 126.314,352.594 133.5,349.5C 133.183,352.572 133.516,355.572 134.5,358.5C 141.701,355.317 148.868,351.984 156,348.5C 163.831,369.326 170.831,390.326 177,411.5C 164.384,404.389 151.884,397.056 139.5,389.5C 138.491,392.473 138.491,395.473 139.5,398.5 Z"/></g>
<g><path style="opacity:1" fill="#2c2c2c" d="M 523.5,347.5 C 532.171,351.169 540.838,354.836 549.5,358.5C 550.666,361.83 550.666,365.163 549.5,368.5C 542.554,365.189 535.554,362.189 528.5,359.5C 526.574,357.707 524.241,356.707 521.5,356.5C 521.5,356.167 521.5,355.833 521.5,355.5C 521.111,352.447 521.777,349.78 523.5,347.5 Z"/></g>
<g><path style="opacity:1" fill="#414141" d="M 521.5,356.5 C 524.241,356.707 526.574,357.707 528.5,359.5C 527.682,369.252 526.349,378.919 524.5,388.5C 521.339,389.913 518.339,391.58 515.5,393.5C 517.267,380.995 519.267,368.661 521.5,356.5 Z"/></g>
<g><path style="opacity:1" fill="#404040" d="M 130.5,359.5 C 133.645,360.077 135.145,362.077 135,365.5C 136.413,373.129 137.08,380.796 137,388.5C 131.31,385.157 125.644,381.824 120,378.5C 119.832,373.828 120.166,369.161 121,364.5C 124.537,363.346 127.703,361.679 130.5,359.5 Z"/></g>
<g><path style="opacity:1" fill="#4d4d4d" d="M 549.5,338.5 C 555.47,347.325 561.304,356.325 567,365.5C 568.664,368.289 568.83,371.123 567.5,374C 562.271,377.113 556.938,379.947 551.5,382.5C 551.817,379.428 551.484,376.428 550.5,373.5C 541.796,378.56 533.129,383.56 524.5,388.5C 526.349,378.919 527.682,369.252 528.5,359.5C 535.554,362.189 542.554,365.189 549.5,368.5C 550.666,365.163 550.666,361.83 549.5,358.5C 550.575,359.562 551.575,359.562 552.5,358.5C 550.962,356.757 549.962,354.757 549.5,352.5C 549.5,347.833 549.5,343.167 549.5,338.5 Z"/></g>
<g><path style="opacity:1" fill="#2c2c2c" d="M 327.5,371.5 C 327.5,411.167 327.5,450.833 327.5,490.5C 330.167,490.5 332.833,490.5 335.5,490.5C 326.656,491.947 317.656,493.28 308.5,494.5C 301.329,490.749 294.329,486.749 287.5,482.5C 294.827,484.003 302.16,485.169 309.5,486C 291.311,476.075 273.311,465.908 255.5,455.5C 279.155,427.18 303.155,399.18 327.5,371.5 Z"/></g>
<g><path style="opacity:1" fill="#969696" d="M 110.5,382.5 C 110.833,382.5 111.167,382.5 111.5,382.5C 114.672,384.252 117.672,386.252 120.5,388.5C 119.883,388.611 119.383,388.944 119,389.5C 118.433,397.5 117.933,405.5 117.5,413.5C 115.33,411.914 112.996,410.58 110.5,409.5C 110.5,408.833 110.167,408.5 109.5,408.5C 109.738,399.829 110.072,391.162 110.5,382.5 Z"/></g>
<g><path style="opacity:1" fill="#949494" d="M 551.5,383.5 C 551.913,392.002 552.58,400.335 553.5,408.5C 553.5,408.833 553.5,409.167 553.5,409.5C 550.352,410.576 547.352,411.909 544.5,413.5C 544.536,404.963 543.869,396.63 542.5,388.5C 545.008,386.076 548.008,384.41 551.5,383.5 Z"/></g>
<g><path style="opacity:1" fill="#c3c3c3" d="M 120.5,388.5 C 126.816,391.805 133.15,395.138 139.5,398.5C 139.5,398.833 139.5,399.167 139.5,399.5C 140.785,408.326 142.118,417.16 143.5,426C 143.43,426.765 143.097,427.265 142.5,427.5C 134.005,423.087 125.672,418.42 117.5,413.5C 117.933,405.5 118.433,397.5 119,389.5C 119.383,388.944 119.883,388.611 120.5,388.5 Z"/></g>
<g><path style="opacity:1" fill="#a6a6a6" d="M 542.5,388.5 C 543.869,396.63 544.536,404.963 544.5,413.5C 536.782,418.53 528.782,423.197 520.5,427.5C 519.842,426.207 519.508,424.707 519.5,423C 520.87,415.209 521.87,407.376 522.5,399.5C 529.184,395.805 535.85,392.138 542.5,388.5 Z"/></g>
<g><path style="opacity:1" fill="#333333" d="M 551.5,382.5 C 551.5,382.833 551.5,383.167 551.5,383.5C 548.008,384.41 545.008,386.076 542.5,388.5C 535.85,392.138 529.184,395.805 522.5,399.5C 518.882,401.137 515.549,403.137 512.5,405.5C 496.85,414.138 481.184,422.805 465.5,431.5C 455.998,437.419 446.331,443.086 436.5,448.5C 437.679,444.951 438.679,441.284 439.5,437.5C 439.5,436.833 439.833,436.5 440.5,436.5C 447.212,432.482 453.878,428.482 460.5,424.5C 465.5,422.336 470.167,419.669 474.5,416.5C 488.269,409.113 501.936,401.446 515.5,393.5C 518.339,391.58 521.339,389.913 524.5,388.5C 533.129,383.56 541.796,378.56 550.5,373.5C 551.484,376.428 551.817,379.428 551.5,382.5 Z"/></g>
<g><path style="opacity:1" fill="#898989" d="M 139.5,399.5 C 143.335,401.25 147.001,403.25 150.5,405.5C 149.842,406.793 149.508,408.293 149.5,410C 150.683,417.819 151.683,425.652 152.5,433.5C 150.062,431.733 147.395,430.399 144.5,429.5C 143.833,428.833 143.167,428.167 142.5,427.5C 143.097,427.265 143.43,426.765 143.5,426C 142.118,417.16 140.785,408.326 139.5,399.5 Z"/></g>
<g><path style="opacity:1" fill="#646464" d="M 522.5,399.5 C 521.87,407.376 520.87,415.209 519.5,423C 519.508,424.707 519.842,426.207 520.5,427.5C 517.001,429.75 513.335,431.75 509.5,433.5C 511.66,424.094 512.66,414.761 512.5,405.5C 515.549,403.137 518.882,401.137 522.5,399.5 Z"/></g>
<g><path style="opacity:1" fill="#494949" d="M 109.5,408.5 C 110.167,408.5 110.5,408.833 110.5,409.5C 109.883,409.611 109.383,409.944 109,410.5C 108.501,415.823 108.334,421.156 108.5,426.5C 108.167,426.5 107.833,426.5 107.5,426.5C 102.435,420.103 97.7681,413.437 93.5,406.5C 93.8333,404.167 95.1667,402.833 97.5,402.5C 101.739,404.085 105.739,406.085 109.5,408.5 Z"/></g>
<g><path style="opacity:1" fill="#484848" d="M 554.5,428.5 C 554.167,428.5 553.833,428.5 553.5,428.5C 553.5,422.167 553.5,415.833 553.5,409.5C 553.5,409.167 553.5,408.833 553.5,408.5C 557.261,406.085 561.261,404.085 565.5,402.5C 566.442,402.608 567.275,402.941 568,403.5C 568.667,405.5 568.667,407.5 568,409.5C 562.99,415.54 558.49,421.874 554.5,428.5 Z"/></g>
<g><path style="opacity:1" fill="#a2a2a2" d="M 150.5,405.5 C 161.423,411.099 172.089,417.099 182.5,423.5C 184.528,431.086 186.862,438.586 189.5,446C 189.266,448.992 187.932,451.159 185.5,452.5C 174.337,446.419 163.337,440.086 152.5,433.5C 151.683,425.652 150.683,417.819 149.5,410C 149.508,408.293 149.842,406.793 150.5,405.5 Z"/></g>
<g><path style="opacity:1" fill="#b2b2b2" d="M 512.5,405.5 C 512.66,414.761 511.66,424.094 509.5,433.5C 498.702,440.403 487.702,447.07 476.5,453.5C 475.504,453.586 474.671,453.252 474,452.5C 471.775,447.3 469.275,442.3 466.5,437.5C 465.85,435.565 465.517,433.565 465.5,431.5C 481.184,422.805 496.85,414.138 512.5,405.5 Z"/></g>
<g><path style="opacity:1" fill="#313131" d="M 553.5,409.5 C 553.5,415.833 553.5,422.167 553.5,428.5C 550.833,432.167 548.167,435.833 545.5,439.5C 533.802,454.857 522.136,470.191 510.5,485.5C 511.035,481.489 511.702,477.489 512.5,473.5C 512.48,472.274 512.147,471.274 511.5,470.5C 512.5,469.167 513.5,467.833 514.5,466.5C 525.284,451.877 536.284,437.377 547.5,423C 537.461,428.154 527.461,433.654 517.5,439.5C 514.339,440.913 511.339,442.58 508.5,444.5C 498.793,450.687 488.793,456.354 478.5,461.5C 477.227,459.287 476.227,456.954 475.5,454.5C 476.167,454.5 476.5,454.167 476.5,453.5C 487.702,447.07 498.702,440.403 509.5,433.5C 513.335,431.75 517.001,429.75 520.5,427.5C 528.782,423.197 536.782,418.53 544.5,413.5C 547.352,411.909 550.352,410.576 553.5,409.5 Z"/></g>
<g><path style="opacity:1" fill="#505050" d="M 514.5,466.5 C 513.903,466.265 513.57,465.765 513.5,465C 514.888,456.504 516.222,448.004 517.5,439.5C 527.461,433.654 537.461,428.154 547.5,423C 536.284,437.377 525.284,451.877 514.5,466.5 Z"/></g>
<g><path style="opacity:1" fill="#888888" d="M 144.5,438.5 C 145.915,447.487 147.248,456.487 148.5,465.5C 137.364,451.519 126.364,437.352 115.5,423C 125.332,427.587 134.999,432.753 144.5,438.5 Z"/></g>
<g><path style="opacity:1" fill="#767676" d="M 182.5,423.5 C 186.201,425.012 189.534,427.012 192.5,429.5C 193.695,431.751 194.695,434.085 195.5,436.5C 189.674,442.327 189.008,448.827 193.5,456C 193.272,456.399 192.938,456.565 192.5,456.5C 189.996,455.416 187.663,454.083 185.5,452.5C 187.932,451.159 189.266,448.992 189.5,446C 186.862,438.586 184.528,431.086 182.5,423.5 Z"/></g>
<g><path style="opacity:1" fill="#383838" d="M 110.5,409.5 C 112.996,410.58 115.33,411.914 117.5,413.5C 125.672,418.42 134.005,423.087 142.5,427.5C 143.167,428.167 143.833,428.833 144.5,429.5C 144.094,432.281 144.094,435.281 144.5,438.5C 134.999,432.753 125.332,427.587 115.5,423C 126.364,437.352 137.364,451.519 148.5,465.5C 148.5,466.167 148.5,466.833 148.5,467.5C 149.353,472.47 150.02,477.47 150.5,482.5C 139.167,467.833 127.833,453.167 116.5,438.5C 113.823,434.471 111.156,430.471 108.5,426.5C 108.334,421.156 108.501,415.823 109,410.5C 109.383,409.944 109.883,409.611 110.5,409.5 Z"/></g>
<g><path style="opacity:1" fill="#969696" d="M 107.5,426.5 C 107.833,426.5 108.167,426.5 108.5,426.5C 111.156,430.471 113.823,434.471 116.5,438.5C 111.471,497.287 107.638,556.287 105,615.5C 130.698,585.64 156.532,555.974 182.5,526.5C 186.899,530.568 190.565,535.235 193.5,540.5C 189.061,540.754 184.728,541.588 180.5,543C 179.62,544.356 179.286,545.856 179.5,547.5C 178.9,544.375 177.733,544.042 176,546.5C 154.382,571.574 132.882,596.74 111.5,622C 152.134,613.605 192.8,604.939 233.5,596C 234.056,595.617 234.389,595.117 234.5,594.5C 236.362,597.541 238.695,600.208 241.5,602.5C 241.5,602.833 241.5,603.167 241.5,603.5C 195.091,612.882 148.758,622.715 102.5,633C 99.6529,633.944 97.1529,633.444 95,631.5C 98.9989,563.175 103.166,494.841 107.5,426.5 Z"/></g>
<g><path style="opacity:1" fill="#969696" d="M 553.5,428.5 C 553.833,428.5 554.167,428.5 554.5,428.5C 557.533,495.201 561.2,561.868 565.5,628.5C 565.428,630.56 565.095,632.56 564.5,634.5C 561.554,635.655 558.554,635.821 555.5,635C 510.872,624.641 466.206,614.475 421.5,604.5C 423.122,601.545 425.122,598.878 427.5,596.5C 467.124,606.129 506.958,615.463 547,624.5C 547.5,624.167 548,623.833 548.5,623.5C 523.482,594.095 498.482,564.762 473.5,535.5C 475.122,532.545 477.122,529.878 479.5,527.5C 504.789,557.96 530.289,588.294 556,618.5C 552.964,558.911 549.464,499.244 545.5,439.5C 548.167,435.833 550.833,432.167 553.5,428.5 Z"/></g>
<g><path style="opacity:1" fill="#5b5b5b" d="M 195.5,436.5 C 198.698,445.426 201.698,454.426 204.5,463.5C 200.164,461.668 196.164,459.335 192.5,456.5C 192.938,456.565 193.272,456.399 193.5,456C 189.008,448.827 189.674,442.327 195.5,436.5 Z"/></g>
<g><path style="opacity:1" fill="#999999" d="M 192.5,429.5 C 203.5,435.5 214.5,441.5 225.5,447.5C 225.5,448.167 225.833,448.5 226.5,448.5C 229.02,456.567 232.02,464.4 235.5,472C 251.451,475.491 267.451,478.658 283.5,481.5C 284.833,481.833 286.167,482.167 287.5,482.5C 294.329,486.749 301.329,490.749 308.5,494.5C 308.5,494.833 308.5,495.167 308.5,495.5C 295.926,497.216 283.593,499.549 271.5,502.5C 248.967,489.737 226.634,476.737 204.5,463.5C 201.698,454.426 198.698,445.426 195.5,436.5C 194.695,434.085 193.695,431.751 192.5,429.5 Z"/></g>
<g><path style="opacity:1" fill="#252525" d="M 439.5,437.5 C 438.679,441.284 437.679,444.951 436.5,448.5C 435.833,448.5 435.5,448.833 435.5,449.5C 415.834,459.997 396.5,470.997 377.5,482.5C 373.527,484.487 369.527,486.487 365.5,488.5C 361.628,490.597 357.961,492.931 354.5,495.5C 353.833,495.5 353.167,495.5 352.5,495.5C 348.812,494.828 345.145,493.995 341.5,493C 342.167,492.333 342.833,491.667 343.5,491C 375.729,473.39 407.729,455.557 439.5,437.5 Z"/></g>
<g><path style="opacity:1" fill="#a5a5a5" d="M 465.5,431.5 C 465.517,433.565 465.85,435.565 466.5,437.5C 463.298,446.438 460.298,455.438 457.5,464.5C 456.833,464.5 456.5,464.833 456.5,465.5C 437.973,475.594 419.639,485.927 401.5,496.5C 389.342,494.125 377.342,491.458 365.5,488.5C 369.527,486.487 373.527,484.487 377.5,482.5C 393.825,479.168 410.159,475.835 426.5,472.5C 429.695,464.917 432.695,457.251 435.5,449.5C 435.5,448.833 435.833,448.5 436.5,448.5C 446.331,443.086 455.998,437.419 465.5,431.5 Z"/></g>
<g><path style="opacity:1" fill="#c4c4c4" d="M 116.5,438.5 C 127.833,453.167 139.167,467.833 150.5,482.5C 151.11,483.391 151.443,484.391 151.5,485.5C 152.579,497.64 154.412,509.64 157,521.5C 158.062,522.097 159.228,522.43 160.5,522.5C 166.16,521.39 171.827,520.39 177.5,519.5C 179.9,521.296 181.567,523.63 182.5,526.5C 156.532,555.974 130.698,585.64 105,615.5C 107.638,556.287 111.471,497.287 116.5,438.5 Z"/></g>
<g><path style="opacity:1" fill="#202020" d="M 222.5,437.5 C 233.904,442.747 244.904,448.747 255.5,455.5C 273.311,465.908 291.311,476.075 309.5,486C 302.16,485.169 294.827,484.003 287.5,482.5C 286.167,482.167 284.833,481.833 283.5,481.5C 264.781,470.136 245.781,459.136 226.5,448.5C 225.833,448.5 225.5,448.167 225.5,447.5C 224.901,444.037 223.901,440.704 222.5,437.5 Z"/></g>
<g><path style="opacity:1" fill="#5f5f5f" d="M 466.5,437.5 C 469.275,442.3 471.775,447.3 474,452.5C 474.671,453.252 475.504,453.586 476.5,453.5C 476.5,454.167 476.167,454.5 475.5,454.5C 469.527,457.821 463.527,461.155 457.5,464.5C 460.298,455.438 463.298,446.438 466.5,437.5 Z"/></g>
<g><path style="opacity:1" fill="#a7a7a7" d="M 545.5,439.5 C 549.464,499.244 552.964,558.911 556,618.5C 530.289,588.294 504.789,557.96 479.5,527.5C 480.441,525.228 481.774,523.228 483.5,521.5C 489.18,522.336 494.847,523.336 500.5,524.5C 501.772,524.43 502.938,524.097 504,523.5C 506.574,511.25 508.74,498.917 510.5,486.5C 510.5,486.167 510.5,485.833 510.5,485.5C 522.136,470.191 533.802,454.857 545.5,439.5 Z"/></g>
<g><path style="opacity:1" fill="#414141" d="M 517.5,439.5 C 516.222,448.004 514.888,456.504 513.5,465C 513.57,465.765 513.903,466.265 514.5,466.5C 513.5,467.833 512.5,469.167 511.5,470.5C 508.739,474.35 505.739,478.017 502.5,481.5C 504.5,469.167 506.5,456.833 508.5,444.5C 511.339,442.58 514.339,440.913 517.5,439.5 Z"/></g>
<g><path style="opacity:1" fill="#535353" d="M 508.5,444.5 C 506.5,456.833 504.5,469.167 502.5,481.5C 502.5,482.167 502.5,482.833 502.5,483.5C 499.209,486.303 496.376,489.636 494,493.5C 488.787,483.075 483.621,472.741 478.5,462.5C 478.5,462.167 478.5,461.833 478.5,461.5C 488.793,456.354 498.793,450.687 508.5,444.5 Z"/></g>
<g><path style="opacity:1" fill="#5d5d5d" d="M 226.5,448.5 C 245.781,459.136 264.781,470.136 283.5,481.5C 267.451,478.658 251.451,475.491 235.5,472C 232.02,464.4 229.02,456.567 226.5,448.5 Z"/></g>
<g><path style="opacity:1" fill="#6c6c6c" d="M 435.5,449.5 C 432.695,457.251 429.695,464.917 426.5,472.5C 410.159,475.835 393.825,479.168 377.5,482.5C 396.5,470.997 415.834,459.997 435.5,449.5 Z"/></g>
<g><path style="opacity:1" fill="#222222" d="M 475.5,454.5 C 476.227,456.954 477.227,459.287 478.5,461.5C 478.5,461.833 478.5,462.167 478.5,462.5C 470.5,466.833 462.5,471.167 454.5,475.5C 453.957,475.44 453.624,475.107 453.5,474.5C 454.801,471.573 455.801,468.573 456.5,465.5C 456.5,464.833 456.833,464.5 457.5,464.5C 463.527,461.155 469.527,457.821 475.5,454.5 Z"/></g>
<g><path style="opacity:1" fill="#7e7e7e" d="M 144.5,438.5 C 162.783,448.804 180.783,459.47 198.5,470.5C 201.493,479.156 204.493,487.822 207.5,496.5C 202.167,502.833 196.833,509.167 191.5,515.5C 193.765,516.647 196.098,516.814 198.5,516C 218.184,512.164 237.851,508.331 257.5,504.5C 268.533,510.344 279.199,516.678 289.5,523.5C 260.794,528.284 232.127,533.284 203.5,538.5C 185.409,514.653 167.075,490.986 148.5,467.5C 148.5,466.833 148.5,466.167 148.5,465.5C 147.248,456.487 145.915,447.487 144.5,438.5 Z"/></g>
<g><path style="opacity:1" fill="#2d2d2d" d="M 144.5,429.5 C 147.395,430.399 150.062,431.733 152.5,433.5C 163.337,440.086 174.337,446.419 185.5,452.5C 187.663,454.083 189.996,455.416 192.5,456.5C 196.164,459.335 200.164,461.668 204.5,463.5C 226.634,476.737 248.967,489.737 271.5,502.5C 273.635,504.071 275.968,505.404 278.5,506.5C 286.164,511.668 294.164,516.335 302.5,520.5C 302.5,520.833 302.5,521.167 302.5,521.5C 300.143,521.337 297.81,521.503 295.5,522C 293.881,522.236 292.881,523.069 292.5,524.5C 291.609,523.89 290.609,523.557 289.5,523.5C 279.199,516.678 268.533,510.344 257.5,504.5C 254.869,502.847 252.203,501.181 249.5,499.5C 236.635,491.901 223.635,484.568 210.5,477.5C 206.836,474.665 202.836,472.332 198.5,470.5C 180.783,459.47 162.783,448.804 144.5,438.5C 144.094,435.281 144.094,432.281 144.5,429.5 Z"/></g>
<g><path style="opacity:1" fill="#313131" d="M 456.5,465.5 C 455.801,468.573 454.801,471.573 453.5,474.5C 453.624,475.107 453.957,475.44 454.5,475.5C 453.5,476.167 452.5,476.833 451.5,477.5C 437.936,485.052 424.603,493.052 411.5,501.5C 404.249,505.132 397.249,509.132 390.5,513.5C 384.661,516.585 378.994,519.918 373.5,523.5C 372.391,523.557 371.391,523.89 370.5,524.5C 367.505,522.757 364.171,521.757 360.5,521.5C 368.337,516.749 376.004,511.749 383.5,506.5C 385.954,505.773 388.287,504.773 390.5,503.5C 394.034,500.903 397.7,498.57 401.5,496.5C 419.639,485.927 437.973,475.594 456.5,465.5 Z"/></g>
<g><path style="opacity:1" fill="#717171" d="M 198.5,470.5 C 202.836,472.332 206.836,474.665 210.5,477.5C 210.062,477.435 209.728,477.601 209.5,478C 211.497,483.322 213.497,488.656 215.5,494C 225.896,496.546 236.396,498.713 247,500.5C 248.07,500.472 248.903,500.139 249.5,499.5C 252.203,501.181 254.869,502.847 257.5,504.5C 237.851,508.331 218.184,512.164 198.5,516C 196.098,516.814 193.765,516.647 191.5,515.5C 196.833,509.167 202.167,502.833 207.5,496.5C 204.493,487.822 201.493,479.156 198.5,470.5 Z"/></g>
<g><path style="opacity:1" fill="#222222" d="M 511.5,470.5 C 512.147,471.274 512.48,472.274 512.5,473.5C 511.702,477.489 511.035,481.489 510.5,485.5C 510.5,485.833 510.5,486.167 510.5,486.5C 507.122,489.876 504.122,493.543 501.5,497.5C 500.876,497.083 500.543,496.416 500.5,495.5C 501.261,491.505 501.928,487.505 502.5,483.5C 502.5,482.833 502.5,482.167 502.5,481.5C 505.739,478.017 508.739,474.35 511.5,470.5 Z"/></g>
<g><path style="opacity:1" fill="#414141" d="M 478.5,462.5 C 483.621,472.741 488.787,483.075 494,493.5C 496.376,489.636 499.209,486.303 502.5,483.5C 501.928,487.505 501.261,491.505 500.5,495.5C 500.543,496.416 500.876,497.083 501.5,497.5C 500.136,499.191 498.803,500.858 497.5,502.5C 496.32,500.307 495.32,497.974 494.5,495.5C 493.726,494.289 492.893,494.289 492,495.5C 486.5,503.167 481,510.833 475.5,518.5C 477.851,520.229 480.518,520.896 483.5,520.5C 483.5,520.833 483.5,521.167 483.5,521.5C 481.774,523.228 480.441,525.228 479.5,527.5C 477.122,529.878 475.122,532.545 473.5,535.5C 471.453,537.55 469.786,539.883 468.5,542.5C 468.167,542.5 467.833,542.5 467.5,542.5C 464.829,540.882 461.829,540.215 458.5,540.5C 458.5,540.167 458.5,539.833 458.5,539.5C 463.469,533.688 468.303,527.688 473,521.5C 473.617,520.551 473.451,519.718 472.5,519C 457.514,516.003 442.514,513.003 427.5,510C 422.5,509.333 417.5,509.333 412.5,510C 405.172,511.277 397.838,512.444 390.5,513.5C 397.249,509.132 404.249,505.132 411.5,501.5C 422.709,499.771 433.875,497.771 445,495.5C 445.945,495.095 446.612,494.428 447,493.5C 448.538,488.385 450.372,483.385 452.5,478.5C 452.376,477.893 452.043,477.56 451.5,477.5C 452.5,476.833 453.5,476.167 454.5,475.5C 462.5,471.167 470.5,466.833 478.5,462.5 Z"/></g>
<g><path style="opacity:1" fill="#7f7f7f" d="M 210.5,477.5 C 223.635,484.568 236.635,491.901 249.5,499.5C 248.903,500.139 248.07,500.472 247,500.5C 236.396,498.713 225.896,496.546 215.5,494C 213.497,488.656 211.497,483.322 209.5,478C 209.728,477.601 210.062,477.435 210.5,477.5 Z"/></g>
<g><path style="opacity:1" fill="#505050" d="M 451.5,477.5 C 452.043,477.56 452.376,477.893 452.5,478.5C 450.372,483.385 448.538,488.385 447,493.5C 446.612,494.428 445.945,495.095 445,495.5C 433.875,497.771 422.709,499.771 411.5,501.5C 424.603,493.052 437.936,485.052 451.5,477.5 Z"/></g>
<g><path style="opacity:1" fill="#888888" d="M 151.5,485.5 C 160.64,496.435 169.307,507.768 177.5,519.5C 171.827,520.39 166.16,521.39 160.5,522.5C 159.228,522.43 158.062,522.097 157,521.5C 154.412,509.64 152.579,497.64 151.5,485.5 Z"/></g>
<g><path style="opacity:1" fill="#656565" d="M 510.5,486.5 C 508.74,498.917 506.574,511.25 504,523.5C 502.938,524.097 501.772,524.43 500.5,524.5C 494.847,523.336 489.18,522.336 483.5,521.5C 483.5,521.167 483.5,520.833 483.5,520.5C 488.518,514.81 493.185,508.81 497.5,502.5C 498.803,500.858 500.136,499.191 501.5,497.5C 504.122,493.543 507.122,489.876 510.5,486.5 Z"/></g>
<g><path style="opacity:1" fill="#959595" d="M 365.5,488.5 C 377.342,491.458 389.342,494.125 401.5,496.5C 397.7,498.57 394.034,500.903 390.5,503.5C 378.704,500.472 366.704,497.805 354.5,495.5C 357.961,492.931 361.628,490.597 365.5,488.5 Z"/></g>
<g><path style="opacity:1" fill="#2c2c2c" d="M 148.5,467.5 C 167.075,490.986 185.409,514.653 203.5,538.5C 208.016,545.533 213.016,552.2 218.5,558.5C 228.833,572.5 239.167,586.5 249.5,600.5C 247.162,602.04 244.495,602.706 241.5,602.5C 238.695,600.208 236.362,597.541 234.5,594.5C 224.731,581.281 214.731,568.281 204.5,555.5C 201.212,550.214 197.546,545.214 193.5,540.5C 190.565,535.235 186.899,530.568 182.5,526.5C 181.567,523.63 179.9,521.296 177.5,519.5C 169.307,507.768 160.64,496.435 151.5,485.5C 151.443,484.391 151.11,483.391 150.5,482.5C 150.02,477.47 149.353,472.47 148.5,467.5 Z"/></g>
<g><path style="opacity:1" fill="#222222" d="M 497.5,502.5 C 493.185,508.81 488.518,514.81 483.5,520.5C 480.518,520.896 477.851,520.229 475.5,518.5C 481,510.833 486.5,503.167 492,495.5C 492.893,494.289 493.726,494.289 494.5,495.5C 495.32,497.974 496.32,500.307 497.5,502.5 Z"/></g>
<g><path style="opacity:1" fill="#fbfbfb" d="M 308.5,495.5 C 315.992,499.747 323.659,503.747 331.5,507.5C 339.014,504.248 346.014,500.248 352.5,495.5C 353.167,495.5 353.833,495.5 354.5,495.5C 366.704,497.805 378.704,500.472 390.5,503.5C 388.287,504.773 385.954,505.773 383.5,506.5C 365.59,510.015 347.59,513.015 329.5,515.5C 312.447,512.778 295.447,509.778 278.5,506.5C 275.968,505.404 273.635,504.071 271.5,502.5C 283.593,499.549 295.926,497.216 308.5,495.5 Z"/></g>
<g><path style="opacity:1" fill="#959595" d="M 278.5,506.5 C 295.447,509.778 312.447,512.778 329.5,515.5C 347.59,513.015 365.59,510.015 383.5,506.5C 376.004,511.749 368.337,516.749 360.5,521.5C 359.833,521.5 359.167,521.5 358.5,521.5C 355.779,521.037 353.112,520.371 350.5,519.5C 343.72,518.178 336.887,517.178 330,516.5C 320.84,517.888 311.674,519.221 302.5,520.5C 294.164,516.335 286.164,511.668 278.5,506.5 Z"/></g>
<g><path style="opacity:1" fill="#575757" d="M 458.5,539.5 C 429.899,534.912 401.566,529.578 373.5,523.5C 378.994,519.918 384.661,516.585 390.5,513.5C 397.838,512.444 405.172,511.277 412.5,510C 417.5,509.333 422.5,509.333 427.5,510C 442.514,513.003 457.514,516.003 472.5,519C 473.451,519.718 473.617,520.551 473,521.5C 468.303,527.688 463.469,533.688 458.5,539.5 Z"/></g>
<g><path style="opacity:1" fill="#5e5e5e" d="M 350.5,519.5 C 350.03,520.693 349.03,521.36 347.5,521.5C 337.885,523.445 328.218,525.112 318.5,526.5C 316.97,526.64 315.97,527.307 315.5,528.5C 311.299,525.9 306.966,523.566 302.5,521.5C 302.5,521.167 302.5,520.833 302.5,520.5C 311.674,519.221 320.84,517.888 330,516.5C 336.887,517.178 343.72,518.178 350.5,519.5 Z"/></g>
<g><path style="opacity:1" fill="#808080" d="M 350.5,519.5 C 353.112,520.371 355.779,521.037 358.5,521.5C 349.728,527.059 340.728,532.392 331.5,537.5C 326.139,534.488 320.806,531.488 315.5,528.5C 315.97,527.307 316.97,526.64 318.5,526.5C 328.218,525.112 337.885,523.445 347.5,521.5C 349.03,521.36 350.03,520.693 350.5,519.5 Z"/></g>
<g><path style="opacity:1" fill="#474747" d="M 373.5,523.5 C 401.566,529.578 429.899,534.912 458.5,539.5C 458.5,539.833 458.5,540.167 458.5,540.5C 454.167,546.5 449.833,552.5 445.5,558.5C 444.833,559.167 444.167,559.833 443.5,560.5C 443.083,559.876 442.416,559.543 441.5,559.5C 411.317,565.901 381.317,572.734 351.5,580C 373.44,585.152 395.44,589.985 417.5,594.5C 416.088,596.98 414.422,599.313 412.5,601.5C 415.073,602.808 417.74,603.808 420.5,604.5C 391.833,642.833 363.167,681.167 334.5,719.5C 332.5,719.5 330.5,719.5 328.5,719.5C 299.5,680.833 270.5,642.167 241.5,603.5C 241.5,603.167 241.5,602.833 241.5,602.5C 244.495,602.706 247.162,602.04 249.5,600.5C 250.167,601.167 250.833,601.833 251.5,602.5C 276.835,636.007 302.001,669.674 327,703.5C 327.5,663.835 327.667,624.168 327.5,584.5C 330.167,584.5 332.833,584.5 335.5,584.5C 335.167,571.15 335.501,557.817 336.5,544.5C 347.929,537.793 359.262,531.127 370.5,524.5C 371.391,523.89 372.391,523.557 373.5,523.5 Z"/></g>
<g><path style="opacity:1" fill="#272727" d="M 302.5,521.5 C 306.966,523.566 311.299,525.9 315.5,528.5C 320.806,531.488 326.139,534.488 331.5,537.5C 340.728,532.392 349.728,527.059 358.5,521.5C 359.167,521.5 359.833,521.5 360.5,521.5C 364.171,521.757 367.505,522.757 370.5,524.5C 359.262,531.127 347.929,537.793 336.5,544.5C 335.501,557.817 335.167,571.15 335.5,584.5C 332.833,584.5 330.167,584.5 327.5,584.5C 327.5,583.833 327.5,583.167 327.5,582.5C 327.832,569.816 327.499,557.149 326.5,544.5C 315.104,537.807 303.77,531.14 292.5,524.5C 292.881,523.069 293.881,522.236 295.5,522C 297.81,521.503 300.143,521.337 302.5,521.5 Z"/></g>
<g><path style="opacity:1" fill="#797979" d="M 289.5,523.5 C 290.609,523.557 291.609,523.89 292.5,524.5C 303.77,531.14 315.104,537.807 326.5,544.5C 327.499,557.149 327.832,569.816 327.5,582.5C 291.123,574.758 254.789,566.758 218.5,558.5C 213.016,552.2 208.016,545.533 203.5,538.5C 232.127,533.284 260.794,528.284 289.5,523.5 Z"/></g>
<g><path style="opacity:1" fill="#6c6c6c" d="M 193.5,540.5 C 197.546,545.214 201.212,550.214 204.5,555.5C 196.867,553.606 189.2,551.773 181.5,550C 180.619,549.292 179.953,548.458 179.5,547.5C 179.286,545.856 179.62,544.356 180.5,543C 184.728,541.588 189.061,540.754 193.5,540.5 Z"/></g>
<g><path style="opacity:1" fill="#252525" d="M 458.5,540.5 C 461.829,540.215 464.829,540.882 467.5,542.5C 463.779,546.888 460.445,551.555 457.5,556.5C 457.167,556.5 456.833,556.5 456.5,556.5C 452.888,557.422 449.221,558.089 445.5,558.5C 449.833,552.5 454.167,546.5 458.5,540.5 Z"/></g>
<g><path style="opacity:1" fill="#757575" d="M 467.5,542.5 C 467.833,542.5 468.167,542.5 468.5,542.5C 473.033,542.304 477.199,543.304 481,545.5C 482.042,548.804 480.875,550.971 477.5,552C 470.741,553.185 464.074,554.685 457.5,556.5C 460.445,551.555 463.779,546.888 467.5,542.5 Z"/></g>
<g><path style="opacity:1" fill="#a7a7a7" d="M 179.5,547.5 C 179.953,548.458 180.619,549.292 181.5,550C 189.2,551.773 196.867,553.606 204.5,555.5C 214.731,568.281 224.731,581.281 234.5,594.5C 234.389,595.117 234.056,595.617 233.5,596C 192.8,604.939 152.134,613.605 111.5,622C 132.882,596.74 154.382,571.574 176,546.5C 177.733,544.042 178.9,544.375 179.5,547.5 Z"/></g>
<g><path style="opacity:1" fill="#c4c4c4" d="M 473.5,535.5 C 498.482,564.762 523.482,594.095 548.5,623.5C 548,623.833 547.5,624.167 547,624.5C 506.958,615.463 467.124,606.129 427.5,596.5C 437.167,583.167 446.833,569.833 456.5,556.5C 456.833,556.5 457.167,556.5 457.5,556.5C 464.074,554.685 470.741,553.185 477.5,552C 480.875,550.971 482.042,548.804 481,545.5C 477.199,543.304 473.033,542.304 468.5,542.5C 469.786,539.883 471.453,537.55 473.5,535.5 Z"/></g>
<g><path style="opacity:1" fill="#373737" d="M 456.5,556.5 C 446.833,569.833 437.167,583.167 427.5,596.5C 425.122,598.878 423.122,601.545 421.5,604.5C 421.167,604.5 420.833,604.5 420.5,604.5C 417.74,603.808 415.073,602.808 412.5,601.5C 414.422,599.313 416.088,596.98 417.5,594.5C 426.519,583.475 435.186,572.142 443.5,560.5C 444.167,559.833 444.833,559.167 445.5,558.5C 449.221,558.089 452.888,557.422 456.5,556.5 Z"/></g>
<g><path style="opacity:1" fill="#818181" d="M 218.5,558.5 C 254.789,566.758 291.123,574.758 327.5,582.5C 327.5,583.167 327.5,583.833 327.5,584.5C 303.15,589.561 278.816,594.727 254.5,600C 252.881,600.236 251.881,601.069 251.5,602.5C 250.833,601.833 250.167,601.167 249.5,600.5C 239.167,586.5 228.833,572.5 218.5,558.5 Z"/></g>
<g><path style="opacity:1" fill="#575757" d="M 443.5,560.5 C 435.186,572.142 426.519,583.475 417.5,594.5C 395.44,589.985 373.44,585.152 351.5,580C 381.317,572.734 411.317,565.901 441.5,559.5C 442.416,559.543 443.083,559.876 443.5,560.5 Z"/></g>
<g><path style="opacity:1" fill="#979797" d="M 327.5,584.5 C 327.667,624.168 327.5,663.835 327,703.5C 302.001,669.674 276.835,636.007 251.5,602.5C 251.881,601.069 252.881,600.236 254.5,600C 278.816,594.727 303.15,589.561 327.5,584.5 Z"/></g>
<g><path style="opacity:1" fill="#656565" d="M 335.5,585.5 C 361.083,590.515 386.416,596.348 411.5,603C 386.333,636.167 361.167,669.333 336,702.5C 335.5,663.501 335.333,624.501 335.5,585.5 Z"/></g>
</svg>
