<?xml version="1.0" encoding="UTF-8"?>
<!DOCTYPE svg PUBLIC "-//W3C//DTD SVG 1.1//EN" "http://www.w3.org/Graphics/SVG/1.1/DTD/svg11.dtd">
<svg xmlns="http://www.w3.org/2000/svg" version="1.1" width="682px" height="720px" style="shape-rendering:geometricPrecision; text-rendering:geometricPrecision; image-rendering:optimizeQuality; fill-rule:evenodd; clip-rule:evenodd" xmlns:xlink="http://www.w3.org/1999/xlink">
<g><path style="opacity:1" fill="#fefefe" d="M -0.5,-0.5 C 109.833,-0.5 220.167,-0.5 330.5,-0.5C 300.029,45.7541 270.029,92.4208 240.5,139.5C 188.077,128.478 135.744,116.978 83.5,105C 80.6529,104.056 78.1529,104.556 76,106.5C 89.7239,172.39 104.224,238.057 119.5,303.5C 119.5,305.167 119.5,306.833 119.5,308.5C 116.979,317.928 114.979,327.594 113.5,337.5C 107.595,347.639 101.428,357.639 95,367.5C 94.3333,369.5 94.3333,371.5 95,373.5C 98.6088,375.385 102.109,377.385 105.5,379.5C 103.782,387.426 102.448,395.426 101.5,403.5C 95.3885,401.11 93.2219,403.11 95,409.5C 96.6692,410.846 97.8358,412.513 98.5,414.5C 87.9214,476.305 76.5881,537.971 64.5,599.5C 64.6336,602.804 66.3003,604.47 69.5,604.5C 123.129,599.029 176.796,594.029 230.5,589.5C 263.52,632.526 296.186,675.859 328.5,719.5C 218.833,719.5 109.167,719.5 -0.5,719.5C -0.5,479.5 -0.5,239.5 -0.5,-0.5 Z"/></g>
<g><path style="opacity:1" fill="#fefefe" d="M 332.5,-0.5 C 448.833,-0.5 565.167,-0.5 681.5,-0.5C 681.5,239.5 681.5,479.5 681.5,719.5C 565.833,719.5 450.167,719.5 334.5,719.5C 365.833,677.833 397.167,636.167 428.5,594.5C 479.46,601.718 530.46,608.718 581.5,615.5C 583.693,615.674 585.527,615.007 587,613.5C 578.171,548.872 569.338,484.205 560.5,419.5C 564.017,415.658 566.684,411.325 568.5,406.5C 568.888,404.045 567.888,402.712 565.5,402.5C 563.03,403.237 560.696,404.237 558.5,405.5C 557.113,397.225 556.113,388.891 555.5,380.5C 559.357,378.161 563.357,375.994 567.5,374C 568.83,371.123 568.664,368.289 567,365.5C 560.561,355.611 554.394,345.611 548.5,335.5C 547.744,329.121 546.744,322.787 545.5,316.5C 545.5,315.5 545.5,314.5 545.5,313.5C 563.369,249.204 581.036,184.704 598.5,120C 597.872,117.04 596.039,115.54 593,115.5C 537.555,125.617 482.055,135.284 426.5,144.5C 395.525,97.2371 365.025,49.5704 335,1.5C 334.005,0.934056 333.172,0.267389 332.5,-0.5 Z"/></g>
<g><path style="opacity:1" fill="#3844c0" d="M 330.5,-0.5 C 331.167,-0.5 331.833,-0.5 332.5,-0.5C 333.172,0.267389 334.005,0.934056 335,1.5C 365.025,49.5704 395.525,97.2371 426.5,144.5C 427.669,147.511 429.336,150.178 431.5,152.5C 438.473,163.816 445.473,175.149 452.5,186.5C 454.866,189.857 457.199,193.19 459.5,196.5C 462.015,201.543 465.015,206.21 468.5,210.5C 470.833,214.5 473.167,218.5 475.5,222.5C 476.934,225.047 478.6,227.381 480.5,229.5C 484.806,237.124 489.473,244.457 494.5,251.5C 499.683,260.545 505.349,269.212 511.5,277.5C 512.759,281.025 514.759,284.025 517.5,286.5C 523.075,296.745 529.075,306.745 535.5,316.5C 537.839,319.915 540.173,323.248 542.5,326.5C 543.759,330.025 545.759,333.025 548.5,335.5C 554.394,345.611 560.561,355.611 567,365.5C 568.664,368.289 568.83,371.123 567.5,374C 563.357,375.994 559.357,378.161 555.5,380.5C 552.797,382.181 550.131,383.847 547.5,385.5C 539,389.915 530.667,394.582 522.5,399.5C 518.799,401.012 515.466,403.012 512.5,405.5C 502.033,410.9 491.7,416.567 481.5,422.5C 477.628,424.597 473.961,426.931 470.5,429.5C 464.17,432.33 458.17,435.663 452.5,439.5C 449.304,440.929 446.304,442.595 443.5,444.5C 442.833,444.833 442.167,445.167 441.5,445.5C 422.239,456.104 403.239,467.104 384.5,478.5C 375.194,483.487 365.86,488.487 356.5,493.5C 352.465,495.848 348.465,498.182 344.5,500.5C 340.316,503.092 335.983,505.426 331.5,507.5C 325.685,504.759 320.018,501.759 314.5,498.5C 310.535,496.182 306.535,493.848 302.5,491.5C 293.594,486.216 284.594,481.216 275.5,476.5C 264.869,470.181 254.202,463.848 243.5,457.5C 240.833,456.167 238.167,454.833 235.5,453.5C 230.273,449.719 224.607,446.719 218.5,444.5C 217.341,442.75 215.674,441.75 213.5,441.5C 211.206,439.347 208.54,437.68 205.5,436.5C 200.167,433.5 194.833,430.5 189.5,427.5C 186.442,425.304 183.109,423.638 179.5,422.5C 171.031,416.426 162.031,411.092 152.5,406.5C 148.535,404.182 144.535,401.848 140.5,399.5C 131.833,394.5 123.167,389.5 114.5,384.5C 111.728,382.61 108.728,380.943 105.5,379.5C 102.109,377.385 98.6088,375.385 95,373.5C 94.3333,371.5 94.3333,369.5 95,367.5C 101.428,357.639 107.595,347.639 113.5,337.5C 116.47,333.68 119.304,329.68 122,325.5C 122.291,319.665 121.457,313.998 119.5,308.5C 119.5,306.833 119.5,305.167 119.5,303.5C 120.493,298.284 121.493,292.951 122.5,287.5C 124.67,292.688 126.336,298.021 127.5,303.5C 126.663,308.5 126.163,313.5 126,318.5C 133.844,306.138 141.677,293.805 149.5,281.5C 151.735,278.709 153.735,275.709 155.5,272.5C 161.5,262.833 167.5,253.167 173.5,243.5C 175.821,240.204 178.154,236.871 180.5,233.5C 182.833,229.5 185.167,225.5 187.5,221.5C 189.735,218.709 191.735,215.709 193.5,212.5C 195.664,210.178 197.331,207.511 198.5,204.5C 201.154,200.537 203.82,196.537 206.5,192.5C 208.89,189.434 210.89,186.1 212.5,182.5C 220.153,170.536 227.82,158.536 235.5,146.5C 237.4,144.381 239.066,142.047 240.5,139.5C 270.029,92.4208 300.029,45.7541 330.5,-0.5 Z"/></g>
<g><path style="opacity:1" fill="#b7faf5" d="M 335.5,18.5 C 408.225,131.599 480.725,244.932 553,358.5C 553.688,359.332 553.521,359.998 552.5,360.5C 480.561,328.534 408.561,296.534 336.5,264.5C 335.5,182.503 335.167,100.503 335.5,18.5 Z"/></g>
<g><path style="opacity:1" fill="#edcac0" d="M 326.5,18.5 C 327.832,100.334 327.832,182.334 326.5,264.5C 254.53,296.483 182.53,328.483 110.5,360.5C 109.592,359.21 109.759,357.877 111,356.5C 183.104,243.946 254.938,131.28 326.5,18.5 Z"/></g>
<g><path style="opacity:1" fill="#6b75d1" d="M 240.5,139.5 C 239.066,142.047 237.4,144.381 235.5,146.5C 188.528,136.872 141.694,126.539 95,115.5C 94.5,115.833 94,116.167 93.5,116.5C 118.521,140.854 143.188,165.521 167.5,190.5C 163.686,190.651 162.019,192.651 162.5,196.5C 137.201,171.702 112.035,146.702 87,121.5C 98.7047,175.981 110.871,230.314 123.5,284.5C 123.443,285.609 123.11,286.609 122.5,287.5C 121.493,292.951 120.493,298.284 119.5,303.5C 104.224,238.057 89.7239,172.39 76,106.5C 78.1529,104.556 80.6529,104.056 83.5,105C 135.744,116.978 188.077,128.478 240.5,139.5 Z"/></g>
<g><path style="opacity:1" fill="#c9fbf7" d="M 235.5,146.5 C 227.82,158.536 220.153,170.536 212.5,182.5C 197.669,184.97 183.003,187.637 168.5,190.5C 168.167,190.5 167.833,190.5 167.5,190.5C 143.188,165.521 118.521,140.854 93.5,116.5C 94,116.167 94.5,115.833 95,115.5C 141.694,126.539 188.528,136.872 235.5,146.5 Z"/></g>
<g><path style="opacity:1" fill="#6c75d1" d="M 545.5,313.5 C 545.236,307.578 544.236,301.911 542.5,296.5C 542.557,295.391 542.89,294.391 543.5,293.5C 557.844,239.784 572.011,186.117 586,132.5C 560.296,156.373 534.463,180.04 508.5,203.5C 508.238,200.301 506.572,198.301 503.5,197.5C 528.671,173.497 554.338,149.997 580.5,127C 576.473,126.669 572.473,127.002 568.5,128C 522.691,136.189 477.024,144.355 431.5,152.5C 429.336,150.178 427.669,147.511 426.5,144.5C 482.055,135.284 537.555,125.617 593,115.5C 596.039,115.54 597.872,117.04 598.5,120C 581.036,184.704 563.369,249.204 545.5,313.5 Z"/></g>
<g><path style="opacity:1" fill="#f0d7cf" d="M 162.5,196.5 C 162.328,197.492 162.662,198.158 163.5,198.5C 166.077,213.794 169.41,228.794 173.5,243.5C 167.5,253.167 161.5,262.833 155.5,272.5C 151.367,253.956 147.201,235.29 143,216.5C 138.313,214.111 135.647,215.778 135,221.5C 130.95,242.47 127.116,263.47 123.5,284.5C 110.871,230.314 98.7047,175.981 87,121.5C 112.035,146.702 137.201,171.702 162.5,196.5 Z"/></g>
<g><path style="opacity:1" fill="#f0d7d0" d="M 503.5,197.5 C 503.167,197.5 502.833,197.5 502.5,197.5C 485.725,194.345 469.058,190.678 452.5,186.5C 445.473,175.149 438.473,163.816 431.5,152.5C 477.024,144.355 522.691,136.189 568.5,128C 572.473,127.002 576.473,126.669 580.5,127C 554.338,149.997 528.671,173.497 503.5,197.5 Z"/></g>
<g><path style="opacity:1" fill="#c9fbf7" d="M 543.5,293.5 C 539.768,271.341 536.268,249.008 533,226.5C 531.012,223.162 528.679,222.828 526,225.5C 521.425,243.037 516.592,260.37 511.5,277.5C 505.349,269.212 499.683,260.545 494.5,251.5C 498.987,235.885 503.321,220.218 507.5,204.5C 507.5,203.833 507.833,203.5 508.5,203.5C 534.463,180.04 560.296,156.373 586,132.5C 572.011,186.117 557.844,239.784 543.5,293.5 Z"/></g>
<g><path style="opacity:1" fill="#5d74ce" d="M 212.5,182.5 C 210.89,186.1 208.89,189.434 206.5,192.5C 206.44,191.957 206.107,191.624 205.5,191.5C 197.413,193.198 189.413,195.032 181.5,197C 187.193,199.515 192.859,202.015 198.5,204.5C 197.331,207.511 195.664,210.178 193.5,212.5C 189.868,209.679 185.868,207.346 181.5,205.5C 181.938,205.565 182.272,205.399 182.5,205C 177.63,200.298 172.963,195.465 168.5,190.5C 183.003,187.637 197.669,184.97 212.5,182.5 Z"/></g>
<g><path style="opacity:1" fill="#cbb4c4" d="M 452.5,186.5 C 469.058,190.678 485.725,194.345 502.5,197.5C 497.194,202.14 492.194,207.14 487.5,212.5C 483.227,215.434 479.227,218.767 475.5,222.5C 473.167,218.5 470.833,214.5 468.5,210.5C 475.822,208.893 482.822,206.393 489.5,203C 479.479,200.827 469.479,198.661 459.5,196.5C 457.199,193.19 454.866,189.857 452.5,186.5 Z"/></g>
<g><path style="opacity:1" fill="#4450c5" d="M 167.5,190.5 C 167.833,190.5 168.167,190.5 168.5,190.5C 172.963,195.465 177.63,200.298 182.5,205C 182.272,205.399 181.938,205.565 181.5,205.5C 178.854,204.513 176.188,203.513 173.5,202.5C 172.571,203.689 172.238,205.022 172.5,206.5C 169.5,203.833 166.5,201.167 163.5,198.5C 162.662,198.158 162.328,197.492 162.5,196.5C 162.019,192.651 163.686,190.651 167.5,190.5 Z"/></g>
<g><path style="opacity:1" fill="#ded2ce" d="M 206.5,192.5 C 203.82,196.537 201.154,200.537 198.5,204.5C 192.859,202.015 187.193,199.515 181.5,197C 189.413,195.032 197.413,193.198 205.5,191.5C 206.107,191.624 206.44,191.957 206.5,192.5 Z"/></g>
<g><path style="opacity:1" fill="#e1d3cd" d="M 459.5,196.5 C 469.479,198.661 479.479,200.827 489.5,203C 482.822,206.393 475.822,208.893 468.5,210.5C 465.015,206.21 462.015,201.543 459.5,196.5 Z"/></g>
<g><path style="opacity:1" fill="#686ac4" d="M 163.5,198.5 C 166.5,201.167 169.5,203.833 172.5,206.5C 173.338,206.842 173.672,207.508 173.5,208.5C 175.227,215.966 176.894,223.466 178.5,231C 178.684,232.376 179.351,233.209 180.5,233.5C 178.154,236.871 175.821,240.204 173.5,243.5C 169.41,228.794 166.077,213.794 163.5,198.5 Z"/></g>
<g><path style="opacity:1" fill="#4551c4" d="M 502.5,197.5 C 502.833,197.5 503.167,197.5 503.5,197.5C 506.572,198.301 508.238,200.301 508.5,203.5C 507.833,203.5 507.5,203.833 507.5,204.5C 504.5,207.167 501.5,209.833 498.5,212.5C 497.596,211.791 497.263,210.791 497.5,209.5C 494.177,210.492 490.844,211.492 487.5,212.5C 492.194,207.14 497.194,202.14 502.5,197.5 Z"/></g>
<g><path style="opacity:1" fill="#819de8" d="M 181.5,205.5 C 185.868,207.346 189.868,209.679 193.5,212.5C 191.735,215.709 189.735,218.709 187.5,221.5C 182.833,217.167 178.167,212.833 173.5,208.5C 173.672,207.508 173.338,206.842 172.5,206.5C 172.238,205.022 172.571,203.689 173.5,202.5C 176.188,203.513 178.854,204.513 181.5,205.5 Z"/></g>
<g><path style="opacity:1" fill="#a9dbee" d="M 507.5,204.5 C 503.321,220.218 498.987,235.885 494.5,251.5C 489.473,244.457 484.806,237.124 480.5,229.5C 486.5,223.833 492.5,218.167 498.5,212.5C 501.5,209.833 504.5,207.167 507.5,204.5 Z"/></g>
<g><path style="opacity:1" fill="#a1b2e7" d="M 173.5,208.5 C 178.167,212.833 182.833,217.167 187.5,221.5C 185.167,225.5 182.833,229.5 180.5,233.5C 179.351,233.209 178.684,232.376 178.5,231C 176.894,223.466 175.227,215.966 173.5,208.5 Z"/></g>
<g><path style="opacity:1" fill="#6065ce" d="M 498.5,212.5 C 492.5,218.167 486.5,223.833 480.5,229.5C 478.6,227.381 476.934,225.047 475.5,222.5C 479.227,218.767 483.227,215.434 487.5,212.5C 490.844,211.492 494.177,210.492 497.5,209.5C 497.263,210.791 497.596,211.791 498.5,212.5 Z"/></g>
<g><path style="opacity:1" fill="#686ac4" d="M 155.5,272.5 C 153.735,275.709 151.735,278.709 149.5,281.5C 146.15,267.588 142.983,253.588 140,239.5C 135.724,260.825 131.557,282.159 127.5,303.5C 126.336,298.021 124.67,292.688 122.5,287.5C 123.11,286.609 123.443,285.609 123.5,284.5C 127.116,263.47 130.95,242.47 135,221.5C 135.647,215.778 138.313,214.111 143,216.5C 147.201,235.29 151.367,253.956 155.5,272.5 Z"/></g>
<g><path style="opacity:1" fill="#a3d8ec" d="M 543.5,293.5 C 542.89,294.391 542.557,295.391 542.5,296.5C 541.127,302.01 539.461,307.344 537.5,312.5C 534.417,291.503 531.25,270.503 528,249.5C 524.436,261.825 520.936,274.158 517.5,286.5C 514.759,284.025 512.759,281.025 511.5,277.5C 516.592,260.37 521.425,243.037 526,225.5C 528.679,222.828 531.012,223.162 533,226.5C 536.268,249.008 539.768,271.341 543.5,293.5 Z"/></g>
<g><path style="opacity:1" fill="#e9c9c4" d="M 149.5,281.5 C 141.677,293.805 133.844,306.138 126,318.5C 126.163,313.5 126.663,308.5 127.5,303.5C 131.557,282.159 135.724,260.825 140,239.5C 142.983,253.588 146.15,267.588 149.5,281.5 Z"/></g>
<g><path style="opacity:1" fill="#beebf5" d="M 537.5,312.5 C 537.843,314.483 537.176,315.817 535.5,316.5C 529.075,306.745 523.075,296.745 517.5,286.5C 520.936,274.158 524.436,261.825 528,249.5C 531.25,270.503 534.417,291.503 537.5,312.5 Z"/></g>
<g><path style="opacity:1" fill="#86a8ef" d="M 326.5,272.5 C 327.666,346.999 327.832,421.666 327,496.5C 253.688,454.765 180.521,412.932 107.5,371C 180.712,338.225 253.712,305.392 326.5,272.5 Z"/></g>
<g><path style="opacity:1" fill="#c8b2f4" d="M 335.5,272.5 C 408.88,305.237 482.214,338.071 555.5,371C 482.415,412.96 409.248,454.793 336,496.5C 335.5,421.834 335.333,347.167 335.5,272.5 Z"/></g>
<g><path style="opacity:1" fill="#4652c5" d="M 542.5,296.5 C 544.236,301.911 545.236,307.578 545.5,313.5C 545.5,314.5 545.5,315.5 545.5,316.5C 544.21,319.642 543.21,322.975 542.5,326.5C 540.173,323.248 537.839,319.915 535.5,316.5C 537.176,315.817 537.843,314.483 537.5,312.5C 539.461,307.344 541.127,302.01 542.5,296.5 Z"/></g>
<g><path style="opacity:1" fill="#6d75d1" d="M 119.5,308.5 C 121.457,313.998 122.291,319.665 122,325.5C 119.304,329.68 116.47,333.68 113.5,337.5C 114.979,327.594 116.979,317.928 119.5,308.5 Z"/></g>
<g><path style="opacity:1" fill="#6a73d0" d="M 545.5,316.5 C 546.744,322.787 547.744,329.121 548.5,335.5C 545.759,333.025 543.759,330.025 542.5,326.5C 543.21,322.975 544.21,319.642 545.5,316.5 Z"/></g>
<g><path style="opacity:1" fill="#6b74d0" d="M 105.5,379.5 C 108.728,380.943 111.728,382.61 114.5,384.5C 113.351,384.791 112.684,385.624 112.5,387C 110.844,393.782 109.51,400.615 108.5,407.5C 105.669,406.921 103.336,405.588 101.5,403.5C 102.448,395.426 103.782,387.426 105.5,379.5 Z"/></g>
<g><path style="opacity:1" fill="#6b74d1" d="M 555.5,380.5 C 556.113,388.891 557.113,397.225 558.5,405.5C 555.869,407.153 553.203,408.819 550.5,410.5C 549.608,402.15 548.608,393.816 547.5,385.5C 550.131,383.847 552.797,382.181 555.5,380.5 Z"/></g>
<g><path style="opacity:1" fill="#efd5cf" d="M 114.5,384.5 C 123.167,389.5 131.833,394.5 140.5,399.5C 142.628,409.474 144.628,419.474 146.5,429.5C 133.498,422.668 120.832,415.335 108.5,407.5C 109.51,400.615 110.844,393.782 112.5,387C 112.684,385.624 113.351,384.791 114.5,384.5 Z"/></g>
<g><path style="opacity:1" fill="#d4c3f6" d="M 547.5,385.5 C 548.608,393.816 549.608,402.15 550.5,410.5C 538.996,417.42 527.329,424.086 515.5,430.5C 514.957,430.44 514.624,430.107 514.5,429.5C 517.483,419.569 520.149,409.569 522.5,399.5C 530.667,394.582 539,389.915 547.5,385.5 Z"/></g>
<g><path style="opacity:1" fill="#cab3c4" d="M 140.5,399.5 C 144.535,401.848 148.535,404.182 152.5,406.5C 151.414,406.62 150.747,407.287 150.5,408.5C 152.036,417.638 154.036,426.638 156.5,435.5C 152.827,434 149.494,432 146.5,429.5C 144.628,419.474 142.628,409.474 140.5,399.5 Z"/></g>
<g><path style="opacity:1" fill="#6065cf" d="M 522.5,399.5 C 520.149,409.569 517.483,419.569 514.5,429.5C 514.624,430.107 514.957,430.44 515.5,430.5C 512.322,433.258 508.655,435.258 504.5,436.5C 507.632,426.304 510.299,415.971 512.5,405.5C 515.466,403.012 518.799,401.012 522.5,399.5 Z"/></g>
<g><path style="opacity:1" fill="#3844c0" d="M 101.5,403.5 C 103.336,405.588 105.669,406.921 108.5,407.5C 120.832,415.335 133.498,422.668 146.5,429.5C 149.494,432 152.827,434 156.5,435.5C 165.967,441.404 175.633,447.071 185.5,452.5C 188.466,454.988 191.799,456.988 195.5,458.5C 196.167,458.833 196.833,459.167 197.5,459.5C 199.336,461.588 201.669,462.921 204.5,463.5C 226.166,476.669 248.166,489.335 270.5,501.5C 274.698,503.067 279.031,504.567 283.5,506C 282.328,506.419 281.328,507.085 280.5,508C 288.194,512.512 295.861,517.012 303.5,521.5C 309.527,524.845 315.527,528.179 321.5,531.5C 324.531,533.835 327.865,535.835 331.5,537.5C 334.688,536.075 337.688,534.408 340.5,532.5C 343.869,530.485 347.202,528.485 350.5,526.5C 354.674,523.912 359.007,521.579 363.5,519.5C 368.149,516.526 372.816,513.526 377.5,510.5C 375.726,509.813 374.059,508.98 372.5,508C 376.686,507.05 380.686,505.884 384.5,504.5C 386.199,504.66 387.866,504.494 389.5,504C 410.527,491.822 431.527,479.655 452.5,467.5C 455.203,465.819 457.869,464.153 460.5,462.5C 461.833,461.833 463.167,461.167 464.5,460.5C 468.372,458.403 472.039,456.069 475.5,453.5C 485.431,448.224 495.098,442.558 504.5,436.5C 508.655,435.258 512.322,433.258 515.5,430.5C 527.329,424.086 538.996,417.42 550.5,410.5C 553.203,408.819 555.869,407.153 558.5,405.5C 560.696,404.237 563.03,403.237 565.5,402.5C 567.888,402.712 568.888,404.045 568.5,406.5C 566.684,411.325 564.017,415.658 560.5,419.5C 557.677,422.475 555.344,425.808 553.5,429.5C 534.197,454.315 515.03,479.315 496,504.5C 493.95,507.148 492.784,510.148 492.5,513.5C 491.35,516.725 490.184,520.058 489,523.5C 487.667,522.167 486.333,520.833 485,519.5C 479.336,526.174 474.169,533.174 469.5,540.5C 464.482,546.19 459.815,552.19 455.5,558.5C 453.169,561.825 450.836,565.158 448.5,568.5C 443.482,574.19 438.815,580.19 434.5,586.5C 432.147,588.86 430.147,591.527 428.5,594.5C 397.167,636.167 365.833,677.833 334.5,719.5C 332.5,719.5 330.5,719.5 328.5,719.5C 296.186,675.859 263.52,632.526 230.5,589.5C 228.467,586.477 226.467,583.477 224.5,580.5C 219.814,575.142 215.481,569.475 211.5,563.5C 208.729,559.61 205.729,555.943 202.5,552.5C 198.066,545.951 193.399,539.617 188.5,533.5C 183.252,526.018 177.752,518.684 172,511.5C 170.074,513.539 167.907,515.206 165.5,516.5C 165.296,513.482 164.963,510.482 164.5,507.5C 165.141,506.518 165.807,505.518 166.5,504.5C 146.86,477.532 126.86,450.865 106.5,424.5C 104.183,420.854 101.516,417.52 98.5,414.5C 97.8358,412.513 96.6692,410.846 95,409.5C 93.2219,403.11 95.3885,401.11 101.5,403.5 Z"/></g>
<g><path style="opacity:1" fill="#beeaf5" d="M 512.5,405.5 C 510.299,415.971 507.632,426.304 504.5,436.5C 495.098,442.558 485.431,448.224 475.5,453.5C 474.861,452.903 474.528,452.07 474.5,451C 476.764,441.446 479.097,431.946 481.5,422.5C 491.7,416.567 502.033,410.9 512.5,405.5 Z"/></g>
<g><path style="opacity:1" fill="#ecccc4" d="M 152.5,406.5 C 162.031,411.092 171.031,416.426 179.5,422.5C 181.973,432.735 183.973,442.735 185.5,452.5C 175.633,447.071 165.967,441.404 156.5,435.5C 154.036,426.638 152.036,417.638 150.5,408.5C 150.747,407.287 151.414,406.62 152.5,406.5 Z"/></g>
<g><path style="opacity:1" fill="#6b74d1" d="M 98.5,414.5 C 101.516,417.52 104.183,420.854 106.5,424.5C 95.1212,477.568 84.7879,531.068 75.5,585C 75.8333,585.833 76.1667,586.667 76.5,587.5C 105.554,560.442 134.887,533.775 164.5,507.5C 164.963,510.482 165.296,513.482 165.5,516.5C 165.5,516.833 165.5,517.167 165.5,517.5C 137.67,543.163 109.67,568.663 81.5,594C 96.5175,593.592 111.517,592.592 126.5,591C 159.353,587.821 192.02,584.321 224.5,580.5C 226.467,583.477 228.467,586.477 230.5,589.5C 176.796,594.029 123.129,599.029 69.5,604.5C 66.3003,604.47 64.6336,602.804 64.5,599.5C 76.5881,537.971 87.9214,476.305 98.5,414.5 Z"/></g>
<g><path style="opacity:1" fill="#6b74d0" d="M 560.5,419.5 C 569.338,484.205 578.171,548.872 587,613.5C 585.527,615.007 583.693,615.674 581.5,615.5C 530.46,608.718 479.46,601.718 428.5,594.5C 430.147,591.527 432.147,588.86 434.5,586.5C 476.658,592.911 518.991,599.078 561.5,605C 564.5,605.667 567.5,605.667 570.5,605C 543.667,578.167 516.833,551.333 490,524.5C 488.132,530.603 485.965,536.603 483.5,542.5C 482.707,542.931 481.873,543.265 481,543.5C 477.176,542.391 473.343,541.391 469.5,540.5C 474.169,533.174 479.336,526.174 485,519.5C 486.333,520.833 487.667,522.167 489,523.5C 490.184,520.058 491.35,516.725 492.5,513.5C 520.081,542.583 548.248,571.249 577,599.5C 569.663,542.805 561.829,486.139 553.5,429.5C 555.344,425.808 557.677,422.475 560.5,419.5 Z"/></g>
<g><path style="opacity:1" fill="#696ac4" d="M 179.5,422.5 C 183.109,423.638 186.442,425.304 189.5,427.5C 191.499,437.827 193.499,448.16 195.5,458.5C 191.799,456.988 188.466,454.988 185.5,452.5C 183.973,442.735 181.973,432.735 179.5,422.5 Z"/></g>
<g><path style="opacity:1" fill="#edcac0" d="M 113.5,421.5 C 113.897,420.475 114.563,420.308 115.5,421C 185.918,462.293 256.418,503.459 327,544.5C 327.667,597.5 327.667,650.5 327,703.5C 256.056,609.252 184.889,515.252 113.5,421.5 Z"/></g>
<g><path style="opacity:1" fill="#c8b2f4" d="M 547.5,420.5 C 548.239,420.369 548.906,420.536 549.5,421C 478.212,515.077 407.045,609.244 336,703.5C 335.333,650.5 335.333,597.5 336,544.5C 406.81,503.519 477.31,462.185 547.5,420.5 Z"/></g>
<g><path style="opacity:1" fill="#f0d7d0" d="M 106.5,424.5 C 126.86,450.865 146.86,477.532 166.5,504.5C 165.807,505.518 165.141,506.518 164.5,507.5C 134.887,533.775 105.554,560.442 76.5,587.5C 76.1667,586.667 75.8333,585.833 75.5,585C 84.7879,531.068 95.1212,477.568 106.5,424.5 Z"/></g>
<g><path style="opacity:1" fill="#a2d6eb" d="M 481.5,422.5 C 479.097,431.946 476.764,441.446 474.5,451C 474.528,452.07 474.861,452.903 475.5,453.5C 472.039,456.069 468.372,458.403 464.5,460.5C 466.042,450.664 468.375,440.998 471.5,431.5C 471.457,430.584 471.124,429.917 470.5,429.5C 473.961,426.931 477.628,424.597 481.5,422.5 Z"/></g>
<g><path style="opacity:1" fill="#edd4cf" d="M 189.5,427.5 C 194.833,430.5 200.167,433.5 205.5,436.5C 202.837,444.155 200.17,451.822 197.5,459.5C 196.833,459.167 196.167,458.833 195.5,458.5C 193.499,448.16 191.499,437.827 189.5,427.5 Z"/></g>
<g><path style="opacity:1" fill="#c7f8f6" d="M 470.5,429.5 C 471.124,429.917 471.457,430.584 471.5,431.5C 468.375,440.998 466.042,450.664 464.5,460.5C 463.167,461.167 461.833,461.833 460.5,462.5C 457.081,455.192 454.415,447.525 452.5,439.5C 458.17,435.663 464.17,432.33 470.5,429.5 Z"/></g>
<g><path style="opacity:1" fill="#d6c5f6" d="M 553.5,429.5 C 561.829,486.139 569.663,542.805 577,599.5C 548.248,571.249 520.081,542.583 492.5,513.5C 492.784,510.148 493.95,507.148 496,504.5C 515.03,479.315 534.197,454.315 553.5,429.5 Z"/></g>
<g><path style="opacity:1" fill="#6a73d0" d="M 205.5,436.5 C 208.54,437.68 211.206,439.347 213.5,441.5C 210.128,448.601 207.128,455.935 204.5,463.5C 201.669,462.921 199.336,461.588 197.5,459.5C 200.17,451.822 202.837,444.155 205.5,436.5 Z"/></g>
<g><path style="opacity:1" fill="#6a74d1" d="M 452.5,439.5 C 454.415,447.525 457.081,455.192 460.5,462.5C 457.869,464.153 455.203,465.819 452.5,467.5C 450.437,460.145 448.271,452.811 446,445.5C 445.329,444.748 444.496,444.414 443.5,444.5C 446.304,442.595 449.304,440.929 452.5,439.5 Z"/></g>
<g><path style="opacity:1" fill="#a4bdf3" d="M 213.5,441.5 C 215.674,441.75 217.341,442.75 218.5,444.5C 219.793,449.858 221.46,455.024 223.5,460C 240.648,466.12 257.981,471.62 275.5,476.5C 284.594,481.216 293.594,486.216 302.5,491.5C 302.38,492.586 301.713,493.253 300.5,493.5C 290.517,496.296 280.517,498.962 270.5,501.5C 248.166,489.335 226.166,476.669 204.5,463.5C 207.128,455.935 210.128,448.601 213.5,441.5 Z"/></g>
<g><path style="opacity:1" fill="#d4c4f6" d="M 443.5,444.5 C 444.496,444.414 445.329,444.748 446,445.5C 448.271,452.811 450.437,460.145 452.5,467.5C 431.527,479.655 410.527,491.822 389.5,504C 387.866,504.494 386.199,504.66 384.5,504.5C 375.754,501.418 366.921,498.418 358,495.5C 356.97,495.164 356.47,494.497 356.5,493.5C 365.86,488.487 375.194,483.487 384.5,478.5C 401.169,474.065 417.835,469.565 434.5,465C 437.318,458.717 439.651,452.217 441.5,445.5C 442.167,445.167 442.833,444.833 443.5,444.5 Z"/></g>
<g><path style="opacity:1" fill="#5362cd" d="M 218.5,444.5 C 224.607,446.719 230.273,449.719 235.5,453.5C 234.711,453.783 234.044,454.283 233.5,455C 236.876,456.872 240.209,457.705 243.5,457.5C 254.202,463.848 264.869,470.181 275.5,476.5C 257.981,471.62 240.648,466.12 223.5,460C 221.46,455.024 219.793,449.858 218.5,444.5 Z"/></g>
<g><path style="opacity:1" fill="#afa1ea" d="M 441.5,445.5 C 439.651,452.217 437.318,458.717 434.5,465C 417.835,469.565 401.169,474.065 384.5,478.5C 403.239,467.104 422.239,456.104 441.5,445.5 Z"/></g>
<g><path style="opacity:1" fill="#a5a0ea" d="M 235.5,453.5 C 238.167,454.833 240.833,456.167 243.5,457.5C 240.209,457.705 236.876,456.872 233.5,455C 234.044,454.283 234.711,453.783 235.5,453.5 Z"/></g>
<g><path style="opacity:1" fill="#6a72cf" d="M 302.5,491.5 C 306.535,493.848 310.535,496.182 314.5,498.5C 304.73,500.526 295.063,503.026 285.5,506C 299.229,511.187 313.229,515.687 327.5,519.5C 342.015,516.122 356.349,512.289 370.5,508C 362.089,504.564 353.423,502.064 344.5,500.5C 348.465,498.182 352.465,495.848 356.5,493.5C 356.47,494.497 356.97,495.164 358,495.5C 366.921,498.418 375.754,501.418 384.5,504.5C 380.686,505.884 376.686,507.05 372.5,508C 374.059,508.98 375.726,509.813 377.5,510.5C 372.816,513.526 368.149,516.526 363.5,519.5C 363.44,518.957 363.107,518.624 362.5,518.5C 356.162,520.336 349.829,522.17 343.5,524C 345.441,525.903 347.774,526.736 350.5,526.5C 347.202,528.485 343.869,530.485 340.5,532.5C 336.097,530.592 331.43,529.259 326.5,528.5C 326.5,528.167 326.5,527.833 326.5,527.5C 345.141,525.179 345.141,522.846 326.5,520.5C 322.21,520.702 318.543,522.035 315.5,524.5C 311.487,522.496 307.487,521.496 303.5,521.5C 295.861,517.012 288.194,512.512 280.5,508C 281.328,507.085 282.328,506.419 283.5,506C 279.031,504.567 274.698,503.067 270.5,501.5C 280.517,498.962 290.517,496.296 300.5,493.5C 301.713,493.253 302.38,492.586 302.5,491.5 Z"/></g>
<g><path style="opacity:1" fill="#fafafd" d="M 314.5,498.5 C 320.018,501.759 325.685,504.759 331.5,507.5C 335.983,505.426 340.316,503.092 344.5,500.5C 353.423,502.064 362.089,504.564 370.5,508C 356.349,512.289 342.015,516.122 327.5,519.5C 313.229,515.687 299.229,511.187 285.5,506C 295.063,503.026 304.73,500.526 314.5,498.5 Z"/></g>
<g><path style="opacity:1" fill="#afa1ea" d="M 188.5,533.5 C 182.891,534.789 177.225,535.622 171.5,536C 169.263,529.877 167.263,523.71 165.5,517.5C 165.5,517.167 165.5,516.833 165.5,516.5C 167.907,515.206 170.074,513.539 172,511.5C 177.752,518.684 183.252,526.018 188.5,533.5 Z"/></g>
<g><path style="opacity:1" fill="#d6c5f6" d="M 165.5,517.5 C 167.263,523.71 169.263,529.877 171.5,536C 177.225,535.622 182.891,534.789 188.5,533.5C 193.399,539.617 198.066,545.951 202.5,552.5C 197.226,552.609 195.06,555.276 196,560.5C 200.927,562.468 206.094,563.468 211.5,563.5C 215.481,569.475 219.814,575.142 224.5,580.5C 192.02,584.321 159.353,587.821 126.5,591C 111.517,592.592 96.5175,593.592 81.5,594C 109.67,568.663 137.67,543.163 165.5,517.5 Z"/></g>
<g><path style="opacity:1" fill="#4350c4" d="M 326.5,527.5 C 322.777,526.703 319.11,525.703 315.5,524.5C 318.543,522.035 322.21,520.702 326.5,520.5C 345.141,522.846 345.141,525.179 326.5,527.5 Z"/></g>
<g><path style="opacity:1" fill="#dec9cf" d="M 363.5,519.5 C 359.007,521.579 354.674,523.912 350.5,526.5C 347.774,526.736 345.441,525.903 343.5,524C 349.829,522.17 356.162,520.336 362.5,518.5C 363.107,518.624 363.44,518.957 363.5,519.5 Z"/></g>
<g><path style="opacity:1" fill="#afa2e9" d="M 303.5,521.5 C 307.487,521.496 311.487,522.496 315.5,524.5C 319.11,525.703 322.777,526.703 326.5,527.5C 326.5,527.833 326.5,528.167 326.5,528.5C 323.966,528.259 322.3,529.259 321.5,531.5C 315.527,528.179 309.527,524.845 303.5,521.5 Z"/></g>
<g><path style="opacity:1" fill="#f0d7d0" d="M 434.5,586.5 C 438.815,580.19 443.482,574.19 448.5,568.5C 451.946,568.184 455.113,567.184 458,565.5C 458.667,564.167 458.667,562.833 458,561.5C 456.955,560.627 456.122,559.627 455.5,558.5C 459.815,552.19 464.482,546.19 469.5,540.5C 473.343,541.391 477.176,542.391 481,543.5C 481.873,543.265 482.707,542.931 483.5,542.5C 485.965,536.603 488.132,530.603 490,524.5C 516.833,551.333 543.667,578.167 570.5,605C 567.5,605.667 564.5,605.667 561.5,605C 518.991,599.078 476.658,592.911 434.5,586.5 Z"/></g>
<g><path style="opacity:1" fill="#ceb8e9" d="M 326.5,528.5 C 331.43,529.259 336.097,530.592 340.5,532.5C 337.688,534.408 334.688,536.075 331.5,537.5C 327.865,535.835 324.531,533.835 321.5,531.5C 322.3,529.259 323.966,528.259 326.5,528.5 Z"/></g>
<g><path style="opacity:1" fill="#afa1ea" d="M 202.5,552.5 C 205.729,555.943 208.729,559.61 211.5,563.5C 206.094,563.468 200.927,562.468 196,560.5C 195.06,555.276 197.226,552.609 202.5,552.5 Z"/></g>
<g><path style="opacity:1" fill="#686ac4" d="M 455.5,558.5 C 456.122,559.627 456.955,560.627 458,561.5C 458.667,562.833 458.667,564.167 458,565.5C 455.113,567.184 451.946,568.184 448.5,568.5C 450.836,565.158 453.169,561.825 455.5,558.5 Z"/></g>
</svg>
