<?xml version="1.0" encoding="UTF-8"?>
<!DOCTYPE svg PUBLIC "-//W3C//DTD SVG 1.1//EN" "http://www.w3.org/Graphics/SVG/1.1/DTD/svg11.dtd">
<svg xmlns="http://www.w3.org/2000/svg" version="1.1" width="682px" height="720px" style="shape-rendering:geometricPrecision; text-rendering:geometricPrecision; image-rendering:optimizeQuality; fill-rule:evenodd; clip-rule:evenodd" xmlns:xlink="http://www.w3.org/1999/xlink">
<g><path style="opacity:1" fill="#000000" d="M -0.5,-0.5 C 109.833,-0.5 220.167,-0.5 330.5,-0.5C 301.539,43.3925 273.039,87.7258 245,132.5C 243.328,135.337 241.161,137.67 238.5,139.5C 185.87,127.574 133.203,115.908 80.5,104.5C 78.626,104.39 77.126,105.056 76,106.5C 90.1643,172.813 104.331,239.147 118.5,305.5C 117.272,316.595 115.439,327.595 113,338.5C 106.234,349.038 99.7337,359.705 93.5,370.5C 93.5288,372.029 94.1955,373.196 95.5,374C 99.3821,375.434 102.715,377.6 105.5,380.5C 103.961,388.195 102.294,395.862 100.5,403.5C 94.9163,401.661 93.083,403.661 95,409.5C 98.1984,412.524 99.1984,416.191 98,420.5C 86.5645,480.279 75.3979,540.112 64.5,600C 64.7378,603.071 66.4044,604.571 69.5,604.5C 119.164,599.692 168.831,594.859 218.5,590C 222.833,589.333 227.167,589.333 231.5,590C 263.964,633.107 296.297,676.274 328.5,719.5C 218.833,719.5 109.167,719.5 -0.5,719.5C -0.5,479.5 -0.5,239.5 -0.5,-0.5 Z"/></g>
<g><path style="opacity:1" fill="#000000" d="M 332.5,-0.5 C 448.833,-0.5 565.167,-0.5 681.5,-0.5C 681.5,239.5 681.5,479.5 681.5,719.5C 565.833,719.5 450.167,719.5 334.5,719.5C 365.617,677.877 396.95,636.377 428.5,595C 477.796,601.436 527.129,608.103 576.5,615C 580.317,616.023 583.817,615.523 587,613.5C 578.754,549.299 569.921,485.132 560.5,421C 562.354,416.804 564.854,412.97 568,409.5C 568.448,401.75 565.448,400.417 559,405.5C 557.508,398.255 556.341,390.922 555.5,383.5C 555.57,382.228 555.903,381.062 556.5,380C 560.252,377.707 564.086,375.54 568,373.5C 568.667,371.167 568.667,368.833 568,366.5C 561.667,356.833 555.333,347.167 549,337.5C 545.868,325.806 545.868,314.14 549,302.5C 565.5,241.667 582,180.833 598.5,120C 598.212,116.896 596.545,115.396 593.5,115.5C 540.164,125.068 486.83,134.568 433.5,144C 430.773,144.818 428.106,144.652 425.5,143.5C 394.961,95.0584 363.961,47.0584 332.5,-0.5 Z"/></g>
<g><path style="opacity:1" fill="#3742bf" d="M 330.5,-0.5 C 331.167,-0.5 331.833,-0.5 332.5,-0.5C 363.961,47.0584 394.961,95.0584 425.5,143.5C 428.106,144.652 430.773,144.818 433.5,144C 486.83,134.568 540.164,125.068 593.5,115.5C 596.545,115.396 598.212,116.896 598.5,120C 582,180.833 565.5,241.667 549,302.5C 545.868,314.14 545.868,325.806 549,337.5C 555.333,347.167 561.667,356.833 568,366.5C 568.667,368.833 568.667,371.167 568,373.5C 564.086,375.54 560.252,377.707 556.5,380C 555.903,381.062 555.57,382.228 555.5,383.5C 556.341,390.922 557.508,398.255 559,405.5C 565.448,400.417 568.448,401.75 568,409.5C 564.854,412.97 562.354,416.804 560.5,421C 569.921,485.132 578.754,549.299 587,613.5C 583.817,615.523 580.317,616.023 576.5,615C 527.129,608.103 477.796,601.436 428.5,595C 396.95,636.377 365.617,677.877 334.5,719.5C 332.5,719.5 330.5,719.5 328.5,719.5C 296.297,676.274 263.964,633.107 231.5,590C 227.167,589.333 222.833,589.333 218.5,590C 168.831,594.859 119.164,599.692 69.5,604.5C 66.4044,604.571 64.7378,603.071 64.5,600C 75.3979,540.112 86.5645,480.279 98,420.5C 99.1984,416.191 98.1984,412.524 95,409.5C 93.083,403.661 94.9163,401.661 100.5,403.5C 102.294,395.862 103.961,388.195 105.5,380.5C 102.715,377.6 99.3821,375.434 95.5,374C 94.1955,373.196 93.5288,372.029 93.5,370.5C 99.7337,359.705 106.234,349.038 113,338.5C 115.439,327.595 117.272,316.595 118.5,305.5C 104.331,239.147 90.1643,172.813 76,106.5C 77.126,105.056 78.626,104.39 80.5,104.5C 133.203,115.908 185.87,127.574 238.5,139.5C 241.161,137.67 243.328,135.337 245,132.5C 273.039,87.7258 301.539,43.3925 330.5,-0.5 Z"/></g>
<g><path style="opacity:1" fill="#c3aef1" d="M 545.5,385.5 C 546.931,385.881 547.764,386.881 548,388.5C 549.113,395.827 549.779,403.161 550,410.5C 538.333,417.5 526.667,424.5 515,431.5C 517.021,420.75 519.687,410.083 523,399.5C 530.615,394.946 538.115,390.28 545.5,385.5 Z"/></g>
<g><path style="opacity:1" fill="#ebc9c0" d="M 112.5,384.5 C 114.308,384.491 115.975,384.991 117.5,386C 137.67,397.919 158.004,409.586 178.5,421C 181.701,431.727 184.201,442.56 186,453.5C 160.582,438.54 135.082,423.707 109.5,409C 108.919,408.107 108.585,407.107 108.5,406C 110.029,398.857 111.362,391.69 112.5,384.5 Z"/></g>
<g><path style="opacity:1" fill="#c8b2f4" d="M 335.5,272.5 C 408.88,305.237 482.214,338.071 555.5,371C 482.415,412.96 409.248,454.793 336,496.5C 335.5,421.834 335.333,347.167 335.5,272.5 Z"/></g>
<g><path style="opacity:1" fill="#86a8ef" d="M 326.5,272.5 C 327.666,346.999 327.832,421.666 327,496.5C 253.688,454.765 180.521,412.932 107.5,371C 180.712,338.225 253.712,305.392 326.5,272.5 Z"/></g>
<g><path style="opacity:1" fill="#e8c6c0" d="M 139.5,239.5 C 142.942,253.357 146.276,267.357 149.5,281.5C 141.667,293.833 133.833,306.167 126,318.5C 130.06,292.141 134.56,265.807 139.5,239.5 Z"/></g>
<g><path style="opacity:1" fill="#85a6ee" d="M 172.5,202.5 C 179.4,205.451 186.4,208.118 193.5,210.5C 193.509,212.308 193.009,213.975 192,215.5C 187.833,221.833 183.667,228.167 179.5,234.5C 176.748,223.914 174.415,213.248 172.5,202.5 Z"/></g>
<g><path style="opacity:1" fill="#e6c5c0" d="M 204.5,191.5 C 205.376,191.369 206.043,191.702 206.5,192.5C 203.833,196.5 201.167,200.5 198.5,204.5C 192.833,202 187.167,199.5 181.5,197C 189.179,194.947 196.846,193.114 204.5,191.5 Z"/></g>
<g><path style="opacity:1" fill="#b7f9f5" d="M 585.5,132.5 C 570.171,193.797 553.838,255.13 536.5,316.5C 517.598,287.706 498.931,258.706 480.5,229.5C 515.821,197.513 550.821,165.179 585.5,132.5 Z"/></g>
<g><path style="opacity:1" fill="#ecc9c0" d="M 574.5,126.5 C 576.527,126.338 578.527,126.505 580.5,127C 545.367,158.465 510.534,190.298 476,222.5C 460.127,199.406 445.294,175.739 431.5,151.5C 479.459,144.119 527.125,135.786 574.5,126.5 Z"/></g>
<g><path style="opacity:1" fill="#eac7be" d="M 86.5,121.5 C 111.799,146.298 136.965,171.298 162,196.5C 165.76,212.374 169.594,228.207 173.5,244C 167.663,253.325 161.663,262.491 155.5,271.5C 151.238,252.953 146.904,234.453 142.5,216C 137.993,214.456 135.493,216.289 135,221.5C 131.108,242.52 127.108,263.52 123,284.5C 110.987,230.116 98.8202,175.782 86.5,121.5 Z"/></g>
<g><path style="opacity:1" fill="#b5f7f3" d="M 93.5,115.5 C 140.752,126.185 188.086,136.685 235.5,147C 227.969,158.366 220.636,169.866 213.5,181.5C 198.394,184.878 183.228,187.878 168,190.5C 142.917,165.584 118.084,140.584 93.5,115.5 Z"/></g>
<g><path style="opacity:1" fill="#edcac0" d="M 326.5,18.5 C 327.832,100.334 327.832,182.334 326.5,264.5C 254.53,296.483 182.53,328.483 110.5,360.5C 109.592,359.21 109.759,357.877 111,356.5C 183.104,243.946 254.938,131.28 326.5,18.5 Z"/></g>
<g><path style="opacity:1" fill="#b7faf5" d="M 335.5,18.5 C 408.225,131.599 480.725,244.932 553,358.5C 553.688,359.332 553.521,359.998 552.5,360.5C 480.561,328.534 408.561,296.534 336.5,264.5C 335.5,182.503 335.167,100.503 335.5,18.5 Z"/></g>
<g><path style="opacity:1" fill="#b6f8f5" d="M 512.5,404.5 C 513.043,404.56 513.376,404.893 513.5,405.5C 510.332,416.172 507.166,426.839 504,437.5C 489.582,445.96 475.082,454.293 460.5,462.5C 456.577,454.78 454.243,446.78 453.5,438.5C 473.393,427.392 493.059,416.059 512.5,404.5 Z"/></g>
<g><path style="opacity:1" fill="#edcac0" d="M 113.5,421.5 C 113.897,420.475 114.563,420.308 115.5,421C 185.918,462.293 256.418,503.459 327,544.5C 327.667,597.5 327.667,650.5 327,703.5C 256.056,609.252 184.889,515.252 113.5,421.5 Z"/></g>
<g><path style="opacity:1" fill="#c8b2f4" d="M 547.5,420.5 C 548.239,420.369 548.906,420.536 549.5,421C 478.212,515.077 407.045,609.244 336,703.5C 335.333,650.5 335.333,597.5 336,544.5C 406.81,503.519 477.31,462.185 547.5,420.5 Z"/></g>
<g><path style="opacity:1" fill="#ecc9c0" d="M 105.5,424.5 C 126.545,450.555 146.878,477.222 166.5,504.5C 136.541,532.157 106.541,559.824 76.5,587.5C 75.359,585.579 75.1923,583.579 76,581.5C 85.5228,529.056 95.3561,476.723 105.5,424.5 Z"/></g>
<g><path style="opacity:1" fill="#e6c5be" d="M 189.5,427.5 C 194.275,429.77 198.942,432.27 203.5,435C 204.574,435.739 205.241,436.739 205.5,438C 202.667,445.167 199.833,452.333 197,459.5C 193.57,449.11 191.07,438.444 189.5,427.5 Z"/></g>
<g><path style="opacity:1" fill="#c6b0f2" d="M 552.5,429.5 C 554.519,436.581 556.019,443.915 557,451.5C 563.963,500.846 570.63,550.18 577,599.5C 549,571.5 521,543.5 493,515.5C 492.365,511.403 493.365,507.736 496,504.5C 515.05,479.623 533.883,454.623 552.5,429.5 Z"/></g>
<g><path style="opacity:1" fill="#85a5ed" d="M 212.5,441.5 C 214.582,441.472 216.416,442.139 218,443.5C 219.617,449.164 221.451,454.664 223.5,460C 240.715,465.972 258.048,471.638 275.5,477C 285.065,481.564 294.398,486.564 303.5,492C 293.729,495.589 283.729,498.589 273.5,501C 271.029,501.706 268.695,501.373 266.5,500C 245.669,488.085 225.002,475.919 204.5,463.5C 207.371,456.22 210.037,448.886 212.5,441.5 Z"/></g>
<g><path style="opacity:1" fill="#c6b1f4" d="M 443.5,443.5 C 444.75,443.577 445.583,444.244 446,445.5C 447.961,452.384 450.128,459.217 452.5,466C 450.132,469.021 447.132,471.355 443.5,473C 425.5,483.333 407.5,493.667 389.5,504C 387.5,504.667 385.5,504.667 383.5,504C 374.388,501.13 365.388,497.963 356.5,494.5C 385.396,477.223 414.396,460.223 443.5,443.5 Z"/></g>
<g><path style="opacity:1" fill="#b0a0ec" d="M 234.5,453.5 C 237.09,454.128 239.423,455.295 241.5,457C 238.756,456.981 236.089,456.314 233.5,455C 234.056,454.617 234.389,454.117 234.5,453.5 Z"/></g>
<g><path style="opacity:1" fill="#020205" d="M 310.5,498.5 C 312.199,498.34 313.866,498.506 315.5,499C 320.712,502.105 326.045,504.939 331.5,507.5C 336.349,504.91 341.349,502.576 346.5,500.5C 354.489,502.998 362.489,505.498 370.5,508C 356.205,511.99 341.872,515.824 327.5,519.5C 313.283,515.561 299.283,511.061 285.5,506C 294.036,503.762 302.369,501.262 310.5,498.5 Z"/></g>
<g><path style="opacity:1" fill="#c8b2f4" d="M 171.5,511.5 C 189.51,534.328 207.177,557.495 224.5,581C 176.898,586.327 129.231,590.66 81.5,594C 111.696,566.634 141.696,539.134 171.5,511.5 Z"/></g>
<g><path style="opacity:1" fill="#d5b7bf" d="M 361.5,518.5 C 362.552,518.351 363.552,518.517 364.5,519C 360.007,521.079 355.674,523.412 351.5,526C 348.536,526.569 345.87,525.902 343.5,524C 349.683,522.388 355.683,520.554 361.5,518.5 Z"/></g>
<g><path style="opacity:1" fill="#c2adf2" d="M 302.5,521.5 C 302.735,520.903 303.235,520.57 304,520.5C 316.033,524.733 328.2,528.567 340.5,532C 337.834,534.335 334.834,536.169 331.5,537.5C 321.94,531.888 312.273,526.555 302.5,521.5 Z"/></g>
<g><path style="opacity:1" fill="#eac8be" d="M 489.5,524.5 C 516.632,551.132 543.632,577.965 570.5,605C 567.5,605.667 564.5,605.667 561.5,605C 519.123,599.088 476.789,592.921 434.5,586.5C 438.711,580.577 443.045,574.744 447.5,569C 451.241,568.306 454.741,567.139 458,565.5C 458.854,562.593 458.021,560.26 455.5,558.5C 459.711,552.577 464.045,546.744 468.5,541C 472.73,541.179 476.897,542.013 481,543.5C 482.395,543.22 483.562,542.553 484.5,541.5C 486.328,535.85 487.995,530.183 489.5,524.5 Z"/></g>
</svg>
