<?xml version="1.0" encoding="UTF-8"?>
<!DOCTYPE svg PUBLIC "-//W3C//DTD SVG 1.1//EN" "http://www.w3.org/Graphics/SVG/1.1/DTD/svg11.dtd">
<svg xmlns="http://www.w3.org/2000/svg" version="1.1" width="682px" height="720px" style="shape-rendering:geometricPrecision; text-rendering:geometricPrecision; image-rendering:optimizeQuality; fill-rule:evenodd; clip-rule:evenodd" xmlns:xlink="http://www.w3.org/1999/xlink">
<g><path style="opacity:1" fill="#000000" d="M -0.5,-0.5 C 109.833,-0.5 220.167,-0.5 330.5,-0.5C 300.018,45.7824 270.018,92.449 240.5,139.5C 187.113,128.089 133.78,116.423 80.5,104.5C 78.626,104.39 77.126,105.056 76,106.5C 89.3706,170.951 103.371,235.285 118,299.5C 118.667,303.5 118.667,307.5 118,311.5C 116.562,320.19 115.062,328.857 113.5,337.5C 106.578,348.344 99.9113,359.344 93.5,370.5C 93.5288,372.029 94.1955,373.196 95.5,374C 99.0211,375.592 102.354,377.425 105.5,379.5C 103.782,387.426 102.448,395.426 101.5,403.5C 95.3885,401.11 93.2219,403.11 95,409.5C 96.1764,411.196 97.343,412.862 98.5,414.5C 86.7874,477.112 75.6207,539.779 65,602.5C 66.126,603.944 67.626,604.61 69.5,604.5C 123.145,599.199 176.812,594.199 230.5,589.5C 263.52,632.526 296.186,675.859 328.5,719.5C 218.833,719.5 109.167,719.5 -0.5,719.5C -0.5,479.5 -0.5,239.5 -0.5,-0.5 Z"/></g>
<g><path style="opacity:1" fill="#000000" d="M 332.5,-0.5 C 448.833,-0.5 565.167,-0.5 681.5,-0.5C 681.5,239.5 681.5,479.5 681.5,719.5C 565.833,719.5 450.167,719.5 334.5,719.5C 365.833,677.833 397.167,636.167 428.5,594.5C 477.805,601.439 527.139,608.273 576.5,615C 580.317,616.023 583.817,615.523 587,613.5C 578.644,548.806 569.811,484.139 560.5,419.5C 564.017,415.658 566.684,411.325 568.5,406.5C 568.91,403.745 567.744,402.412 565,402.5C 562.735,403.259 560.568,404.259 558.5,405.5C 557.254,397.202 556.254,388.869 555.5,380.5C 559.559,378.052 563.725,375.719 568,373.5C 568.667,371.167 568.667,368.833 568,366.5C 560.978,356.448 554.478,346.114 548.5,335.5C 546.309,325.856 546.142,316.189 548,306.5C 564.622,244.296 581.456,182.13 598.5,120C 598.212,116.896 596.545,115.396 593.5,115.5C 537.877,125.577 482.21,135.243 426.5,144.5C 397.775,100.067 369.275,55.4006 341,10.5C 338.135,6.72582 335.302,3.05915 332.5,-0.5 Z"/></g>
<g><path style="opacity:1" fill="#3743bf" d="M 330.5,-0.5 C 331.167,-0.5 331.833,-0.5 332.5,-0.5C 335.302,3.05915 338.135,6.72582 341,10.5C 369.275,55.4006 397.775,100.067 426.5,144.5C 427.669,147.511 429.336,150.178 431.5,152.5C 438.473,163.816 445.473,175.149 452.5,186.5C 454.866,189.857 457.199,193.19 459.5,196.5C 462.015,201.543 465.015,206.21 468.5,210.5C 470.833,214.5 473.167,218.5 475.5,222.5C 476.934,225.047 478.6,227.381 480.5,229.5C 482.916,234.001 485.583,238.334 488.5,242.5C 490.265,245.709 492.265,248.709 494.5,251.5C 499.683,260.545 505.349,269.212 511.5,277.5C 513,281.173 515,284.506 517.5,287.5C 523.448,297.442 529.781,307.109 536.5,316.5C 537.429,315.311 537.762,313.978 537.5,312.5C 539.461,307.344 541.127,302.01 542.5,296.5C 546.369,306.24 546.369,316.073 542.5,326C 543.644,329.807 545.644,332.973 548.5,335.5C 554.478,346.114 560.978,356.448 568,366.5C 568.667,368.833 568.667,371.167 568,373.5C 563.725,375.719 559.559,378.052 555.5,380.5C 552.797,382.181 550.131,383.847 547.5,385.5C 539,389.915 530.667,394.582 522.5,399.5C 519.339,400.913 516.339,402.58 513.5,404.5C 502.833,410.5 492.167,416.5 481.5,422.5C 477.628,424.597 473.961,426.931 470.5,429.5C 464.17,432.33 458.17,435.663 452.5,439.5C 449.968,440.596 447.635,441.929 445.5,443.5C 443.938,443.733 442.605,444.4 441.5,445.5C 422.239,456.104 403.239,467.104 384.5,478.5C 375.194,483.487 365.86,488.487 356.5,493.5C 352.628,495.597 348.961,497.931 345.5,500.5C 340.824,502.838 336.157,505.172 331.5,507.5C 325.685,504.759 320.018,501.759 314.5,498.5C 311.001,496.25 307.335,494.25 303.5,492.5C 294.76,487.107 285.76,482.107 276.5,477.5C 265.993,470.099 254.993,463.433 243.5,457.5C 240.833,456.167 238.167,454.833 235.5,453.5C 230.498,449.997 225.165,446.997 219.5,444.5C 217.784,442.975 215.784,441.975 213.5,441.5C 211.103,439.47 208.437,437.803 205.5,436.5C 200.167,433.5 194.833,430.5 189.5,427.5C 186.636,424.986 183.302,423.32 179.5,422.5C 171.031,416.426 162.031,411.092 152.5,406.5C 148.535,404.182 144.535,401.848 140.5,399.5C 131.833,394.5 123.167,389.5 114.5,384.5C 111.406,383.117 108.406,381.45 105.5,379.5C 102.354,377.425 99.0211,375.592 95.5,374C 94.1955,373.196 93.5288,372.029 93.5,370.5C 99.9113,359.344 106.578,348.344 113.5,337.5C 116.807,333.574 119.64,329.24 122,324.5C 121.956,318.269 121.123,312.102 119.5,306C 120.379,299.467 121.379,292.967 122.5,286.5C 124.545,292.063 126.212,297.73 127.5,303.5C 126.663,308.5 126.163,313.5 126,318.5C 133.844,306.138 141.677,293.805 149.5,281.5C 151.735,278.709 153.735,275.709 155.5,272.5C 161.5,262.833 167.5,253.167 173.5,243.5C 175.821,240.204 178.154,236.871 180.5,233.5C 182.833,229.5 185.167,225.5 187.5,221.5C 189.735,218.709 191.735,215.709 193.5,212.5C 195.664,210.178 197.331,207.511 198.5,204.5C 201.154,200.537 203.82,196.537 206.5,192.5C 208.863,189.451 210.863,186.118 212.5,182.5C 220.153,170.536 227.82,158.536 235.5,146.5C 237.412,144.343 239.079,142.009 240.5,139.5C 270.018,92.449 300.018,45.7824 330.5,-0.5 Z"/></g>
<g><path style="opacity:1" fill="#b7faf5" d="M 335.5,18.5 C 408.225,131.599 480.725,244.932 553,358.5C 553.688,359.332 553.521,359.998 552.5,360.5C 480.561,328.534 408.561,296.534 336.5,264.5C 335.5,182.503 335.167,100.503 335.5,18.5 Z"/></g>
<g><path style="opacity:1" fill="#edcac0" d="M 326.5,18.5 C 327.832,100.334 327.832,182.334 326.5,264.5C 254.53,296.483 182.53,328.483 110.5,360.5C 109.592,359.21 109.759,357.877 111,356.5C 183.104,243.946 254.938,131.28 326.5,18.5 Z"/></g>
<g><path style="opacity:1" fill="#29328d" d="M 240.5,139.5 C 239.079,142.009 237.412,144.343 235.5,146.5C 188.528,136.872 141.694,126.539 95,115.5C 94.5,115.833 94,116.167 93.5,116.5C 118.521,140.854 143.188,165.521 167.5,190.5C 163.686,190.651 162.019,192.651 162.5,196.5C 137.201,171.702 112.035,146.702 87,121.5C 98.9701,175.724 110.803,230.057 122.5,284.5C 122.5,285.167 122.5,285.833 122.5,286.5C 121.379,292.967 120.379,299.467 119.5,306C 121.123,312.102 121.956,318.269 122,324.5C 119.64,329.24 116.807,333.574 113.5,337.5C 115.062,328.857 116.562,320.19 118,311.5C 118.667,307.5 118.667,303.5 118,299.5C 103.371,235.285 89.3706,170.951 76,106.5C 77.126,105.056 78.626,104.39 80.5,104.5C 133.78,116.423 187.113,128.089 240.5,139.5 Z"/></g>
<g><path style="opacity:1" fill="#87b9b5" d="M 235.5,146.5 C 227.82,158.536 220.153,170.536 212.5,182.5C 197.672,184.969 183.005,187.636 168.5,190.5C 168.167,190.5 167.833,190.5 167.5,190.5C 143.188,165.521 118.521,140.854 93.5,116.5C 94,116.167 94.5,115.833 95,115.5C 141.694,126.539 188.528,136.872 235.5,146.5 Z"/></g>
<g><path style="opacity:1" fill="#28318c" d="M 548.5,335.5 C 545.644,332.973 543.644,329.807 542.5,326C 546.369,316.073 546.369,306.24 542.5,296.5C 543.11,295.609 543.443,294.609 543.5,293.5C 557.846,239.779 572.012,186.112 586,132.5C 560.296,156.373 534.463,180.04 508.5,203.5C 508.238,200.301 506.572,198.301 503.5,197.5C 528.671,173.497 554.338,149.997 580.5,127C 576.473,126.669 572.473,127.002 568.5,128C 522.707,136.186 477.04,144.353 431.5,152.5C 429.336,150.178 427.669,147.511 426.5,144.5C 482.21,135.243 537.877,125.577 593.5,115.5C 596.545,115.396 598.212,116.896 598.5,120C 581.456,182.13 564.622,244.296 548,306.5C 546.142,316.189 546.309,325.856 548.5,335.5 Z"/></g>
<g><path style="opacity:1" fill="#af958e" d="M 162.5,196.5 C 162.5,196.833 162.5,197.167 162.5,197.5C 166.193,212.934 169.86,228.267 173.5,243.5C 167.5,253.167 161.5,262.833 155.5,272.5C 151.367,253.956 147.201,235.29 143,216.5C 138.313,214.111 135.647,215.778 135,221.5C 131.246,242.718 127.079,263.718 122.5,284.5C 110.803,230.057 98.9701,175.724 87,121.5C 112.035,146.702 137.201,171.702 162.5,196.5 Z"/></g>
<g><path style="opacity:1" fill="#af958e" d="M 503.5,197.5 C 503.167,197.5 502.833,197.5 502.5,197.5C 485.709,194.342 469.042,190.675 452.5,186.5C 445.473,175.149 438.473,163.816 431.5,152.5C 477.04,144.353 522.707,136.186 568.5,128C 572.473,127.002 576.473,126.669 580.5,127C 554.338,149.997 528.671,173.497 503.5,197.5 Z"/></g>
<g><path style="opacity:1" fill="#87b9b6" d="M 543.5,293.5 C 539.441,271.394 535.941,249.061 533,226.5C 531.012,223.162 528.679,222.828 526,225.5C 521.425,243.037 516.592,260.37 511.5,277.5C 505.349,269.212 499.683,260.545 494.5,251.5C 498.986,235.889 503.32,220.222 507.5,204.5C 507.5,203.833 507.833,203.5 508.5,203.5C 534.463,180.04 560.296,156.373 586,132.5C 572.012,186.112 557.846,239.779 543.5,293.5 Z"/></g>
<g><path style="opacity:1" fill="#4c62bd" d="M 212.5,182.5 C 210.863,186.118 208.863,189.451 206.5,192.5C 206.44,191.957 206.107,191.624 205.5,191.5C 197.413,193.198 189.413,195.032 181.5,197C 187.193,199.515 192.859,202.015 198.5,204.5C 197.331,207.511 195.664,210.178 193.5,212.5C 189.868,209.679 185.868,207.346 181.5,205.5C 181.938,205.565 182.272,205.399 182.5,205C 177.63,200.298 172.963,195.465 168.5,190.5C 183.005,187.636 197.672,184.969 212.5,182.5 Z"/></g>
<g><path style="opacity:1" fill="#baa2b3" d="M 452.5,186.5 C 469.042,190.675 485.709,194.342 502.5,197.5C 497.194,202.14 492.194,207.14 487.5,212.5C 483.227,215.434 479.227,218.767 475.5,222.5C 473.167,218.5 470.833,214.5 468.5,210.5C 475.574,209.087 482.24,206.587 488.5,203C 478.855,200.672 469.188,198.505 459.5,196.5C 457.199,193.19 454.866,189.857 452.5,186.5 Z"/></g>
<g><path style="opacity:1" fill="#323eb3" d="M 167.5,190.5 C 167.833,190.5 168.167,190.5 168.5,190.5C 172.963,195.465 177.63,200.298 182.5,205C 182.272,205.399 181.938,205.565 181.5,205.5C 178.854,204.513 176.188,203.513 173.5,202.5C 172.571,203.689 172.238,205.022 172.5,206.5C 169.167,203.5 165.833,200.5 162.5,197.5C 162.5,197.167 162.5,196.833 162.5,196.5C 162.019,192.651 163.686,190.651 167.5,190.5 Z"/></g>
<g><path style="opacity:1" fill="#cdc1bd" d="M 206.5,192.5 C 203.82,196.537 201.154,200.537 198.5,204.5C 192.859,202.015 187.193,199.515 181.5,197C 189.413,195.032 197.413,193.198 205.5,191.5C 206.107,191.624 206.44,191.957 206.5,192.5 Z"/></g>
<g><path style="opacity:1" fill="#d0c3bc" d="M 459.5,196.5 C 469.188,198.505 478.855,200.672 488.5,203C 482.24,206.587 475.574,209.087 468.5,210.5C 465.015,206.21 462.015,201.543 459.5,196.5 Z"/></g>
<g><path style="opacity:1" fill="#5659b3" d="M 162.5,197.5 C 165.833,200.5 169.167,203.5 172.5,206.5C 173.338,206.842 173.672,207.508 173.5,208.5C 175.227,215.966 176.894,223.466 178.5,231C 178.684,232.376 179.351,233.209 180.5,233.5C 178.154,236.871 175.821,240.204 173.5,243.5C 169.86,228.267 166.193,212.934 162.5,197.5 Z"/></g>
<g><path style="opacity:1" fill="#333eb2" d="M 502.5,197.5 C 502.833,197.5 503.167,197.5 503.5,197.5C 506.572,198.301 508.238,200.301 508.5,203.5C 507.833,203.5 507.5,203.833 507.5,204.5C 504.5,207.167 501.5,209.833 498.5,212.5C 497.596,211.791 497.263,210.791 497.5,209.5C 494.177,210.492 490.844,211.492 487.5,212.5C 492.194,207.14 497.194,202.14 502.5,197.5 Z"/></g>
<g><path style="opacity:1" fill="#708cd7" d="M 181.5,205.5 C 185.868,207.346 189.868,209.679 193.5,212.5C 191.735,215.709 189.735,218.709 187.5,221.5C 182.833,217.167 178.167,212.833 173.5,208.5C 173.672,207.508 173.338,206.842 172.5,206.5C 172.238,205.022 172.571,203.689 173.5,202.5C 176.188,203.513 178.854,204.513 181.5,205.5 Z"/></g>
<g><path style="opacity:1" fill="#91c4da" d="M 507.5,204.5 C 503.32,220.222 498.986,235.889 494.5,251.5C 492.265,248.709 490.265,245.709 488.5,242.5C 490.884,234.495 493.217,226.329 495.5,218C 495.43,217.235 495.097,216.735 494.5,216.5C 495.833,215.167 497.167,213.833 498.5,212.5C 501.5,209.833 504.5,207.167 507.5,204.5 Z"/></g>
<g><path style="opacity:1" fill="#90a2d6" d="M 173.5,208.5 C 178.167,212.833 182.833,217.167 187.5,221.5C 185.167,225.5 182.833,229.5 180.5,233.5C 179.351,233.209 178.684,232.376 178.5,231C 176.894,223.466 175.227,215.966 173.5,208.5 Z"/></g>
<g><path style="opacity:1" fill="#4f54bd" d="M 498.5,212.5 C 497.167,213.833 495.833,215.167 494.5,216.5C 489.807,220.861 485.141,225.195 480.5,229.5C 478.6,227.381 476.934,225.047 475.5,222.5C 479.227,218.767 483.227,215.434 487.5,212.5C 490.844,211.492 494.177,210.492 497.5,209.5C 497.263,210.791 497.596,211.791 498.5,212.5 Z"/></g>
<g><path style="opacity:1" fill="#5658b2" d="M 155.5,272.5 C 153.735,275.709 151.735,278.709 149.5,281.5C 146.15,267.588 142.983,253.588 140,239.5C 135.724,260.825 131.557,282.159 127.5,303.5C 126.212,297.73 124.545,292.063 122.5,286.5C 122.5,285.833 122.5,285.167 122.5,284.5C 127.079,263.718 131.246,242.718 135,221.5C 135.647,215.778 138.313,214.111 143,216.5C 147.201,235.29 151.367,253.956 155.5,272.5 Z"/></g>
<g><path style="opacity:1" fill="#abd7e3" d="M 494.5,216.5 C 495.097,216.735 495.43,217.235 495.5,218C 493.217,226.329 490.884,234.495 488.5,242.5C 485.583,238.334 482.916,234.001 480.5,229.5C 485.141,225.195 489.807,220.861 494.5,216.5 Z"/></g>
<g><path style="opacity:1" fill="#91c5da" d="M 543.5,293.5 C 543.443,294.609 543.11,295.609 542.5,296.5C 541.127,302.01 539.461,307.344 537.5,312.5C 534.335,291.185 531.168,269.851 528,248.5C 524.434,261.504 520.934,274.504 517.5,287.5C 515,284.506 513,281.173 511.5,277.5C 516.592,260.37 521.425,243.037 526,225.5C 528.679,222.828 531.012,223.162 533,226.5C 535.941,249.061 539.441,271.394 543.5,293.5 Z"/></g>
<g><path style="opacity:1" fill="#d8b8b3" d="M 149.5,281.5 C 141.677,293.805 133.844,306.138 126,318.5C 126.163,313.5 126.663,308.5 127.5,303.5C 131.557,282.159 135.724,260.825 140,239.5C 142.983,253.588 146.15,267.588 149.5,281.5 Z"/></g>
<g><path style="opacity:1" fill="#addae4" d="M 537.5,312.5 C 537.762,313.978 537.429,315.311 536.5,316.5C 529.781,307.109 523.448,297.442 517.5,287.5C 520.934,274.504 524.434,261.504 528,248.5C 531.168,269.851 534.335,291.185 537.5,312.5 Z"/></g>
<g><path style="opacity:1" fill="#86a8ef" d="M 326.5,272.5 C 327.666,346.999 327.832,421.666 327,496.5C 253.688,454.765 180.521,412.932 107.5,371C 180.712,338.225 253.712,305.392 326.5,272.5 Z"/></g>
<g><path style="opacity:1" fill="#c8b2f4" d="M 335.5,272.5 C 408.88,305.237 482.214,338.071 555.5,371C 482.415,412.96 409.248,454.793 336,496.5C 335.5,421.834 335.333,347.167 335.5,272.5 Z"/></g>
<g><path style="opacity:1" fill="#27308c" d="M 105.5,379.5 C 108.406,381.45 111.406,383.117 114.5,384.5C 113.414,384.62 112.747,385.287 112.5,386.5C 110.907,393.463 109.574,400.463 108.5,407.5C 105.669,406.921 103.336,405.588 101.5,403.5C 102.448,395.426 103.782,387.426 105.5,379.5 Z"/></g>
<g><path style="opacity:1" fill="#28318c" d="M 555.5,380.5 C 556.254,388.869 557.254,397.202 558.5,405.5C 555.869,407.153 553.203,408.819 550.5,410.5C 549.608,402.15 548.608,393.816 547.5,385.5C 550.131,383.847 552.797,382.181 555.5,380.5 Z"/></g>
<g><path style="opacity:1" fill="#ae948e" d="M 114.5,384.5 C 123.167,389.5 131.833,394.5 140.5,399.5C 142.626,409.462 144.626,419.462 146.5,429.5C 133.498,422.668 120.832,415.335 108.5,407.5C 109.574,400.463 110.907,393.463 112.5,386.5C 112.747,385.287 113.414,384.62 114.5,384.5 Z"/></g>
<g><path style="opacity:1" fill="#9382b5" d="M 547.5,385.5 C 548.608,393.816 549.608,402.15 550.5,410.5C 539.131,417.182 527.798,423.848 516.5,430.5C 515.624,430.631 514.957,430.298 514.5,429.5C 517.481,419.573 520.148,409.573 522.5,399.5C 530.667,394.582 539,389.915 547.5,385.5 Z"/></g>
<g><path style="opacity:1" fill="#b9a1b3" d="M 140.5,399.5 C 144.535,401.848 148.535,404.182 152.5,406.5C 151.414,406.62 150.747,407.287 150.5,408.5C 152.036,417.638 154.036,426.638 156.5,435.5C 152.827,434 149.494,432 146.5,429.5C 144.626,419.462 142.626,409.462 140.5,399.5 Z"/></g>
<g><path style="opacity:1" fill="#4f54be" d="M 522.5,399.5 C 520.148,409.573 517.481,419.573 514.5,429.5C 514.957,430.298 515.624,430.631 516.5,430.5C 512.542,432.766 508.542,435.099 504.5,437.5C 507.344,426.456 510.344,415.456 513.5,404.5C 516.339,402.58 519.339,400.913 522.5,399.5 Z"/></g>
<g><path style="opacity:1" fill="#3742bf" d="M 101.5,403.5 C 103.336,405.588 105.669,406.921 108.5,407.5C 120.832,415.335 133.498,422.668 146.5,429.5C 149.494,432 152.827,434 156.5,435.5C 165.967,441.404 175.633,447.071 185.5,452.5C 188.466,454.988 191.799,456.988 195.5,458.5C 196.167,458.833 196.833,459.167 197.5,459.5C 199.663,461.083 201.996,462.416 204.5,463.5C 224.939,475.892 245.606,488.059 266.5,500C 268.025,501.009 269.692,501.509 271.5,501.5C 275.14,503.662 279.14,505.162 283.5,506C 282.328,506.419 281.328,507.085 280.5,508C 287.726,512.444 295.059,516.61 302.5,520.5C 308.472,524.72 314.806,528.387 321.5,531.5C 324.531,533.835 327.865,535.835 331.5,537.5C 334.688,536.075 337.688,534.408 340.5,532.5C 343.869,530.485 347.202,528.485 350.5,526.5C 355.202,523.818 359.869,521.151 364.5,518.5C 368.973,516.095 373.306,513.429 377.5,510.5C 375.726,509.813 374.059,508.98 372.5,508C 376.249,506.982 379.916,505.815 383.5,504.5C 385.527,504.662 387.527,504.495 389.5,504C 410.527,491.822 431.527,479.655 452.5,467.5C 455.203,465.819 457.869,464.153 460.5,462.5C 461.833,461.833 463.167,461.167 464.5,460.5C 468.372,458.403 472.039,456.069 475.5,453.5C 485.15,448.195 494.816,442.862 504.5,437.5C 508.542,435.099 512.542,432.766 516.5,430.5C 527.798,423.848 539.131,417.182 550.5,410.5C 553.203,408.819 555.869,407.153 558.5,405.5C 560.568,404.259 562.735,403.259 565,402.5C 567.744,402.412 568.91,403.745 568.5,406.5C 566.684,411.325 564.017,415.658 560.5,419.5C 557.677,422.475 555.344,425.808 553.5,429.5C 534.197,454.315 515.03,479.315 496,504.5C 493.533,507.734 492.367,511.401 492.5,515.5C 490.733,517.792 489.733,520.458 489.5,523.5C 487.871,522.375 486.371,521.041 485,519.5C 479.336,526.174 474.169,533.174 469.5,540.5C 464.482,546.19 459.815,552.19 455.5,558.5C 452.677,561.475 450.344,564.808 448.5,568.5C 443.482,574.19 438.815,580.19 434.5,586.5C 432.147,588.86 430.147,591.527 428.5,594.5C 397.167,636.167 365.833,677.833 334.5,719.5C 332.5,719.5 330.5,719.5 328.5,719.5C 296.186,675.859 263.52,632.526 230.5,589.5C 228.853,586.527 226.853,583.86 224.5,581.5C 220.305,575.099 215.639,569.099 210.5,563.5C 208.6,559.268 205.933,555.601 202.5,552.5C 198.066,545.951 193.399,539.617 188.5,533.5C 183.252,526.018 177.752,518.684 172,511.5C 170.074,513.539 167.907,515.206 165.5,516.5C 165.296,513.482 164.963,510.482 164.5,507.5C 165.141,506.518 165.807,505.518 166.5,504.5C 146.86,477.532 126.86,450.865 106.5,424.5C 104.183,420.854 101.516,417.52 98.5,414.5C 97.343,412.862 96.1764,411.196 95,409.5C 93.2219,403.11 95.3885,401.11 101.5,403.5 Z"/></g>
<g><path style="opacity:1" fill="#dcbbb3" d="M 152.5,406.5 C 162.031,411.092 171.031,416.426 179.5,422.5C 181.93,432.414 183.93,442.414 185.5,452.5C 175.633,447.071 165.967,441.404 156.5,435.5C 154.036,426.638 152.036,417.638 150.5,408.5C 150.747,407.287 151.414,406.62 152.5,406.5 Z"/></g>
<g><path style="opacity:1" fill="#add9e4" d="M 513.5,404.5 C 510.344,415.456 507.344,426.456 504.5,437.5C 494.816,442.862 485.15,448.195 475.5,453.5C 474.861,452.903 474.528,452.07 474.5,451C 476.758,441.467 479.092,431.967 481.5,422.5C 492.167,416.5 502.833,410.5 513.5,404.5 Z"/></g>
<g><path style="opacity:1" fill="#28318c" d="M 98.5,414.5 C 101.516,417.52 104.183,420.854 106.5,424.5C 105.073,426.148 104.24,428.148 104,430.5C 94.8241,481.88 85.3241,533.214 75.5,584.5C 75.8333,585.5 76.1667,586.5 76.5,587.5C 105.554,560.442 134.887,533.775 164.5,507.5C 164.963,510.482 165.296,513.482 165.5,516.5C 165.5,516.833 165.5,517.167 165.5,517.5C 137.67,543.163 109.67,568.663 81.5,594C 129.2,590.497 176.867,586.33 224.5,581.5C 226.853,583.86 228.853,586.527 230.5,589.5C 176.812,594.199 123.145,599.199 69.5,604.5C 67.626,604.61 66.126,603.944 65,602.5C 75.6207,539.779 86.7874,477.112 98.5,414.5 Z"/></g>
<g><path style="opacity:1" fill="#28318c" d="M 560.5,419.5 C 569.811,484.139 578.644,548.806 587,613.5C 583.817,615.523 580.317,616.023 576.5,615C 527.139,608.273 477.805,601.439 428.5,594.5C 430.147,591.527 432.147,588.86 434.5,586.5C 476.658,592.911 518.991,599.078 561.5,605C 564.5,605.667 567.5,605.667 570.5,605C 543.632,578.299 516.965,551.465 490.5,524.5C 490.5,523.833 490.167,523.5 489.5,523.5C 489.733,520.458 490.733,517.792 492.5,515.5C 520.799,543.298 548.965,571.298 577,599.5C 569.717,542.797 561.884,486.13 553.5,429.5C 555.344,425.808 557.677,422.475 560.5,419.5 Z"/></g>
<g><path style="opacity:1" fill="#5859b3" d="M 179.5,422.5 C 183.302,423.32 186.636,424.986 189.5,427.5C 191.499,437.827 193.499,448.16 195.5,458.5C 191.799,456.988 188.466,454.988 185.5,452.5C 183.93,442.414 181.93,432.414 179.5,422.5 Z"/></g>
<g><path style="opacity:1" fill="#edcac0" d="M 113.5,421.5 C 113.897,420.475 114.563,420.308 115.5,421C 185.918,462.293 256.418,503.459 327,544.5C 327.667,597.5 327.667,650.5 327,703.5C 256.056,609.252 184.889,515.252 113.5,421.5 Z"/></g>
<g><path style="opacity:1" fill="#c8b2f4" d="M 547.5,420.5 C 548.239,420.369 548.906,420.536 549.5,421C 478.212,515.077 407.045,609.244 336,703.5C 335.333,650.5 335.333,597.5 336,544.5C 406.81,503.519 477.31,462.185 547.5,420.5 Z"/></g>
<g><path style="opacity:1" fill="#af958e" d="M 106.5,424.5 C 126.86,450.865 146.86,477.532 166.5,504.5C 165.807,505.518 165.141,506.518 164.5,507.5C 134.887,533.775 105.554,560.442 76.5,587.5C 76.1667,586.5 75.8333,585.5 75.5,584.5C 85.3241,533.214 94.8241,481.88 104,430.5C 104.24,428.148 105.073,426.148 106.5,424.5 Z"/></g>
<g><path style="opacity:1" fill="#91c4da" d="M 481.5,422.5 C 479.092,431.967 476.758,441.467 474.5,451C 474.528,452.07 474.861,452.903 475.5,453.5C 472.039,456.069 468.372,458.403 464.5,460.5C 466.199,450.724 468.533,441.057 471.5,431.5C 471.457,430.584 471.124,429.917 470.5,429.5C 473.961,426.931 477.628,424.597 481.5,422.5 Z"/></g>
<g><path style="opacity:1" fill="#ad938f" d="M 189.5,427.5 C 194.833,430.5 200.167,433.5 205.5,436.5C 202.837,444.155 200.17,451.822 197.5,459.5C 196.833,459.167 196.167,458.833 195.5,458.5C 193.499,448.16 191.499,437.827 189.5,427.5 Z"/></g>
<g><path style="opacity:1" fill="#87b8b6" d="M 470.5,429.5 C 471.124,429.917 471.457,430.584 471.5,431.5C 468.533,441.057 466.199,450.724 464.5,460.5C 463.167,461.167 461.833,461.833 460.5,462.5C 457.463,455.058 454.796,447.391 452.5,439.5C 458.17,435.663 464.17,432.33 470.5,429.5 Z"/></g>
<g><path style="opacity:1" fill="#9483b4" d="M 553.5,429.5 C 561.884,486.13 569.717,542.797 577,599.5C 548.965,571.298 520.799,543.298 492.5,515.5C 492.367,511.401 493.533,507.734 496,504.5C 515.03,479.315 534.197,454.315 553.5,429.5 Z"/></g>
<g><path style="opacity:1" fill="#2a328e" d="M 205.5,436.5 C 208.437,437.803 211.103,439.47 213.5,441.5C 210.128,448.601 207.128,455.935 204.5,463.5C 201.996,462.416 199.663,461.083 197.5,459.5C 200.17,451.822 202.837,444.155 205.5,436.5 Z"/></g>
<g><path style="opacity:1" fill="#29338f" d="M 452.5,439.5 C 454.796,447.391 457.463,455.058 460.5,462.5C 457.869,464.153 455.203,465.819 452.5,467.5C 450.164,459.489 447.831,451.489 445.5,443.5C 447.635,441.929 449.968,440.596 452.5,439.5 Z"/></g>
<g><path style="opacity:1" fill="#637cb2" d="M 213.5,441.5 C 215.784,441.975 217.784,442.975 219.5,444.5C 219.833,450.001 221.166,455.167 223.5,460C 241.131,465.99 258.798,471.823 276.5,477.5C 285.76,482.107 294.76,487.107 303.5,492.5C 292.919,495.751 282.252,498.751 271.5,501.5C 269.692,501.509 268.025,501.009 266.5,500C 245.606,488.059 224.939,475.892 204.5,463.5C 207.128,455.935 210.128,448.601 213.5,441.5 Z"/></g>
<g><path style="opacity:1" fill="#4151bc" d="M 219.5,444.5 C 225.165,446.997 230.498,449.997 235.5,453.5C 234.711,453.783 234.044,454.283 233.5,455C 236.876,456.872 240.209,457.705 243.5,457.5C 254.993,463.433 265.993,470.099 276.5,477.5C 258.798,471.823 241.131,465.99 223.5,460C 221.166,455.167 219.833,450.001 219.5,444.5 Z"/></g>
<g><path style="opacity:1" fill="#9383b5" d="M 445.5,443.5 C 447.831,451.489 450.164,459.489 452.5,467.5C 431.527,479.655 410.527,491.822 389.5,504C 387.527,504.495 385.527,504.662 383.5,504.5C 375.222,501.239 366.722,498.239 358,495.5C 356.97,495.164 356.47,494.497 356.5,493.5C 365.86,488.487 375.194,483.487 384.5,478.5C 401.232,474.304 417.899,469.804 434.5,465C 437.318,458.717 439.651,452.217 441.5,445.5C 442.605,444.4 443.938,443.733 445.5,443.5 Z"/></g>
<g><path style="opacity:1" fill="#9e8fd9" d="M 441.5,445.5 C 439.651,452.217 437.318,458.717 434.5,465C 417.899,469.804 401.232,474.304 384.5,478.5C 403.239,467.104 422.239,456.104 441.5,445.5 Z"/></g>
<g><path style="opacity:1" fill="#9691da" d="M 235.5,453.5 C 238.167,454.833 240.833,456.167 243.5,457.5C 240.209,457.705 236.876,456.872 233.5,455C 234.044,454.283 234.711,453.783 235.5,453.5 Z"/></g>
<g><path style="opacity:1" fill="#27308c" d="M 303.5,492.5 C 307.335,494.25 311.001,496.25 314.5,498.5C 304.737,500.554 295.07,503.054 285.5,506C 299.229,511.187 313.229,515.687 327.5,519.5C 341.872,515.824 356.205,511.99 370.5,508C 362.182,505.339 353.849,502.839 345.5,500.5C 348.961,497.931 352.628,495.597 356.5,493.5C 356.47,494.497 356.97,495.164 358,495.5C 366.722,498.239 375.222,501.239 383.5,504.5C 379.916,505.815 376.249,506.982 372.5,508C 374.059,508.98 375.726,509.813 377.5,510.5C 373.306,513.429 368.973,516.095 364.5,518.5C 357.443,520.015 350.443,521.681 343.5,523.5C 342.833,523.5 342.167,523.5 341.5,523.5C 336.752,522.184 331.918,521.184 327,520.5C 322.706,521.116 318.539,522.116 314.5,523.5C 310.515,522.512 306.515,521.512 302.5,520.5C 295.059,516.61 287.726,512.444 280.5,508C 281.328,507.085 282.328,506.419 283.5,506C 279.14,505.162 275.14,503.662 271.5,501.5C 282.252,498.751 292.919,495.751 303.5,492.5 Z"/></g>
<g><path style="opacity:1" fill="#020105" d="M 314.5,498.5 C 320.018,501.759 325.685,504.759 331.5,507.5C 336.157,505.172 340.824,502.838 345.5,500.5C 353.849,502.839 362.182,505.339 370.5,508C 356.205,511.99 341.872,515.824 327.5,519.5C 313.229,515.687 299.229,511.187 285.5,506C 295.07,503.054 304.737,500.554 314.5,498.5 Z"/></g>
<g><path style="opacity:1" fill="#9d8fd9" d="M 188.5,533.5 C 182.891,534.789 177.225,535.622 171.5,536C 169.263,529.877 167.263,523.71 165.5,517.5C 165.5,517.167 165.5,516.833 165.5,516.5C 167.907,515.206 170.074,513.539 172,511.5C 177.752,518.684 183.252,526.018 188.5,533.5 Z"/></g>
<g><path style="opacity:1" fill="#9483b4" d="M 165.5,517.5 C 167.263,523.71 169.263,529.877 171.5,536C 177.225,535.622 182.891,534.789 188.5,533.5C 193.399,539.617 198.066,545.951 202.5,552.5C 197.226,552.609 195.06,555.276 196,560.5C 200.638,562.302 205.471,563.302 210.5,563.5C 215.639,569.099 220.305,575.099 224.5,581.5C 176.867,586.33 129.2,590.497 81.5,594C 109.67,568.663 137.67,543.163 165.5,517.5 Z"/></g>
<g><path style="opacity:1" fill="#323db2" d="M 341.5,523.5 C 336.888,525.905 331.888,527.238 326.5,527.5C 322.216,526.739 318.216,525.405 314.5,523.5C 318.539,522.116 322.706,521.116 327,520.5C 331.918,521.184 336.752,522.184 341.5,523.5 Z"/></g>
<g><path style="opacity:1" fill="#5558b3" d="M 489.5,523.5 C 490.167,523.5 490.5,523.833 490.5,524.5C 489.883,524.611 489.383,524.944 489,525.5C 487.852,531.444 486.018,537.111 483.5,542.5C 482.707,542.931 481.873,543.265 481,543.5C 477.176,542.391 473.343,541.391 469.5,540.5C 474.169,533.174 479.336,526.174 485,519.5C 486.371,521.041 487.871,522.375 489.5,523.5 Z"/></g>
<g><path style="opacity:1" fill="#a18b92" d="M 364.5,518.5 C 359.869,521.151 355.202,523.818 350.5,526.5C 347.509,526.834 345.176,525.834 343.5,523.5C 350.443,521.681 357.443,520.015 364.5,518.5 Z"/></g>
<g><path style="opacity:1" fill="#9789d1" d="M 302.5,520.5 C 306.515,521.512 310.515,522.512 314.5,523.5C 318.216,525.405 322.216,526.739 326.5,527.5C 326.5,527.833 326.5,528.167 326.5,528.5C 324.152,528.592 322.486,529.592 321.5,531.5C 314.806,528.387 308.472,524.72 302.5,520.5 Z"/></g>
<g><path style="opacity:1" fill="#5457b3" d="M 341.5,523.5 C 342.167,523.5 342.833,523.5 343.5,523.5C 345.176,525.834 347.509,526.834 350.5,526.5C 347.202,528.485 343.869,530.485 340.5,532.5C 336.097,530.592 331.43,529.259 326.5,528.5C 326.5,528.167 326.5,527.833 326.5,527.5C 331.888,527.238 336.888,525.905 341.5,523.5 Z"/></g>
<g><path style="opacity:1" fill="#af958e" d="M 490.5,524.5 C 516.965,551.465 543.632,578.299 570.5,605C 567.5,605.667 564.5,605.667 561.5,605C 518.991,599.078 476.658,592.911 434.5,586.5C 438.815,580.19 443.482,574.19 448.5,568.5C 451.946,568.184 455.113,567.184 458,565.5C 458.667,564.167 458.667,562.833 458,561.5C 456.955,560.627 456.122,559.627 455.5,558.5C 459.815,552.19 464.482,546.19 469.5,540.5C 473.343,541.391 477.176,542.391 481,543.5C 481.873,543.265 482.707,542.931 483.5,542.5C 486.018,537.111 487.852,531.444 489,525.5C 489.383,524.944 489.883,524.611 490.5,524.5 Z"/></g>
<g><path style="opacity:1" fill="#bea7d9" d="M 326.5,528.5 C 331.43,529.259 336.097,530.592 340.5,532.5C 337.688,534.408 334.688,536.075 331.5,537.5C 327.865,535.835 324.531,533.835 321.5,531.5C 322.486,529.592 324.152,528.592 326.5,528.5 Z"/></g>
<g><path style="opacity:1" fill="#9d8ed8" d="M 202.5,552.5 C 205.933,555.601 208.6,559.268 210.5,563.5C 205.471,563.302 200.638,562.302 196,560.5C 195.06,555.276 197.226,552.609 202.5,552.5 Z"/></g>
<g><path style="opacity:1" fill="#5658b3" d="M 455.5,558.5 C 456.122,559.627 456.955,560.627 458,561.5C 458.667,562.833 458.667,564.167 458,565.5C 455.113,567.184 451.946,568.184 448.5,568.5C 450.344,564.808 452.677,561.475 455.5,558.5 Z"/></g>
</svg>
