<?xml version="1.0" standalone="no"?>
<!DOCTYPE svg PUBLIC "-//W3C//DTD SVG 20010904//EN"
 "http://www.w3.org/TR/2001/REC-SVG-20010904/DTD/svg10.dtd">
<svg version="1.0" xmlns="http://www.w3.org/2000/svg"
 width="811.000000pt" height="738.000000pt" viewBox="0 0 811.000000 738.000000"
 preserveAspectRatio="xMidYMid meet">

<g transform="translate(0.000000,738.000000) scale(0.100000,-0.100000)"
fill="#000000" stroke="none">
<path d="M0 3695 l0 -3685 4055 0 4055 0 0 3685 0 3685 -4055 0 -4055 0 0
-3685z m4501 2798 c239 -375 462 -726 497 -780 34 -54 94 -148 132 -209 l70
-112 58 -14 c55 -13 59 -17 104 -83 26 -39 47 -73 47 -76 1 -4 -9 -10 -21 -13
-46 -12 -51 -21 -35 -53 17 -31 47 -62 47 -46 0 5 13 13 28 19 24 9 31 8 40
-7 9 -15 6 -22 -19 -43 l-30 -25 26 -40 26 -39 26 24 c14 13 29 24 32 24 3 -1
23 -29 44 -62 39 -62 39 -62 27 -118 l-12 -55 119 -185 c66 -102 132 -207 148
-235 l29 -49 16 52 15 52 94 -147 94 -146 -12 -53 -12 -54 52 -87 c29 -49 73
-119 99 -158 26 -38 50 -75 53 -82 7 -10 -62 16 -207 81 -33 14 -60 25 -62 24
-1 -2 -4 -20 -6 -41 l-3 -38 75 -33 c41 -18 108 -48 148 -68 l72 -35 -62 -38
c-35 -21 -117 -68 -183 -106 -160 -91 -159 -89 -174 -147 l-13 -51 -150 -86
c-83 -47 -153 -84 -155 -81 -3 2 0 21 6 42 12 44 8 53 -20 36 -48 -30 -299
-172 -348 -196 -45 -23 -141 -82 -217 -133 -18 -12 -18 -13 1 -10 12 1 19 -3
17 -11 -1 -7 5 -15 13 -18 8 -3 13 -10 10 -14 -3 -5 -16 2 -30 16 -30 30 -40
30 -87 1 -49 -30 -346 -199 -565 -322 -98 -55 -204 -114 -235 -132 l-57 -32
-1 1145 c0 630 3 1143 7 1141 5 -3 130 -59 278 -125 149 -66 305 -136 349
-156 43 -20 82 -36 86 -36 5 0 7 19 5 42 l-3 42 -278 123 c-154 67 -319 142
-369 166 -49 24 -105 48 -122 54 -29 10 -33 9 -33 -6 0 -20 -55 -47 -275 -139
-201 -84 -390 -169 -426 -192 -19 -12 -26 -20 -16 -16 21 7 21 5 3 -39 -20
-48 -9 -46 107 11 70 34 509 227 594 261 10 4 12 -222 10 -1083 l-2 -1089 -57
-19 -58 -18 -157 89 c-87 50 -189 107 -228 128 -38 21 -141 79 -228 129 -86
50 -181 104 -210 119 -28 16 -98 57 -154 93 -57 35 -108 64 -114 64 -12 0 -94
46 -246 137 -40 24 -75 43 -77 43 -2 0 0 -16 5 -36 6 -19 9 -41 7 -48 -2 -8
-55 17 -150 71 l-147 83 -11 55 c-11 54 -12 55 -78 91 -100 55 -220 123 -285
162 l-57 35 102 47 c57 26 129 59 162 74 l58 26 -7 37 c-4 21 -8 39 -10 41 -1
2 -33 -11 -71 -29 -96 -44 -207 -90 -210 -86 -3 3 71 124 168 274 l59 93 -12
57 -11 58 98 154 99 155 8 -35 c19 -73 20 -73 56 -12 19 32 84 135 144 228 60
94 118 185 129 203 10 18 26 45 34 60 l16 27 -21 -25 c-11 -14 -21 -29 -21
-34 0 -19 -12 4 -20 40 -8 34 -5 44 27 96 20 32 39 58 43 58 4 0 15 -9 25 -20
18 -20 18 -22 1 -53 -13 -26 -14 -28 -1 -10 9 12 28 34 41 50 37 43 39 61 10
92 -17 18 -24 34 -20 44 8 21 21 21 56 3 26 -14 29 -13 48 14 23 32 26 50 7
50 -7 0 -22 6 -32 14 -17 12 -16 16 20 75 38 64 63 81 115 81 28 0 49 20 79
78 12 22 12 23 -35 16 l-48 -6 15 23 c9 13 59 92 112 175 89 138 99 151 122
146 34 -6 39 -17 19 -47 -9 -14 -15 -25 -12 -25 10 0 127 178 462 705 199 314
380 597 401 630 l40 60 3 -775 2 -776 40 4 40 4 0 776 c0 427 4 772 8 767 5
-6 204 -317 443 -692z m-2545 -3511 c93 -55 193 -113 222 -130 29 -18 57 -32
61 -32 5 0 4 18 -1 40 -6 23 -8 43 -6 46 3 2 70 -34 149 -80 l144 -84 12 -52
c6 -28 13 -52 15 -53 1 -1 17 -11 33 -23 17 -11 66 -40 110 -64 44 -24 190
-108 325 -188 135 -80 295 -173 355 -207 61 -34 171 -98 245 -142 74 -44 142
-82 150 -85 8 -3 37 1 65 8 48 13 50 13 112 -22 l63 -35 48 27 c48 27 49 27
96 11 55 -19 38 -26 216 81 69 41 172 100 230 132 58 31 157 87 220 125 161
95 392 230 459 267 133 74 160 96 167 136 4 20 10 44 15 53 8 15 296 189 312
189 4 0 3 -10 -2 -22 -4 -13 -11 -36 -15 -52 l-7 -29 38 23 c197 117 446 260
449 258 3 -3 -585 -788 -680 -908 l-35 -44 20 -22 c11 -11 17 -28 14 -37 -16
-52 -17 -52 -34 -8 l-18 43 -31 -42 c-30 -41 -31 -44 -17 -78 21 -50 19 -54
-19 -38 -41 17 -23 34 -176 -169 -63 -82 -153 -202 -201 -265 -194 -254 -827
-1092 -908 -1202 -47 -64 -90 -117 -94 -118 -4 0 -7 296 -7 658 0 361 1 665 0
675 0 13 -9 17 -40 17 l-40 0 -2 -680 -3 -680 -231 307 c-281 375 -832 1104
-1013 1343 -74 96 -153 202 -178 235 -88 119 -156 205 -161 201 -2 -3 -14 14
-26 37 -12 23 -136 193 -276 377 -317 419 -303 400 -297 400 2 0 80 -44 173
-98z m3081 -157 c0 -8 -6 -15 -13 -15 -18 0 -27 17 -12 23 21 9 25 8 25 -8z
m-1081 -500 c10 -8 14 -15 8 -15 -5 0 -19 7 -30 15 -10 8 -14 15 -8 15 5 0 19
-7 30 -15z m-1516 -144 c0 -19 -27 -71 -33 -64 -11 11 -8 48 5 61 14 14 28 16
28 3z"/>
<path d="M3020 5730 c-6 -11 -8 -20 -6 -20 3 0 10 9 16 20 6 11 8 20 6 20 -3
0 -10 -9 -16 -20z"/>
<path d="M2930 5590 c-6 -11 -8 -20 -6 -20 3 0 10 9 16 20 6 11 8 20 6 20 -3
0 -10 -9 -16 -20z"/>
<path d="M3170 4315 c-14 -8 -20 -14 -15 -14 6 0 21 6 35 14 14 8 21 14 15 14
-5 0 -21 -6 -35 -14z"/>
<path d="M3080 4275 c-14 -8 -20 -14 -15 -14 6 0 21 6 35 14 14 8 21 14 15 14
-5 0 -21 -6 -35 -14z"/>
<path d="M3170 4245 c-14 -8 -20 -14 -15 -14 6 0 21 6 35 14 14 8 21 14 15 14
-5 0 -21 -6 -35 -14z"/>
<path d="M2990 4235 c-14 -8 -20 -14 -15 -14 6 0 21 6 35 14 14 8 21 14 15 14
-5 0 -21 -6 -35 -14z"/>
<path d="M3100 4215 c-14 -8 -20 -14 -15 -14 6 0 21 6 35 14 14 8 21 14 15 14
-5 0 -21 -6 -35 -14z"/>
<path d="M2900 4195 c-14 -8 -20 -14 -15 -14 6 0 21 6 35 14 14 8 21 14 15 14
-5 0 -21 -6 -35 -14z"/>
<path d="M3000 4170 c-19 -11 -30 -19 -25 -19 6 0 26 8 45 19 19 11 31 19 25
19 -5 0 -26 -8 -45 -19z"/>
<path d="M2810 4155 c-14 -8 -20 -14 -15 -14 6 0 21 6 35 14 14 8 21 14 15 14
-5 0 -21 -6 -35 -14z"/>
<path d="M2900 4125 c-14 -8 -20 -14 -15 -14 6 0 21 6 35 14 14 8 21 14 15 14
-5 0 -21 -6 -35 -14z"/>
<path d="M2720 4115 c-14 -8 -20 -14 -15 -14 6 0 21 6 35 14 14 8 21 14 15 14
-5 0 -21 -6 -35 -14z"/>
<path d="M2830 4095 c-14 -8 -20 -14 -15 -14 6 0 21 6 35 14 14 8 21 14 15 14
-5 0 -21 -6 -35 -14z"/>
<path d="M2575 4054 c-38 -18 -122 -56 -185 -84 l-115 -50 3 -37 c2 -21 5 -39
6 -40 1 -2 79 31 172 73 93 41 184 82 203 90 25 11 31 18 22 27 -6 6 -11 21
-11 34 0 30 -11 28 -95 -13z"/>
<path d="M5383 4067 c0 -7 -3 -25 -7 -40 -5 -22 -2 -29 16 -37 13 -5 99 -43
192 -84 94 -42 172 -73 174 -71 3 2 5 21 6 41 l1 36 -189 84 c-104 46 -190 84
-191 84 -1 0 -2 -6 -2 -13z"/>
<path d="M2720 4045 c-14 -8 -20 -14 -15 -14 6 0 21 6 35 14 14 8 21 14 15 14
-5 0 -21 -6 -35 -14z"/>
<path d="M2840 3185 c-37 -92 -40 -105 -28 -158 6 -29 14 -55 18 -59 3 -4 16
23 29 60 21 64 22 70 8 127 l-15 60 -12 -30z"/>
</g>
</svg>
