<?xml version="1.0" encoding="UTF-8"?>
<!DOCTYPE svg PUBLIC "-//W3C//DTD SVG 1.1//EN" "http://www.w3.org/Graphics/SVG/1.1/DTD/svg11.dtd">
<svg xmlns="http://www.w3.org/2000/svg" version="1.1" width="811px" height="738px" style="shape-rendering:geometricPrecision; text-rendering:geometricPrecision; image-rendering:optimizeQuality; fill-rule:evenodd; clip-rule:evenodd" xmlns:xlink="http://www.w3.org/1999/xlink">
<g><path style="opacity:1" fill="#010101" d="M -0.5,-0.5 C 132.5,-0.5 265.5,-0.5 398.5,-0.5C 369.167,45.5 339.833,91.5 310.5,137.5C 258.047,124.303 205.713,110.637 153.5,96.5C 151.971,96.5288 150.804,97.1955 150,98.5C 149.762,102.848 150.095,107.181 151,111.5C 164.001,183.162 176.834,254.829 189.5,326.5C 189.267,328.062 188.6,329.395 187.5,330.5C 177.094,346.24 167.094,362.24 157.5,378.5C 157.876,380.383 158.876,381.883 160.5,383C 165.729,386.113 171.062,388.947 176.5,391.5C 177.167,392.167 177.833,392.833 178.5,393.5C 176.933,394.681 176.099,396.347 176,398.5C 174.58,404.765 173.746,411.098 173.5,417.5C 173.167,417.5 172.833,417.5 172.5,417.5C 168.811,413.985 164.478,412.151 159.5,412C 157.675,413.466 157.175,415.299 158,417.5C 159.752,419.351 161.252,421.351 162.5,423.5C 152.508,482.63 141.674,541.63 130,600.5C 129.001,605.813 128.668,611.146 129,616.5C 131.075,617.134 133.241,617.468 135.5,617.5C 189.443,611.839 243.443,606.839 297.5,602.5C 330.95,647.123 364.617,691.623 398.5,736C 399.793,736.49 401.127,736.657 402.5,736.5C 538.5,736.5 674.5,736.5 810.5,736.5C 810.5,736.833 810.5,737.167 810.5,737.5C 540.167,737.5 269.833,737.5 -0.5,737.5C -0.5,491.5 -0.5,245.5 -0.5,-0.5 Z"/></g>
<g><path style="opacity:1" fill="#000000" d="M 402.5,-0.5 C 538.5,-0.5 674.5,-0.5 810.5,-0.5C 810.5,245.167 810.5,490.833 810.5,736.5C 674.5,736.5 538.5,736.5 402.5,736.5C 433.481,694.859 464.814,653.526 496.5,612.5C 546.669,621.3 596.836,630.3 647,639.5C 648.711,639.561 650.044,638.894 651,637.5C 645.625,569.413 639.125,501.413 631.5,433.5C 635.494,427.518 639.494,421.518 643.5,415.5C 643.101,412.935 641.601,411.601 639,411.5C 636.123,412.688 633.29,414.021 630.5,415.5C 628.918,407.376 627.918,399.042 627.5,390.5C 631.995,387.53 636.662,384.697 641.5,382C 642.804,381.196 643.471,380.029 643.5,378.5C 636.171,366.51 628.837,354.51 621.5,342.5C 621.344,333.825 621.011,325.158 620.5,316.5C 637.971,252.628 655.471,188.628 673,124.5C 674,120.663 672.5,118.663 668.5,118.5C 611.504,128.334 554.504,138.001 497.5,147.5C 465.847,98.2031 434.18,48.8698 402.5,-0.5 Z"/></g>
<g><path style="opacity:1" fill="#3440be" d="M 398.5,-0.5 C 399.833,-0.5 401.167,-0.5 402.5,-0.5C 434.18,48.8698 465.847,98.2031 497.5,147.5C 498.833,150.167 500.167,152.833 501.5,155.5C 498.947,156.255 496.28,156.922 493.5,157.5C 491.467,154.477 489.467,151.477 487.5,148.5C 460.736,105.961 433.736,63.6276 406.5,21.5C 406.013,20.5266 405.513,19.5266 405,18.5C 404.5,66.4988 404.333,114.499 404.5,162.5C 404.5,165.167 404.5,167.833 404.5,170.5C 401.794,170.425 399.127,170.092 396.5,169.5C 396.5,169.167 396.5,168.833 396.5,168.5C 396.5,165.833 396.5,163.167 396.5,160.5C 396.667,113.165 396.5,65.8322 396,18.5C 395.283,19.0442 394.783,19.7109 394.5,20.5C 369.239,60.0261 344.239,99.6928 319.5,139.5C 317.6,141.619 315.934,143.953 314.5,146.5C 311.505,146.706 308.838,146.04 306.5,144.5C 307.58,142.004 308.914,139.67 310.5,137.5C 339.833,91.5 369.167,45.5 398.5,-0.5 Z"/></g>
<g><path style="opacity:1" fill="#c5adbf" d="M 396.5,160.5 C 396.167,160.5 395.833,160.5 395.5,160.5C 395.832,113.664 395.499,66.997 394.5,20.5C 394.783,19.7109 395.283,19.0442 396,18.5C 396.5,65.8322 396.667,113.165 396.5,160.5 Z"/></g>
<g><path style="opacity:1" fill="#a6dbec" d="M 406.5,21.5 C 405.501,68.3304 405.168,115.33 405.5,162.5C 405.167,162.5 404.833,162.5 404.5,162.5C 404.333,114.499 404.5,66.4988 405,18.5C 405.513,19.5266 406.013,20.5266 406.5,21.5 Z"/></g>
<g><path style="opacity:1" fill="#b7faf5" d="M 406.5,21.5 C 433.736,63.6276 460.736,105.961 487.5,148.5C 461.94,154.477 435.94,159.477 409.5,163.5C 407.901,163.768 406.568,163.434 405.5,162.5C 405.168,115.33 405.501,68.3304 406.5,21.5 Z"/></g>
<g><path style="opacity:1" fill="#edcabf" d="M 394.5,20.5 C 395.499,66.997 395.832,113.664 395.5,160.5C 369.962,153.997 344.628,146.997 319.5,139.5C 344.239,99.6928 369.239,60.0261 394.5,20.5 Z"/></g>
<g><path style="opacity:1" fill="#415958" d="M 305.5,144.5 C 297.281,159.042 288.281,173.042 278.5,186.5C 267.145,188.371 255.812,190.371 244.5,192.5C 218.522,164.854 192.522,137.187 166.5,109.5C 167,109.167 167.5,108.833 168,108.5C 213.771,120.951 259.604,132.951 305.5,144.5 Z"/></g>
<g><path style="opacity:1" fill="#554845" d="M 231.5,191.5 C 231.414,192.496 231.748,193.329 232.5,194C 229.363,194.802 227.696,196.802 227.5,200C 231.249,216.496 234.916,232.996 238.5,249.5C 232.86,258.816 227.194,268.149 221.5,277.5C 220.073,275.852 219.24,273.852 219,271.5C 215.461,254.805 211.794,238.138 208,221.5C 204.102,218.772 201.435,219.772 200,224.5C 197.046,241.602 193.713,258.602 190,275.5C 189.722,274.584 189.222,273.918 188.5,273.5C 179.221,220.823 170.054,168.156 161,115.5C 185.073,140.402 208.573,165.736 231.5,191.5 Z"/></g>
<g><path style="opacity:1" fill="#050611" d="M 620.5,316.5 C 619.28,309.861 618.28,303.195 617.5,296.5C 617.5,295.5 617.5,294.5 617.5,293.5C 632.75,241.504 646.917,189.171 660,136.5C 633.928,160.45 607.761,184.283 581.5,208C 582.416,208.278 583.082,208.778 583.5,209.5C 581.784,209.371 580.117,209.038 578.5,208.5C 575.994,207.25 573.327,206.584 570.5,206.5C 569.833,206.5 569.5,206.167 569.5,205.5C 570.552,205.649 571.552,205.483 572.5,205C 599.833,180 627.167,155 654.5,130C 603.785,138.042 553.119,146.542 502.5,155.5C 502.167,155.5 501.833,155.5 501.5,155.5C 500.167,152.833 498.833,150.167 497.5,147.5C 554.504,138.001 611.504,128.334 668.5,118.5C 672.5,118.663 674,120.663 673,124.5C 655.471,188.628 637.971,252.628 620.5,316.5 Z"/></g>
<g><path style="opacity:1" fill="#151211" d="M 569.5,205.5 C 555.576,201.852 541.576,198.519 527.5,195.5C 519.14,182.149 510.807,168.816 502.5,155.5C 553.119,146.542 603.785,138.042 654.5,130C 627.167,155 599.833,180 572.5,205C 571.552,205.483 570.552,205.649 569.5,205.5 Z"/></g>
<g><path style="opacity:1" fill="#111716" d="M 617.5,293.5 C 615.931,275.147 614.098,256.813 612,238.5C 609.253,235.966 606.587,235.966 604,238.5C 598.851,255.102 594.017,271.769 589.5,288.5C 588.5,288.5 587.5,288.5 586.5,288.5C 581.237,280.305 576.237,271.971 571.5,263.5C 577.032,247.215 582.032,230.715 586.5,214C 586.453,211.744 585.453,210.244 583.5,209.5C 583.082,208.778 582.416,208.278 581.5,208C 607.761,184.283 633.928,160.45 660,136.5C 646.917,189.171 632.75,241.504 617.5,293.5 Z"/></g>
<g><path style="opacity:1" fill="#ac9bc0" d="M 319.5,139.5 C 344.628,146.997 369.962,153.997 395.5,160.5C 395.833,160.5 396.167,160.5 396.5,160.5C 396.5,163.167 396.5,165.833 396.5,168.5C 392.803,167.992 389.136,167.326 385.5,166.5C 362.06,159.722 338.394,153.388 314.5,147.5C 314.5,147.167 314.5,146.833 314.5,146.5C 315.934,143.953 317.6,141.619 319.5,139.5 Z"/></g>
<g><path style="opacity:1" fill="#d9dbd3" d="M 314.5,147.5 C 338.394,153.388 362.06,159.722 385.5,166.5C 385.389,167.117 385.056,167.617 384.5,168C 354.649,173.003 324.816,178.17 295,183.5C 293.624,183.316 292.791,182.649 292.5,181.5C 299.349,169.79 306.682,158.456 314.5,147.5 Z"/></g>
<g><path style="opacity:1" fill="#abe9f0" d="M 487.5,148.5 C 489.467,151.477 491.467,154.477 493.5,157.5C 473.635,160.505 453.802,163.838 434,167.5C 432.624,167.684 431.791,168.351 431.5,169.5C 429.435,169.483 427.435,169.15 425.5,168.5C 420.094,167.085 414.761,165.418 409.5,163.5C 435.94,159.477 461.94,154.477 487.5,148.5 Z"/></g>
<g><path style="opacity:1" fill="#6583d1" d="M 305.5,144.5 C 305.833,144.5 306.167,144.5 306.5,144.5C 308.838,146.04 311.505,146.706 314.5,146.5C 314.5,146.833 314.5,147.167 314.5,147.5C 306.682,158.456 299.349,169.79 292.5,181.5C 289.931,184.961 287.597,188.628 285.5,192.5C 281.25,198.665 277.25,204.998 273.5,211.5C 271.336,213.822 269.669,216.489 268.5,219.5C 268.167,219.5 267.833,219.5 267.5,219.5C 266.581,216.911 264.914,214.911 262.5,213.5C 262.5,213.167 262.5,212.833 262.5,212.5C 268.346,204.14 273.679,195.473 278.5,186.5C 288.281,173.042 297.281,159.042 305.5,144.5 Z"/></g>
<g><path style="opacity:1" fill="#444dbd" d="M 501.5,155.5 C 501.833,155.5 502.167,155.5 502.5,155.5C 510.807,168.816 519.14,182.149 527.5,195.5C 529.432,198.366 531.099,201.366 532.5,204.5C 528.889,203.347 525.223,202.347 521.5,201.5C 519.403,197.628 517.069,193.961 514.5,190.5C 507.75,179.331 500.75,168.331 493.5,157.5C 496.28,156.922 498.947,156.255 501.5,155.5 Z"/></g>
<g><path style="opacity:1" fill="#baf4f0" d="M 493.5,157.5 C 500.75,168.331 507.75,179.331 514.5,190.5C 486.809,184.623 459.142,177.623 431.5,169.5C 431.791,168.351 432.624,167.684 434,167.5C 453.802,163.838 473.635,160.505 493.5,157.5 Z"/></g>
<g><path style="opacity:1" fill="#82aee0" d="M 404.5,162.5 C 404.833,162.5 405.167,162.5 405.5,162.5C 406.568,163.434 407.901,163.768 409.5,163.5C 414.761,165.418 420.094,167.085 425.5,168.5C 419.754,170.22 413.754,171.22 407.5,171.5C 406.5,171.5 405.5,171.5 404.5,171.5C 404.5,171.167 404.5,170.833 404.5,170.5C 404.5,167.833 404.5,165.167 404.5,162.5 Z"/></g>
<g><path style="opacity:1" fill="#92bae0" d="M 425.5,168.5 C 427.435,169.15 429.435,169.483 431.5,169.5C 459.142,177.623 486.809,184.623 514.5,190.5C 517.069,193.961 519.403,197.628 521.5,201.5C 483.241,192.009 445.241,182.009 407.5,171.5C 413.754,171.22 419.754,170.22 425.5,168.5 Z"/></g>
<g><path style="opacity:1" fill="#6d87d1" d="M 396.5,169.5 C 399.127,170.092 401.794,170.425 404.5,170.5C 404.5,170.833 404.5,171.167 404.5,171.5C 404.5,204.167 404.5,236.833 404.5,269.5C 404.5,269.833 404.5,270.167 404.5,270.5C 394.756,273.304 385.089,276.304 375.5,279.5C 379.435,277.533 383.435,275.533 387.5,273.5C 390.406,272.213 393.406,271.213 396.5,270.5C 396.5,236.833 396.5,203.167 396.5,169.5 Z"/></g>
<g><path style="opacity:1" fill="#bbf4f0" d="M 404.5,171.5 C 405.5,171.5 406.5,171.5 407.5,171.5C 445.241,182.009 483.241,192.009 521.5,201.5C 526.167,208.833 530.833,216.167 535.5,223.5C 535.53,224.497 535.03,225.164 534,225.5C 490.839,240.247 447.672,254.914 404.5,269.5C 404.5,236.833 404.5,204.167 404.5,171.5 Z"/></g>
<g><path style="opacity:1" fill="#dad9d1" d="M 273.5,211.5 C 277.25,204.998 281.25,198.665 285.5,192.5C 286.265,192.923 287.098,193.257 288,193.5C 323.751,186.583 359.584,180.249 395.5,174.5C 395.5,204.833 395.5,235.167 395.5,265.5C 357.837,249.656 320.171,233.49 282.5,217C 279.248,215.434 276.248,213.601 273.5,211.5 Z"/></g>
<g><path style="opacity:1" fill="#455a62" d="M 278.5,186.5 C 273.679,195.473 268.346,204.14 262.5,212.5C 256.136,206.137 250.136,199.471 244.5,192.5C 255.812,190.371 267.145,188.371 278.5,186.5 Z"/></g>
<g><path style="opacity:1" fill="#544a51" d="M 231.5,191.5 C 240.506,200.506 249.173,209.84 257.5,219.5C 251.949,230.039 245.616,240.039 238.5,249.5C 234.916,232.996 231.249,216.496 227.5,200C 227.696,196.802 229.363,194.802 232.5,194C 231.748,193.329 231.414,192.496 231.5,191.5 Z"/></g>
<g><path style="opacity:1" fill="#26284f" d="M 527.5,195.5 C 541.576,198.519 555.576,201.852 569.5,205.5C 569.5,206.167 569.833,206.5 570.5,206.5C 568.763,208.55 566.763,210.383 564.5,212C 565.056,212.383 565.389,212.883 565.5,213.5C 555.274,210.425 544.94,207.758 534.5,205.5C 533.833,205.167 533.167,204.833 532.5,204.5C 531.099,201.366 529.432,198.366 527.5,195.5 Z"/></g>
<g><path style="opacity:1" fill="#141845" d="M 310.5,137.5 C 308.914,139.67 307.58,142.004 306.5,144.5C 306.167,144.5 305.833,144.5 305.5,144.5C 259.604,132.951 213.771,120.951 168,108.5C 167.5,108.833 167,109.167 166.5,109.5C 192.522,137.187 218.522,164.854 244.5,192.5C 250.136,199.471 256.136,206.137 262.5,212.5C 262.5,212.833 262.5,213.167 262.5,213.5C 260.808,215.205 259.475,217.205 258.5,219.5C 258.167,219.5 257.833,219.5 257.5,219.5C 249.173,209.84 240.506,200.506 231.5,191.5C 208.573,165.736 185.073,140.402 161,115.5C 170.054,168.156 179.221,220.823 188.5,273.5C 190.521,282.62 192.521,291.62 194.5,300.5C 194.685,305.57 195.352,310.57 196.5,315.5C 196.5,315.833 196.5,316.167 196.5,316.5C 194.154,319.871 191.821,323.204 189.5,326.5C 176.834,254.829 164.001,183.162 151,111.5C 150.095,107.181 149.762,102.848 150,98.5C 150.804,97.1955 151.971,96.5288 153.5,96.5C 205.713,110.637 258.047,124.303 310.5,137.5 Z"/></g>
<g><path style="opacity:1" fill="#1a1e50" d="M 570.5,206.5 C 573.327,206.584 575.994,207.25 578.5,208.5C 574.199,214.469 569.199,219.802 563.5,224.5C 558.743,226.18 554.077,227.847 549.5,229.5C 549.167,229.5 548.833,229.5 548.5,229.5C 547.431,227.031 546.098,224.698 544.5,222.5C 544.5,222.167 544.5,221.833 544.5,221.5C 552.455,219.764 560.121,217.264 567.5,214C 566.906,213.536 566.239,213.369 565.5,213.5C 565.389,212.883 565.056,212.383 564.5,212C 566.763,210.383 568.763,208.55 570.5,206.5 Z"/></g>
<g><path style="opacity:1" fill="#4f6262" d="M 534.5,205.5 C 544.94,207.758 555.274,210.425 565.5,213.5C 566.239,213.369 566.906,213.536 567.5,214C 560.121,217.264 552.455,219.764 544.5,221.5C 540.669,216.511 537.336,211.178 534.5,205.5 Z"/></g>
<g><path style="opacity:1" fill="#212c54" d="M 578.5,208.5 C 580.117,209.038 581.784,209.371 583.5,209.5C 585.453,210.244 586.453,211.744 586.5,214C 582.032,230.715 577.032,247.215 571.5,263.5C 569.147,261.14 567.147,258.473 565.5,255.5C 565.5,255.167 565.5,254.833 565.5,254.5C 569.535,243.709 573.202,232.709 576.5,221.5C 575.833,221.167 575.167,220.833 574.5,220.5C 570.718,221.689 567.051,223.023 563.5,224.5C 569.199,219.802 574.199,214.469 578.5,208.5 Z"/></g>
<g><path style="opacity:1" fill="#cacdd2" d="M 385.5,166.5 C 389.136,167.326 392.803,167.992 396.5,168.5C 396.5,168.833 396.5,169.167 396.5,169.5C 396.5,203.167 396.5,236.833 396.5,270.5C 393.406,271.213 390.406,272.213 387.5,273.5C 386.106,271.292 384.106,269.792 381.5,269C 345.803,253.483 310.136,237.983 274.5,222.5C 273.913,223.233 273.913,224.233 274.5,225.5C 272.167,223.833 270.167,221.833 268.5,219.5C 269.669,216.489 271.336,213.822 273.5,211.5C 276.248,213.601 279.248,215.434 282.5,217C 320.171,233.49 357.837,249.656 395.5,265.5C 395.5,235.167 395.5,204.833 395.5,174.5C 359.584,180.249 323.751,186.583 288,193.5C 287.098,193.257 286.265,192.923 285.5,192.5C 287.597,188.628 289.931,184.961 292.5,181.5C 292.791,182.649 293.624,183.316 295,183.5C 324.816,178.17 354.649,173.003 384.5,168C 385.056,167.617 385.389,167.117 385.5,166.5 Z"/></g>
<g><path style="opacity:1" fill="#6e88cf" d="M 521.5,201.5 C 525.223,202.347 528.889,203.347 532.5,204.5C 533.167,204.833 533.833,205.167 534.5,205.5C 537.336,211.178 540.669,216.511 544.5,221.5C 544.5,221.833 544.5,222.167 544.5,222.5C 541.779,222.963 539.112,223.629 536.5,224.5C 536.5,223.833 536.167,223.5 535.5,223.5C 530.833,216.167 526.167,208.833 521.5,201.5 Z"/></g>
<g><path style="opacity:1" fill="#3d4ac3" d="M 262.5,213.5 C 264.914,214.911 266.581,216.911 267.5,219.5C 266.529,221.483 265.529,223.483 264.5,225.5C 261.5,224.5 259.5,222.5 258.5,219.5C 259.475,217.205 260.808,215.205 262.5,213.5 Z"/></g>
<g><path style="opacity:1" fill="#53484f" d="M 221.5,277.5 C 218.65,281.199 216.317,285.199 214.5,289.5C 214.167,289.5 213.833,289.5 213.5,289.5C 211.878,275.223 209.045,261.223 205,247.5C 201.277,265.18 197.777,282.847 194.5,300.5C 192.521,291.62 190.521,282.62 188.5,273.5C 189.222,273.918 189.722,274.584 190,275.5C 193.713,258.602 197.046,241.602 200,224.5C 201.435,219.772 204.102,218.772 208,221.5C 211.794,238.138 215.461,254.805 219,271.5C 219.24,273.852 220.073,275.852 221.5,277.5 Z"/></g>
<g><path style="opacity:1" fill="#a89bc5" d="M 267.5,219.5 C 267.833,219.5 268.167,219.5 268.5,219.5C 270.167,221.833 272.167,223.833 274.5,225.5C 294.996,247.497 315.329,269.663 335.5,292C 342.487,291.179 349.154,289.179 355.5,286C 357.134,285.506 358.801,285.34 360.5,285.5C 350.575,290.127 340.575,294.793 330.5,299.5C 308.522,275.187 286.522,250.853 264.5,226.5C 264.5,226.167 264.5,225.833 264.5,225.5C 265.529,223.483 266.529,221.483 267.5,219.5 Z"/></g>
<g><path style="opacity:1" fill="#d1d6d6" d="M 387.5,273.5 C 383.435,275.533 379.435,277.533 375.5,279.5C 370.383,281.226 365.383,283.226 360.5,285.5C 358.801,285.34 357.134,285.506 355.5,286C 349.154,289.179 342.487,291.179 335.5,292C 315.329,269.663 294.996,247.497 274.5,225.5C 273.913,224.233 273.913,223.233 274.5,222.5C 310.136,237.983 345.803,253.483 381.5,269C 384.106,269.792 386.106,271.292 387.5,273.5 Z"/></g>
<g><path style="opacity:1" fill="#504e65" d="M 565.5,254.5 C 559.931,246.373 554.598,238.039 549.5,229.5C 554.077,227.847 558.743,226.18 563.5,224.5C 567.051,223.023 570.718,221.689 574.5,220.5C 575.167,220.833 575.833,221.167 576.5,221.5C 573.202,232.709 569.535,243.709 565.5,254.5 Z"/></g>
<g><path style="opacity:1" fill="#454ec0" d="M 544.5,222.5 C 546.098,224.698 547.431,227.031 548.5,229.5C 546.429,230.945 544.096,231.945 541.5,232.5C 539.833,229.833 538.167,227.167 536.5,224.5C 539.112,223.629 541.779,222.963 544.5,222.5 Z"/></g>
<g><path style="opacity:1" fill="#93badf" d="M 535.5,223.5 C 536.167,223.5 536.5,223.833 536.5,224.5C 538.167,227.167 539.833,229.833 541.5,232.5C 506.722,243.694 472.055,255.194 437.5,267C 430.445,269.243 423.779,272.077 417.5,275.5C 416.609,274.89 415.609,274.557 414.5,274.5C 411.397,272.616 408.063,271.282 404.5,270.5C 404.5,270.167 404.5,269.833 404.5,269.5C 447.672,254.914 490.839,240.247 534,225.5C 535.03,225.164 535.53,224.497 535.5,223.5 Z"/></g>
<g><path style="opacity:1" fill="#e3c6c4" d="M 264.5,226.5 C 286.522,250.853 308.522,275.187 330.5,299.5C 330.167,299.5 329.833,299.5 329.5,299.5C 305.5,310.167 281.5,320.833 257.5,331.5C 253.059,314.391 249.225,297.058 246,279.5C 244.46,273.498 242.627,267.832 240.5,262.5C 248.141,250.205 256.141,238.205 264.5,226.5 Z"/></g>
<g><path style="opacity:1" fill="#b1d1f0" d="M 541.5,233.5 C 543.4,235.619 545.066,237.953 546.5,240.5C 523.508,260.826 500.841,281.493 478.5,302.5C 478.167,302.5 477.833,302.5 477.5,302.5C 474.768,301.134 472.101,299.801 469.5,298.5C 493.48,276.855 517.48,255.189 541.5,233.5 Z"/></g>
<g><path style="opacity:1" fill="#c1ddef" d="M 541.5,232.5 C 541.5,232.833 541.5,233.167 541.5,233.5C 517.48,255.189 493.48,276.855 469.5,298.5C 451.961,291.213 434.628,283.546 417.5,275.5C 423.779,272.077 430.445,269.243 437.5,267C 472.055,255.194 506.722,243.694 541.5,232.5 Z"/></g>
<g><path style="opacity:1" fill="#212b53" d="M 617.5,293.5 C 617.5,294.5 617.5,295.5 617.5,296.5C 615.031,306.038 613.365,315.705 612.5,325.5C 610.616,304.29 608.449,282.957 606,261.5C 601.487,273.878 597.654,286.545 594.5,299.5C 594.167,299.5 593.833,299.5 593.5,299.5C 591.416,295.664 589.083,291.997 586.5,288.5C 587.5,288.5 588.5,288.5 589.5,288.5C 594.017,271.769 598.851,255.102 604,238.5C 606.587,235.966 609.253,235.966 612,238.5C 614.098,256.813 615.931,275.147 617.5,293.5 Z"/></g>
<g><path style="opacity:1" fill="#6e74d3" d="M 548.5,229.5 C 548.833,229.5 549.167,229.5 549.5,229.5C 554.598,238.039 559.931,246.373 565.5,254.5C 565.5,254.833 565.5,255.167 565.5,255.5C 564.36,258.368 563.36,261.368 562.5,264.5C 562.167,264.5 561.833,264.5 561.5,264.5C 556.5,256.5 551.5,248.5 546.5,240.5C 545.066,237.953 543.4,235.619 541.5,233.5C 541.5,233.167 541.5,232.833 541.5,232.5C 544.096,231.945 546.429,230.945 548.5,229.5 Z"/></g>
<g><path style="opacity:1" fill="#bde2f4" d="M 546.5,240.5 C 551.5,248.5 556.5,256.5 561.5,264.5C 555.85,286.122 549.35,307.455 542,328.5C 541.329,329.252 540.496,329.586 539.5,329.5C 519.045,320.772 498.711,311.772 478.5,302.5C 500.841,281.493 523.508,260.826 546.5,240.5 Z"/></g>
<g><path style="opacity:1" fill="#625450" d="M 213.5,289.5 C 208.317,298.545 202.651,307.212 196.5,315.5C 195.352,310.57 194.685,305.57 194.5,300.5C 197.777,282.847 201.277,265.18 205,247.5C 209.045,261.223 211.878,275.223 213.5,289.5 Z"/></g>
<g><path style="opacity:1" fill="#7672bf" d="M 257.5,219.5 C 257.833,219.5 258.167,219.5 258.5,219.5C 259.5,222.5 261.5,224.5 264.5,225.5C 264.5,225.833 264.5,226.167 264.5,226.5C 256.141,238.205 248.141,250.205 240.5,262.5C 234.5,272.167 228.5,281.833 222.5,291.5C 220.588,293.657 218.921,295.991 217.5,298.5C 216.883,298.389 216.383,298.056 216,297.5C 215.605,294.793 215.105,292.127 214.5,289.5C 216.317,285.199 218.65,281.199 221.5,277.5C 227.194,268.149 232.86,258.816 238.5,249.5C 245.616,240.039 251.949,230.039 257.5,219.5 Z"/></g>
<g><path style="opacity:1" fill="#8fbfe5" d="M 561.5,264.5 C 561.833,264.5 562.167,264.5 562.5,264.5C 564.234,268.3 566.234,271.966 568.5,275.5C 560.815,294.585 554.481,314.251 549.5,334.5C 547.287,333.227 544.954,332.227 542.5,331.5C 541.5,330.833 540.5,330.167 539.5,329.5C 540.496,329.586 541.329,329.252 542,328.5C 549.35,307.455 555.85,286.122 561.5,264.5 Z"/></g>
<g><path style="opacity:1" fill="#edcabf" d="M 240.5,262.5 C 242.627,267.832 244.46,273.498 246,279.5C 249.225,297.058 253.059,314.391 257.5,331.5C 249.723,335.389 241.723,338.722 233.5,341.5C 233.328,337.466 232.828,333.466 232,329.5C 229.281,316.745 226.115,304.078 222.5,291.5C 228.5,281.833 234.5,272.167 240.5,262.5 Z"/></g>
<g><path style="opacity:1" fill="#504f65" d="M 612.5,325.5 C 612.5,326.5 612.5,327.5 612.5,328.5C 606.253,319.009 600.253,309.342 594.5,299.5C 597.654,286.545 601.487,273.878 606,261.5C 608.449,282.957 610.616,304.29 612.5,325.5 Z"/></g>
<g><path style="opacity:1" fill="#3c4ac4" d="M 404.5,270.5 C 408.063,271.282 411.397,272.616 414.5,274.5C 411.167,276.167 407.833,277.833 404.5,279.5C 401.673,279.584 399.006,280.25 396.5,281.5C 396.157,279.775 395.157,279.275 393.5,280C 381.364,285.737 369.031,290.904 356.5,295.5C 352.531,296.66 348.531,297.827 344.5,299C 343.929,300.205 343.262,301.372 342.5,302.5C 337.62,305.107 332.62,307.44 327.5,309.5C 326.893,309.376 326.56,309.043 326.5,308.5C 327.784,305.598 328.784,302.598 329.5,299.5C 329.833,299.5 330.167,299.5 330.5,299.5C 340.575,294.793 350.575,290.127 360.5,285.5C 365.383,283.226 370.383,281.226 375.5,279.5C 385.089,276.304 394.756,273.304 404.5,270.5 Z"/></g>
<g><path style="opacity:1" fill="#6566d0" d="M 414.5,274.5 C 415.609,274.557 416.609,274.89 417.5,275.5C 434.628,283.546 451.961,291.213 469.5,298.5C 472.101,299.801 474.768,301.134 477.5,302.5C 476.915,305.28 476.581,307.946 476.5,310.5C 471.597,309.048 466.93,307.048 462.5,304.5C 444.284,296.225 425.95,288.225 407.5,280.5C 406.791,279.596 405.791,279.263 404.5,279.5C 407.833,277.833 411.167,276.167 414.5,274.5 Z"/></g>
<g><path style="opacity:1" fill="#b6f8f5" d="M 568.5,275.5 C 574.069,283.627 579.402,291.961 584.5,300.5C 581.693,310.798 578.86,321.131 576,331.5C 574.892,336.036 573.059,340.036 570.5,343.5C 563.582,340.305 556.582,337.305 549.5,334.5C 554.481,314.251 560.815,294.585 568.5,275.5 Z"/></g>
<g><path style="opacity:1" fill="#6b6fd5" d="M 404.5,279.5 C 404.5,308.167 404.5,336.833 404.5,365.5C 401.833,363.167 399.167,360.833 396.5,358.5C 396.5,357.833 396.5,357.167 396.5,356.5C 396.5,331.5 396.5,306.5 396.5,281.5C 399.006,280.25 401.673,279.584 404.5,279.5 Z"/></g>
<g><path style="opacity:1" fill="#c1b0f4" d="M 407.5,280.5 C 425.95,288.225 444.284,296.225 462.5,304.5C 443.916,322.244 425.083,339.911 406,357.5C 405.833,344.667 405.667,331.833 405.5,319C 405.501,305.815 406.167,292.982 407.5,280.5 Z"/></g>
<g><path style="opacity:1" fill="#9aa9f0" d="M 396.5,281.5 C 396.5,306.5 396.5,331.5 396.5,356.5C 395.504,356.586 394.671,356.252 394,355.5C 378,338.167 362,320.833 346,303.5C 345.383,302.551 345.549,301.718 346.5,301C 350.088,299.378 353.421,297.545 356.5,295.5C 369.031,290.904 381.364,285.737 393.5,280C 395.157,279.275 396.157,279.775 396.5,281.5 Z"/></g>
<g><path style="opacity:1" fill="#4052c3" d="M 565.5,255.5 C 567.147,258.473 569.147,261.14 571.5,263.5C 576.237,271.971 581.237,280.305 586.5,288.5C 589.083,291.997 591.416,295.664 593.5,299.5C 593.41,303.214 592.41,306.548 590.5,309.5C 588.467,306.477 586.467,303.477 584.5,300.5C 579.402,291.961 574.069,283.627 568.5,275.5C 566.234,271.966 564.234,268.3 562.5,264.5C 563.36,261.368 564.36,258.368 565.5,255.5 Z"/></g>
<g><path style="opacity:1" fill="#817abe" d="M 213.5,289.5 C 213.833,289.5 214.167,289.5 214.5,289.5C 215.105,292.127 215.605,294.793 216,297.5C 216.383,298.056 216.883,298.389 217.5,298.5C 217.167,299.167 216.833,299.833 216.5,300.5C 210.583,309.331 204.917,318.331 199.5,327.5C 199.167,327.5 198.833,327.5 198.5,327.5C 198.354,323.613 197.687,319.946 196.5,316.5C 196.5,316.167 196.5,315.833 196.5,315.5C 202.651,307.212 208.317,298.545 213.5,289.5 Z"/></g>
<g><path style="opacity:1" fill="#ddbebf" d="M 222.5,291.5 C 226.115,304.078 229.281,316.745 232,329.5C 232.828,333.466 233.328,337.466 233.5,341.5C 231.365,343.071 229.032,344.404 226.5,345.5C 223.898,330.23 220.565,315.23 216.5,300.5C 216.833,299.833 217.167,299.167 217.5,298.5C 218.921,295.991 220.588,293.657 222.5,291.5 Z"/></g>
<g><path style="opacity:1" fill="#7976c2" d="M 329.5,299.5 C 328.784,302.598 327.784,305.598 326.5,308.5C 325.662,308.842 325.328,309.508 325.5,310.5C 305.862,318.656 286.528,327.323 267.5,336.5C 264.314,337.597 261.314,338.93 258.5,340.5C 250.742,343.543 243.076,346.877 235.5,350.5C 232.52,351.323 229.853,352.657 227.5,354.5C 219.668,356.882 212.335,360.215 205.5,364.5C 205.167,364.5 204.833,364.5 204.5,364.5C 204.435,361.572 203.768,358.905 202.5,356.5C 202.5,355.833 202.833,355.5 203.5,355.5C 211.045,351.894 218.712,348.561 226.5,345.5C 229.032,344.404 231.365,343.071 233.5,341.5C 241.723,338.722 249.723,335.389 257.5,331.5C 281.5,320.833 305.5,310.167 329.5,299.5 Z"/></g>
<g><path style="opacity:1" fill="#8ebfe5" d="M 584.5,300.5 C 586.467,303.477 588.467,306.477 590.5,309.5C 590.833,310.167 591.167,310.833 591.5,311.5C 586.612,322.99 582.612,334.99 579.5,347.5C 576.318,346.406 573.318,345.072 570.5,343.5C 573.059,340.036 574.892,336.036 576,331.5C 578.86,321.131 581.693,310.798 584.5,300.5 Z"/></g>
<g><path style="opacity:1" fill="#151a4c" d="M 617.5,296.5 C 618.28,303.195 619.28,309.861 620.5,316.5C 621.011,325.158 621.344,333.825 621.5,342.5C 619.167,339.167 616.833,335.833 614.5,332.5C 613.833,331.167 613.167,329.833 612.5,328.5C 612.5,327.5 612.5,326.5 612.5,325.5C 613.365,315.705 615.031,306.038 617.5,296.5 Z"/></g>
<g><path style="opacity:1" fill="#6e73d3" d="M 593.5,299.5 C 593.833,299.5 594.167,299.5 594.5,299.5C 600.253,309.342 606.253,319.009 612.5,328.5C 613.167,329.833 613.833,331.167 614.5,332.5C 613.403,337.013 613.403,341.679 614.5,346.5C 611.589,343.01 608.922,339.344 606.5,335.5C 601.5,327.5 596.5,319.5 591.5,311.5C 591.167,310.833 590.833,310.167 590.5,309.5C 592.41,306.548 593.41,303.214 593.5,299.5 Z"/></g>
<g><path style="opacity:1" fill="#edcabf" d="M 216.5,300.5 C 220.565,315.23 223.898,330.23 226.5,345.5C 218.712,348.561 211.045,351.894 203.5,355.5C 201.701,346.241 200.368,336.907 199.5,327.5C 204.917,318.331 210.583,309.331 216.5,300.5 Z"/></g>
<g><path style="opacity:1" fill="#7177d5" d="M 477.5,302.5 C 477.833,302.5 478.167,302.5 478.5,302.5C 498.711,311.772 519.045,320.772 539.5,329.5C 540.5,330.167 541.5,330.833 542.5,331.5C 540.643,333.282 539.643,335.615 539.5,338.5C 539.167,338.5 538.833,338.5 538.5,338.5C 518.955,329.561 499.289,320.894 479.5,312.5C 478.5,311.833 477.5,311.167 476.5,310.5C 476.581,307.946 476.915,305.28 477.5,302.5 Z"/></g>
<g><path style="opacity:1" fill="#bba8f0" d="M 404.5,279.5 C 405.791,279.263 406.791,279.596 407.5,280.5C 406.167,292.982 405.501,305.815 405.5,319C 405.667,331.833 405.833,344.667 406,357.5C 425.083,339.911 443.916,322.244 462.5,304.5C 466.93,307.048 471.597,309.048 476.5,310.5C 477.5,311.167 478.5,311.833 479.5,312.5C 478.957,312.56 478.624,312.893 478.5,313.5C 489.98,346.778 501.146,380.111 512,413.5C 512.417,414.756 513.25,415.423 514.5,415.5C 514.296,417.685 513.63,419.685 512.5,421.5C 511.336,425.659 510.003,429.659 508.5,433.5C 508.662,431.473 508.495,429.473 508,427.5C 494.949,388.938 482.116,350.438 469.5,312C 468.833,311.333 468.167,311.333 467.5,312C 447.761,330.283 427.928,348.45 408,366.5C 407.517,367.448 407.351,368.448 407.5,369.5C 406.728,368.306 405.728,367.306 404.5,366.5C 404.5,366.167 404.5,365.833 404.5,365.5C 404.5,336.833 404.5,308.167 404.5,279.5 Z"/></g>
<g><path style="opacity:1" fill="#86a8ee" d="M 393.5,366.5 C 393.703,368.39 393.037,369.89 391.5,371C 363.867,395.631 336.534,420.631 309.5,446C 306.603,448.41 303.603,450.577 300.5,452.5C 293.329,448.749 286.329,444.749 279.5,440.5C 297.041,399.446 314.375,358.28 331.5,317C 332.855,313.123 334.855,309.623 337.5,306.5C 356.527,326.193 375.194,346.193 393.5,366.5 Z"/></g>
<g><path style="opacity:1" fill="#bce1f4" d="M 591.5,311.5 C 596.5,319.5 601.5,327.5 606.5,335.5C 605.407,341.467 604.24,347.467 603,353.5C 602.764,355.119 601.931,356.119 600.5,356.5C 593.38,353.773 586.38,350.773 579.5,347.5C 582.612,334.99 586.612,322.99 591.5,311.5 Z"/></g>
<g><path style="opacity:1" fill="#c7b1f4" d="M 508.5,433.5 C 506.873,439.091 505.54,444.758 504.5,450.5C 503.833,450.5 503.5,450.833 503.5,451.5C 498.817,453.863 494.15,456.196 489.5,458.5C 462.167,428.833 434.833,399.167 407.5,369.5C 407.351,368.448 407.517,367.448 408,366.5C 427.928,348.45 447.761,330.283 467.5,312C 468.167,311.333 468.833,311.333 469.5,312C 482.116,350.438 494.949,388.938 508,427.5C 508.495,429.473 508.662,431.473 508.5,433.5 Z"/></g>
<g><path style="opacity:1" fill="#a7b3df" d="M 325.5,310.5 C 311.53,342.392 297.864,374.392 284.5,406.5C 283.883,406.611 283.383,406.944 283,407.5C 277.289,383.688 272.122,360.021 267.5,336.5C 286.528,327.323 305.862,318.656 325.5,310.5 Z"/></g>
<g><path style="opacity:1" fill="#c6b8f4" d="M 479.5,312.5 C 499.289,320.894 518.955,329.561 538.5,338.5C 530.908,364.277 522.908,389.944 514.5,415.5C 513.25,415.423 512.417,414.756 512,413.5C 501.146,380.111 489.98,346.778 478.5,313.5C 478.624,312.893 478.957,312.56 479.5,312.5 Z"/></g>
<g><path style="opacity:1" fill="#454dbe" d="M 196.5,316.5 C 197.687,319.946 198.354,323.613 198.5,327.5C 196.683,331.801 194.35,335.801 191.5,339.5C 190.066,342.047 188.4,344.381 186.5,346.5C 186.389,345.883 186.056,345.383 185.5,345C 186.648,341.073 187.648,337.073 188.5,333C 188.472,331.93 188.139,331.097 187.5,330.5C 188.6,329.395 189.267,328.062 189.5,326.5C 191.821,323.204 194.154,319.871 196.5,316.5 Z"/></g>
<g><path style="opacity:1" fill="#3540bd" d="M 187.5,330.5 C 188.139,331.097 188.472,331.93 188.5,333C 187.648,337.073 186.648,341.073 185.5,345C 186.056,345.383 186.389,345.883 186.5,346.5C 182.315,353.694 177.981,360.861 173.5,368C 176.438,367.304 179.438,366.47 182.5,365.5C 182.938,365.435 183.272,365.601 183.5,366C 180.939,368.49 180.939,370.99 183.5,373.5C 179.601,375.417 175.601,377.251 171.5,379C 173.522,381.009 175.855,382.509 178.5,383.5C 178.435,386.428 177.768,389.095 176.5,391.5C 171.062,388.947 165.729,386.113 160.5,383C 158.876,381.883 157.876,380.383 157.5,378.5C 167.094,362.24 177.094,346.24 187.5,330.5 Z"/></g>
<g><path style="opacity:1" fill="#b39fc0" d="M 198.5,327.5 C 198.833,327.5 199.167,327.5 199.5,327.5C 200.368,336.907 201.701,346.241 203.5,355.5C 202.833,355.5 202.5,355.833 202.5,356.5C 200.079,356.878 197.746,357.545 195.5,358.5C 194.777,352.494 193.944,346.494 193,340.5C 192.617,339.944 192.117,339.611 191.5,339.5C 194.35,335.801 196.683,331.801 198.5,327.5 Z"/></g>
<g><path style="opacity:1" fill="#3541be" d="M 614.5,332.5 C 616.833,335.833 619.167,339.167 621.5,342.5C 628.837,354.51 636.171,366.51 643.5,378.5C 643.471,380.029 642.804,381.196 641.5,382C 636.662,384.697 631.995,387.53 627.5,390.5C 624.833,391.833 622.167,393.167 619.5,394.5C 619.167,394.5 618.833,394.5 618.5,394.5C 618.5,391.833 618.5,389.167 618.5,386.5C 618.5,386.167 618.5,385.833 618.5,385.5C 622.469,383.849 626.135,381.682 629.5,379C 625.593,376.879 621.593,375.045 617.5,373.5C 616.632,370.327 616.632,367.327 617.5,364.5C 620.799,366.385 624.132,367.385 627.5,367.5C 623.391,360.927 619.058,354.594 614.5,348.5C 614.5,347.833 614.5,347.167 614.5,346.5C 613.403,341.679 613.403,337.013 614.5,332.5 Z"/></g>
<g><path style="opacity:1" fill="#a1abdb" d="M 267.5,336.5 C 272.122,360.021 277.289,383.688 283,407.5C 283.383,406.944 283.883,406.611 284.5,406.5C 281.857,411.805 279.524,417.138 277.5,422.5C 273.607,404.201 269.773,385.868 266,367.5C 264.056,358.241 261.556,349.241 258.5,340.5C 261.314,338.93 264.314,337.597 267.5,336.5 Z"/></g>
<g><path style="opacity:1" fill="#b2d3f0" d="M 606.5,335.5 C 608.922,339.344 611.589,343.01 614.5,346.5C 614.5,347.167 614.5,347.833 614.5,348.5C 616.039,353.346 616.706,358.346 616.5,363.5C 611.833,361.833 607.167,360.167 602.5,358.5C 601.833,357.833 601.167,357.167 600.5,356.5C 601.931,356.119 602.764,355.119 603,353.5C 604.24,347.467 605.407,341.467 606.5,335.5 Z"/></g>
<g><path style="opacity:1" fill="#abb4dd" d="M 258.5,340.5 C 261.556,349.241 264.056,358.241 266,367.5C 269.773,385.868 273.607,404.201 277.5,422.5C 275.833,426.5 274.167,430.5 272.5,434.5C 271.262,435.412 269.928,435.579 268.5,435C 263.236,431.542 257.903,428.375 252.5,425.5C 247.464,400.314 241.797,375.314 235.5,350.5C 243.076,346.877 250.742,343.543 258.5,340.5 Z"/></g>
<g><path style="opacity:1" fill="#9996e5" d="M 538.5,338.5 C 538.833,338.5 539.167,338.5 539.5,338.5C 542.079,340.025 544.746,341.359 547.5,342.5C 546.503,342.47 545.836,342.97 545.5,344C 537.105,373.585 527.772,402.751 517.5,431.5C 517.409,427.46 516.242,423.793 514,420.5C 513.617,421.056 513.117,421.389 512.5,421.5C 513.63,419.685 514.296,417.685 514.5,415.5C 522.908,389.944 530.908,364.277 538.5,338.5 Z"/></g>
<g><path style="opacity:1" fill="#4153c5" d="M 542.5,331.5 C 544.954,332.227 547.287,333.227 549.5,334.5C 556.582,337.305 563.582,340.305 570.5,343.5C 573.318,345.072 576.318,346.406 579.5,347.5C 578.892,350.406 577.559,352.74 575.5,354.5C 573.5,353.833 571.5,353.167 569.5,352.5C 562.167,349.167 554.833,345.833 547.5,342.5C 544.746,341.359 542.079,340.025 539.5,338.5C 539.643,335.615 540.643,333.282 542.5,331.5 Z"/></g>
<g><path style="opacity:1" fill="#c6b8f4" d="M 547.5,342.5 C 554.833,345.833 562.167,349.167 569.5,352.5C 561.399,376.565 554.065,400.898 547.5,425.5C 536.763,432.225 525.763,438.558 514.5,444.5C 515.808,440.224 516.808,435.89 517.5,431.5C 527.772,402.751 537.105,373.585 545.5,344C 545.836,342.97 546.503,342.47 547.5,342.5 Z"/></g>
<g><path style="opacity:1" fill="#7177d5" d="M 579.5,347.5 C 586.38,350.773 593.38,353.773 600.5,356.5C 601.167,357.167 601.833,357.833 602.5,358.5C 600.552,360.32 599.552,362.654 599.5,365.5C 592.587,362.306 585.587,359.306 578.5,356.5C 577.5,355.833 576.5,355.167 575.5,354.5C 577.559,352.74 578.892,350.406 579.5,347.5 Z"/></g>
<g><path style="opacity:1" fill="#a1abdb" d="M 235.5,350.5 C 241.797,375.314 247.464,400.314 252.5,425.5C 249.807,424.153 247.14,422.82 244.5,421.5C 243.167,420.5 241.833,419.5 240.5,418.5C 241.156,417.378 241.489,416.045 241.5,414.5C 240.334,408.171 239.167,401.838 238,395.5C 235.252,381.504 231.752,367.838 227.5,354.5C 229.853,352.657 232.52,351.323 235.5,350.5 Z"/></g>
<g><path style="opacity:1" fill="#9996e5" d="M 569.5,352.5 C 571.5,353.167 573.5,353.833 575.5,354.5C 576.5,355.167 577.5,355.833 578.5,356.5C 576.665,357.122 575.498,358.456 575,360.5C 569.655,380.031 563.822,399.364 557.5,418.5C 557.624,419.107 557.957,419.44 558.5,419.5C 557.833,420.167 557.167,420.833 556.5,421.5C 553.5,422.833 550.5,424.167 547.5,425.5C 554.065,400.898 561.399,376.565 569.5,352.5 Z"/></g>
<g><path style="opacity:1" fill="#89b7e3" d="M 614.5,348.5 C 619.058,354.594 623.391,360.927 627.5,367.5C 624.132,367.385 620.799,366.385 617.5,364.5C 617.5,363.833 617.167,363.5 616.5,363.5C 616.706,358.346 616.039,353.346 614.5,348.5 Z"/></g>
<g><path style="opacity:1" fill="#b0b6da" d="M 227.5,354.5 C 231.752,367.838 235.252,381.504 238,395.5C 239.167,401.838 240.334,408.171 241.5,414.5C 241.489,416.045 241.156,417.378 240.5,418.5C 231.14,413.487 221.806,408.487 212.5,403.5C 212.167,402.833 211.833,402.167 211.5,401.5C 209.872,389.102 207.872,376.769 205.5,364.5C 212.335,360.215 219.668,356.882 227.5,354.5 Z"/></g>
<g><path style="opacity:1" fill="#e5c4bf" d="M 191.5,339.5 C 192.117,339.611 192.617,339.944 193,340.5C 193.944,346.494 194.777,352.494 195.5,358.5C 191.076,360.643 186.743,362.976 182.5,365.5C 179.438,366.47 176.438,367.304 173.5,368C 177.981,360.861 182.315,353.694 186.5,346.5C 188.4,344.381 190.066,342.047 191.5,339.5 Z"/></g>
<g><path style="opacity:1" fill="#454dbf" d="M 202.5,356.5 C 203.768,358.905 204.435,361.572 204.5,364.5C 201.256,365.463 198.256,366.796 195.5,368.5C 191.495,370.168 187.495,371.835 183.5,373.5C 180.939,370.99 180.939,368.49 183.5,366C 183.272,365.601 182.938,365.435 182.5,365.5C 186.743,362.976 191.076,360.643 195.5,358.5C 197.746,357.545 200.079,356.878 202.5,356.5 Z"/></g>
<g><path style="opacity:1" fill="#c6b8f4" d="M 578.5,356.5 C 585.587,359.306 592.587,362.306 599.5,365.5C 595.558,377.268 592.558,389.268 590.5,401.5C 589.833,401.5 589.5,401.833 589.5,402.5C 579.3,408.433 568.967,414.1 558.5,419.5C 557.957,419.44 557.624,419.107 557.5,418.5C 563.822,399.364 569.655,380.031 575,360.5C 575.498,358.456 576.665,357.122 578.5,356.5 Z"/></g>
<g><path style="opacity:1" fill="#6768d1" d="M 602.5,358.5 C 607.167,360.167 611.833,361.833 616.5,363.5C 617.167,363.5 617.5,363.833 617.5,364.5C 616.632,367.327 616.632,370.327 617.5,373.5C 611.5,370.833 605.5,368.167 599.5,365.5C 599.552,362.654 600.552,360.32 602.5,358.5 Z"/></g>
<g><path style="opacity:1" fill="#3845c1" d="M 396.5,358.5 C 399.167,360.833 401.833,363.167 404.5,365.5C 404.5,365.833 404.5,366.167 404.5,366.5C 404.5,370.167 404.5,373.833 404.5,377.5C 401.833,375.167 399.167,372.833 396.5,370.5C 396.5,369.833 396.5,369.167 396.5,368.5C 396.5,365.167 396.5,361.833 396.5,358.5 Z"/></g>
<g><path style="opacity:1" fill="#809fe9" d="M 393.5,366.5 C 394.222,367.551 395.222,368.218 396.5,368.5C 396.5,369.167 396.5,369.833 396.5,370.5C 396.5,411.833 396.5,453.167 396.5,494.5C 396.5,494.833 396.5,495.167 396.5,495.5C 396.167,495.5 395.833,495.5 395.5,495.5C 395.667,456.499 395.5,417.499 395,378.5C 365.971,404.699 337.138,431.033 308.5,457.5C 305.46,456.32 302.794,454.653 300.5,452.5C 303.603,450.577 306.603,448.41 309.5,446C 336.534,420.631 363.867,395.631 391.5,371C 393.037,369.89 393.703,368.39 393.5,366.5 Z"/></g>
<g><path style="opacity:1" fill="#768adb" d="M 204.5,364.5 C 204.833,364.5 205.167,364.5 205.5,364.5C 207.872,376.769 209.872,389.102 211.5,401.5C 207.849,400.341 204.515,398.674 201.5,396.5C 201.627,387.558 200.461,378.558 198,369.5C 197.329,368.748 196.496,368.414 195.5,368.5C 198.256,366.796 201.256,365.463 204.5,364.5 Z"/></g>
<g><path style="opacity:1" fill="#988ee4" d="M 404.5,366.5 C 405.728,367.306 406.728,368.306 407.5,369.5C 434.833,399.167 462.167,428.833 489.5,458.5C 489.5,458.833 489.5,459.167 489.5,459.5C 487.5,460.5 485.5,461.5 483.5,462.5C 483.167,462.5 482.833,462.5 482.5,462.5C 456.839,434.173 430.839,406.173 404.5,378.5C 404.5,378.167 404.5,377.833 404.5,377.5C 404.5,373.833 404.5,370.167 404.5,366.5 Z"/></g>
<g><path style="opacity:1" fill="#c2adf2" d="M 599.5,365.5 C 605.5,368.167 611.5,370.833 617.5,373.5C 618.162,377.466 618.495,381.466 618.5,385.5C 618.5,385.833 618.5,386.167 618.5,386.5C 609.184,391.471 599.85,396.471 590.5,401.5C 592.558,389.268 595.558,377.268 599.5,365.5 Z"/></g>
<g><path style="opacity:1" fill="#8da8e9" d="M 195.5,368.5 C 196.496,368.414 197.329,368.748 198,369.5C 200.461,378.558 201.627,387.558 201.5,396.5C 193.671,392.42 186.004,388.087 178.5,383.5C 175.855,382.509 173.522,381.009 171.5,379C 175.601,377.251 179.601,375.417 183.5,373.5C 187.495,371.835 191.495,370.168 195.5,368.5 Z"/></g>
<g><path style="opacity:1" fill="#6c87e0" d="M 356.5,295.5 C 353.421,297.545 350.088,299.378 346.5,301C 345.549,301.718 345.383,302.551 346,303.5C 362,320.833 378,338.167 394,355.5C 394.671,356.252 395.504,356.586 396.5,356.5C 396.5,357.167 396.5,357.833 396.5,358.5C 396.5,361.833 396.5,365.167 396.5,368.5C 395.222,368.218 394.222,367.551 393.5,366.5C 375.194,346.193 356.527,326.193 337.5,306.5C 334.855,309.623 332.855,313.123 331.5,317C 314.375,358.28 297.041,399.446 279.5,440.5C 279.167,440.5 278.833,440.5 278.5,440.5C 276.463,439.154 274.463,437.82 272.5,436.5C 272.5,435.833 272.5,435.167 272.5,434.5C 274.167,430.5 275.833,426.5 277.5,422.5C 279.524,417.138 281.857,411.805 284.5,406.5C 297.864,374.392 311.53,342.392 325.5,310.5C 325.328,309.508 325.662,308.842 326.5,308.5C 326.56,309.043 326.893,309.376 327.5,309.5C 332.62,307.44 337.62,305.107 342.5,302.5C 343.262,301.372 343.929,300.205 344.5,299C 348.531,297.827 352.531,296.66 356.5,295.5 Z"/></g>
<g><path style="opacity:1" fill="#5c6dd3" d="M 396.5,370.5 C 399.167,372.833 401.833,375.167 404.5,377.5C 404.5,377.833 404.5,378.167 404.5,378.5C 404.5,416.833 404.5,455.167 404.5,493.5C 401.873,494.092 399.206,494.425 396.5,494.5C 396.5,453.167 396.5,411.833 396.5,370.5 Z"/></g>
<g><path style="opacity:1" fill="#948ae2" d="M 617.5,373.5 C 621.593,375.045 625.593,376.879 629.5,379C 626.135,381.682 622.469,383.849 618.5,385.5C 618.495,381.466 618.162,377.466 617.5,373.5 Z"/></g>
<g><path style="opacity:1" fill="#8ca9ee" d="M 395.5,495.5 C 390.905,496.815 386.239,497.815 381.5,498.5C 357.032,485.099 332.699,471.432 308.5,457.5C 337.138,431.033 365.971,404.699 395,378.5C 395.5,417.499 395.667,456.499 395.5,495.5 Z"/></g>
<g><path style="opacity:1" fill="#444cbd" d="M 178.5,383.5 C 186.004,388.087 193.671,392.42 201.5,396.5C 204.515,398.674 207.849,400.341 211.5,401.5C 211.833,402.167 212.167,402.833 212.5,403.5C 213.159,406.455 213.492,409.455 213.5,412.5C 210.605,411.601 207.938,410.267 205.5,408.5C 196.634,403.234 187.634,398.234 178.5,393.5C 177.833,392.833 177.167,392.167 176.5,391.5C 177.768,389.095 178.435,386.428 178.5,383.5 Z"/></g>
<g><path style="opacity:1" fill="#b2aef2" d="M 404.5,378.5 C 430.839,406.173 456.839,434.173 482.5,462.5C 471.5,469.167 460.5,475.833 449.5,482.5C 447.716,482.893 446.05,483.559 444.5,484.5C 431.124,487.177 417.791,490.177 404.5,493.5C 404.5,455.167 404.5,416.833 404.5,378.5 Z"/></g>
<g><path style="opacity:1" fill="#6868d0" d="M 618.5,386.5 C 618.5,389.167 618.5,391.833 618.5,394.5C 611.167,399.167 603.833,403.833 596.5,408.5C 594.046,409.227 591.713,410.227 589.5,411.5C 588.414,411.38 587.747,410.713 587.5,409.5C 588.467,407.238 589.134,404.905 589.5,402.5C 589.5,401.833 589.833,401.5 590.5,401.5C 599.85,396.471 609.184,391.471 618.5,386.5 Z"/></g>
<g><path style="opacity:1" fill="#161313" d="M 178.5,393.5 C 187.634,398.234 196.634,403.234 205.5,408.5C 206.723,417.007 208.057,425.507 209.5,434C 209.486,435.385 209.152,436.551 208.5,437.5C 196.671,431.086 185.004,424.42 173.5,417.5C 173.746,411.098 174.58,404.765 176,398.5C 176.099,396.347 176.933,394.681 178.5,393.5 Z"/></g>
<g><path style="opacity:1" fill="#484059" d="M 618.5,394.5 C 618.833,394.5 619.167,394.5 619.5,394.5C 620.431,403.144 621.098,411.811 621.5,420.5C 610.763,427.225 599.763,433.558 588.5,439.5C 590.697,429.045 593.364,418.712 596.5,408.5C 603.833,403.833 611.167,399.167 618.5,394.5 Z"/></g>
<g><path style="opacity:1" fill="#131744" d="M 627.5,390.5 C 627.918,399.042 628.918,407.376 630.5,415.5C 627.869,417.153 625.203,418.819 622.5,420.5C 622.167,420.5 621.833,420.5 621.5,420.5C 621.098,411.811 620.431,403.144 619.5,394.5C 622.167,393.167 624.833,391.833 627.5,390.5 Z"/></g>
<g><path style="opacity:1" fill="#8079be" d="M 212.5,403.5 C 221.806,408.487 231.14,413.487 240.5,418.5C 241.833,419.5 243.167,420.5 244.5,421.5C 243.449,424.344 243.449,427.344 244.5,430.5C 234.5,424.833 224.5,419.167 214.5,413.5C 213.833,413.5 213.5,413.167 213.5,412.5C 213.492,409.455 213.159,406.455 212.5,403.5 Z"/></g>
<g><path style="opacity:1" fill="#7076d4" d="M 589.5,402.5 C 589.134,404.905 588.467,407.238 587.5,409.5C 587.747,410.713 588.414,411.38 589.5,411.5C 588.71,412.401 587.71,413.068 586.5,413.5C 575.833,419.5 565.167,425.5 554.5,431.5C 555.167,428.167 555.833,424.833 556.5,421.5C 557.167,420.833 557.833,420.167 558.5,419.5C 568.967,414.1 579.3,408.433 589.5,402.5 Z"/></g>
<g><path style="opacity:1" fill="#474062" d="M 596.5,408.5 C 593.364,418.712 590.697,429.045 588.5,439.5C 585.506,442 582.173,444 578.5,445.5C 580.542,434.664 583.209,423.998 586.5,413.5C 587.71,413.068 588.71,412.401 589.5,411.5C 591.713,410.227 594.046,409.227 596.5,408.5 Z"/></g>
<g><path style="opacity:1" fill="#3340bb" d="M 172.5,417.5 C 172.022,422.727 171.022,427.727 169.5,432.5C 167.397,429.28 165.064,426.28 162.5,423.5C 161.252,421.351 159.752,419.351 158,417.5C 157.175,415.299 157.675,413.466 159.5,412C 164.478,412.151 168.811,413.985 172.5,417.5 Z"/></g>
<g><path style="opacity:1" fill="#3440bd" d="M 631.5,433.5 C 629.167,436.167 626.833,438.833 624.5,441.5C 623.348,434.691 622.681,427.691 622.5,420.5C 625.203,418.819 627.869,417.153 630.5,415.5C 633.29,414.021 636.123,412.688 639,411.5C 641.601,411.601 643.101,412.935 643.5,415.5C 639.494,421.518 635.494,427.518 631.5,433.5 Z"/></g>
<g><path style="opacity:1" fill="#635451" d="M 214.5,413.5 C 224.5,419.167 234.5,424.833 244.5,430.5C 245.167,430.5 245.5,430.833 245.5,431.5C 247.775,441.74 249.775,452.073 251.5,462.5C 241.327,456.579 230.994,450.913 220.5,445.5C 220.167,444.833 219.833,444.167 219.5,443.5C 217.83,433.469 216.163,423.469 214.5,413.5 Z"/></g>
<g><path style="opacity:1" fill="#525167" d="M 586.5,413.5 C 583.209,423.998 580.542,434.664 578.5,445.5C 578.5,446.167 578.167,446.5 577.5,446.5C 566.167,453.167 554.833,459.833 543.5,466.5C 545.905,454.877 549.238,443.544 553.5,432.5C 553.5,431.833 553.833,431.5 554.5,431.5C 565.167,425.5 575.833,419.5 586.5,413.5 Z"/></g>
<g><path style="opacity:1" fill="#444cbd" d="M 172.5,417.5 C 172.833,417.5 173.167,417.5 173.5,417.5C 185.004,424.42 196.671,431.086 208.5,437.5C 211.646,440.244 215.313,442.244 219.5,443.5C 219.833,444.167 220.167,444.833 220.5,445.5C 221.112,448.696 221.112,451.696 220.5,454.5C 218.33,452.914 215.996,451.58 213.5,450.5C 201.532,443.309 189.532,436.476 177.5,430C 191.049,447.376 204.383,464.876 217.5,482.5C 221.178,487.206 224.844,491.872 228.5,496.5C 229.167,497.833 229.833,499.167 230.5,500.5C 231.124,505.018 231.124,509.352 230.5,513.5C 228.183,509.854 225.516,506.52 222.5,503.5C 205.884,479.924 188.551,456.924 170.5,434.5C 170.167,433.833 169.833,433.167 169.5,432.5C 171.022,427.727 172.022,422.727 172.5,417.5 Z"/></g>
<g><path style="opacity:1" fill="#27284f" d="M 205.5,408.5 C 207.938,410.267 210.605,411.601 213.5,412.5C 213.5,413.167 213.833,413.5 214.5,413.5C 216.163,423.469 217.83,433.469 219.5,443.5C 215.313,442.244 211.646,440.244 208.5,437.5C 209.152,436.551 209.486,435.385 209.5,434C 208.057,425.507 206.723,417.007 205.5,408.5 Z"/></g>
<g><path style="opacity:1" fill="#050611" d="M 162.5,423.5 C 165.064,426.28 167.397,429.28 169.5,432.5C 169.833,433.167 170.167,433.833 170.5,434.5C 167.48,445.578 164.98,456.912 163,468.5C 154.598,512.838 146.598,557.172 139,601.5C 167.333,575.5 195.667,549.5 224,523.5C 224.494,521.866 224.66,520.199 224.5,518.5C 225.617,522.295 226.283,526.295 226.5,530.5C 223.147,535.366 219.147,539.866 214.5,544C 191.5,565 168.5,586 145.5,607C 194.183,603.287 242.849,599.12 291.5,594.5C 291.5,595.167 291.833,595.5 292.5,595.5C 294.412,597.657 296.079,599.991 297.5,602.5C 243.443,606.839 189.443,611.839 135.5,617.5C 133.241,617.468 131.075,617.134 129,616.5C 128.668,611.146 129.001,605.813 130,600.5C 141.674,541.63 152.508,482.63 162.5,423.5 Z"/></g>
<g><path style="opacity:1" fill="#9087e1" d="M 517.5,431.5 C 516.808,435.89 515.808,440.224 514.5,444.5C 511.451,446.863 508.118,448.863 504.5,450.5C 505.54,444.758 506.873,439.091 508.5,433.5C 510.003,429.659 511.336,425.659 512.5,421.5C 513.117,421.389 513.617,421.056 514,420.5C 516.242,423.793 517.409,427.46 517.5,431.5 Z"/></g>
<g><path style="opacity:1" fill="#7571be" d="M 244.5,421.5 C 247.14,422.82 249.807,424.153 252.5,425.5C 257.903,428.375 263.236,431.542 268.5,435C 269.928,435.579 271.262,435.412 272.5,434.5C 272.5,435.167 272.5,435.833 272.5,436.5C 270.441,438.266 269.107,440.599 268.5,443.5C 260.703,439.768 253.036,435.768 245.5,431.5C 245.5,430.833 245.167,430.5 244.5,430.5C 243.449,427.344 243.449,424.344 244.5,421.5 Z"/></g>
<g><path style="opacity:1" fill="#54484e" d="M 245.5,431.5 C 253.036,435.768 260.703,439.768 268.5,443.5C 268.5,443.833 268.5,444.167 268.5,444.5C 264.973,451.749 261.64,459.083 258.5,466.5C 255.996,465.416 253.663,464.083 251.5,462.5C 249.775,452.073 247.775,441.74 245.5,431.5 Z"/></g>
<g><path style="opacity:1" fill="#6868d0" d="M 621.5,420.5 C 621.833,420.5 622.167,420.5 622.5,420.5C 622.681,427.691 623.348,434.691 624.5,441.5C 624.5,441.833 624.5,442.167 624.5,442.5C 601.789,471.878 579.456,501.545 557.5,531.5C 557.167,531.5 556.833,531.5 556.5,531.5C 555.308,529.122 553.641,527.122 551.5,525.5C 551.5,525.167 551.5,524.833 551.5,524.5C 554.409,521.019 557.075,517.352 559.5,513.5C 564.85,507.478 569.85,501.145 574.5,494.5C 590.668,473.494 606.668,452.327 622.5,431C 609.466,437.355 596.799,444.522 584.5,452.5C 581.86,453.82 579.193,455.153 576.5,456.5C 575.876,456.083 575.543,455.416 575.5,454.5C 576.171,451.815 576.838,449.148 577.5,446.5C 578.167,446.5 578.5,446.167 578.5,445.5C 582.173,444 585.506,442 588.5,439.5C 599.763,433.558 610.763,427.225 621.5,420.5 Z"/></g>
<g><path style="opacity:1" fill="#404fc2" d="M 556.5,421.5 C 555.833,424.833 555.167,428.167 554.5,431.5C 553.833,431.5 553.5,431.833 553.5,432.5C 549.136,434.344 545.136,436.677 541.5,439.5C 535.835,441.997 530.502,444.997 525.5,448.5C 520.517,451.138 515.517,453.805 510.5,456.5C 507.661,458.42 504.661,460.087 501.5,461.5C 500.957,461.44 500.624,461.107 500.5,460.5C 501.705,457.55 502.705,454.55 503.5,451.5C 503.5,450.833 503.833,450.5 504.5,450.5C 508.118,448.863 511.451,446.863 514.5,444.5C 525.763,438.558 536.763,432.225 547.5,425.5C 550.5,424.167 553.5,422.833 556.5,421.5 Z"/></g>
<g><path style="opacity:1" fill="#222c54" d="M 553.5,432.5 C 549.238,443.544 545.905,454.877 543.5,466.5C 542.833,466.5 542.5,466.833 542.5,467.5C 539.5,468.833 536.5,470.167 533.5,471.5C 535.805,460.778 538.805,450.278 542.5,440C 542.272,439.601 541.938,439.435 541.5,439.5C 545.136,436.677 549.136,434.344 553.5,432.5 Z"/></g>
<g><path style="opacity:1" fill="#151211" d="M 170.5,434.5 C 188.551,456.924 205.884,479.924 222.5,503.5C 223.538,508.436 224.205,513.436 224.5,518.5C 224.66,520.199 224.494,521.866 224,523.5C 195.667,549.5 167.333,575.5 139,601.5C 146.598,557.172 154.598,512.838 163,468.5C 164.98,456.912 167.48,445.578 170.5,434.5 Z"/></g>
<g><path style="opacity:1" fill="#c6b0f3" d="M 574.5,494.5 C 573.957,494.44 573.624,494.107 573.5,493.5C 577.324,479.869 580.991,466.202 584.5,452.5C 596.799,444.522 609.466,437.355 622.5,431C 606.668,452.327 590.668,473.494 574.5,494.5 Z"/></g>
<g><path style="opacity:1" fill="#3743be" d="M 272.5,436.5 C 274.463,437.82 276.463,439.154 278.5,440.5C 277.736,443.018 276.736,445.351 275.5,447.5C 273.046,446.773 270.713,445.773 268.5,444.5C 268.5,444.167 268.5,443.833 268.5,443.5C 269.107,440.599 270.441,438.266 272.5,436.5 Z"/></g>
<g><path style="opacity:1" fill="#121819" d="M 541.5,439.5 C 541.938,439.435 542.272,439.601 542.5,440C 538.805,450.278 535.805,460.778 533.5,471.5C 533.158,472.338 532.492,472.672 531.5,472.5C 529.749,464.993 527.415,457.66 524.5,450.5C 524.863,449.817 525.196,449.15 525.5,448.5C 530.502,444.997 535.835,441.997 541.5,439.5 Z"/></g>
<g><path style="opacity:1" fill="#e9c7bf" d="M 213.5,450.5 C 214.524,460.598 216.19,470.598 218.5,480.5C 218.457,481.416 218.124,482.083 217.5,482.5C 204.383,464.876 191.049,447.376 177.5,430C 189.532,436.476 201.532,443.309 213.5,450.5 Z"/></g>
<g><path style="opacity:1" fill="#473f58" d="M 624.5,442.5 C 630.269,501.354 636.269,560.188 642.5,619C 642.167,620.167 641.833,621.333 641.5,622.5C 613.478,592.146 585.478,561.813 557.5,531.5C 579.456,501.545 601.789,471.878 624.5,442.5 Z"/></g>
<g><path style="opacity:1" fill="#8079be" d="M 220.5,445.5 C 230.994,450.913 241.327,456.579 251.5,462.5C 253.663,464.083 255.996,465.416 258.5,466.5C 258.5,466.833 258.5,467.167 258.5,467.5C 256.935,469.509 255.935,471.843 255.5,474.5C 255.167,474.5 254.833,474.5 254.5,474.5C 244.338,468.251 234.005,462.251 223.5,456.5C 222.5,455.833 221.5,455.167 220.5,454.5C 221.112,451.696 221.112,448.696 220.5,445.5 Z"/></g>
<g><path style="opacity:1" fill="#313d57" d="M 275.5,448.5 C 278.634,449.901 281.634,451.568 284.5,453.5C 286.274,459.104 288.274,464.604 290.5,470C 308.915,476.083 327.248,482.249 345.5,488.5C 353.483,492.805 361.483,497.138 369.5,501.5C 357.385,504.608 345.052,507.275 332.5,509.5C 310.166,497.335 288.166,484.669 266.5,471.5C 268.669,463.497 271.669,455.83 275.5,448.5 Z"/></g>
<g><path style="opacity:1" fill="#b29ec0" d="M 213.5,450.5 C 215.996,451.58 218.33,452.914 220.5,454.5C 221.5,455.167 222.5,455.833 223.5,456.5C 222.861,457.097 222.528,457.93 222.5,459C 225.386,471.366 227.386,483.866 228.5,496.5C 224.844,491.872 221.178,487.206 217.5,482.5C 218.124,482.083 218.457,481.416 218.5,480.5C 216.19,470.598 214.524,460.598 213.5,450.5 Z"/></g>
<g><path style="opacity:1" fill="#7177d4" d="M 577.5,446.5 C 576.838,449.148 576.171,451.815 575.5,454.5C 575.543,455.416 575.876,456.083 576.5,456.5C 575.5,457.167 574.5,457.833 573.5,458.5C 562.663,465.086 551.663,471.419 540.5,477.5C 540.547,474.031 541.213,470.698 542.5,467.5C 542.5,466.833 542.833,466.5 543.5,466.5C 554.833,459.833 566.167,453.167 577.5,446.5 Z"/></g>
<g><path style="opacity:1" fill="#333e61" d="M 284.5,453.5 C 305.032,464.929 325.365,476.596 345.5,488.5C 327.248,482.249 308.915,476.083 290.5,470C 288.274,464.604 286.274,459.104 284.5,453.5 Z"/></g>
<g><path style="opacity:1" fill="#6f6dd3" d="M 503.5,451.5 C 502.705,454.55 501.705,457.55 500.5,460.5C 500.624,461.107 500.957,461.44 501.5,461.5C 499.537,462.82 497.537,464.154 495.5,465.5C 494.5,462.5 492.5,460.5 489.5,459.5C 489.5,459.167 489.5,458.833 489.5,458.5C 494.15,456.196 498.817,453.863 503.5,451.5 Z"/></g>
<g><path style="opacity:1" fill="#110f17" d="M 525.5,448.5 C 525.196,449.15 524.863,449.817 524.5,450.5C 527.415,457.66 529.749,464.993 531.5,472.5C 507.029,487.908 482.029,502.575 456.5,516.5C 451.076,517.07 445.743,518.07 440.5,519.5C 432.502,516.057 424.169,513.391 415.5,511.5C 426.67,504.078 438.337,497.411 450.5,491.5C 467.83,487.167 485.164,482.834 502.5,478.5C 505.167,471.164 507.834,463.83 510.5,456.5C 515.517,453.805 520.517,451.138 525.5,448.5 Z"/></g>
<g><path style="opacity:1" fill="#baa8ef" d="M 584.5,452.5 C 580.991,466.202 577.324,479.869 573.5,493.5C 573.624,494.107 573.957,494.44 574.5,494.5C 569.85,501.145 564.85,507.478 559.5,513.5C 564.502,495.486 569.502,477.486 574.5,459.5C 574.376,458.893 574.043,458.56 573.5,458.5C 574.5,457.833 575.5,457.167 576.5,456.5C 579.193,455.153 581.86,453.82 584.5,452.5 Z"/></g>
<g><path style="opacity:1" fill="#151946" d="M 268.5,444.5 C 270.713,445.773 273.046,446.773 275.5,447.5C 275.5,447.833 275.5,448.167 275.5,448.5C 271.669,455.83 268.669,463.497 266.5,471.5C 266.167,471.5 265.833,471.5 265.5,471.5C 263.337,469.917 261.004,468.584 258.5,467.5C 258.5,467.167 258.5,466.833 258.5,466.5C 261.64,459.083 264.973,451.749 268.5,444.5 Z"/></g>
<g><path style="opacity:1" fill="#232655" d="M 510.5,456.5 C 507.834,463.83 505.167,471.164 502.5,478.5C 485.164,482.834 467.83,487.167 450.5,491.5C 458,486.582 465.667,481.916 473.5,477.5C 474.391,476.89 475.391,476.557 476.5,476.5C 481.759,475.936 486.759,474.603 491.5,472.5C 490.812,471.145 489.812,470.145 488.5,469.5C 488.5,469.167 488.5,468.833 488.5,468.5C 490.954,467.773 493.287,466.773 495.5,465.5C 497.537,464.154 499.537,462.82 501.5,461.5C 504.661,460.087 507.661,458.42 510.5,456.5 Z"/></g>
<g><path style="opacity:1" fill="#c6b8f4" d="M 573.5,458.5 C 574.043,458.56 574.376,458.893 574.5,459.5C 569.502,477.486 564.502,495.486 559.5,513.5C 557.075,517.352 554.409,521.019 551.5,524.5C 549.833,523.5 548.5,522.167 547.5,520.5C 544.35,510.588 541.183,500.588 538,490.5C 537.505,488.527 537.338,486.527 537.5,484.5C 538.038,482.883 538.371,481.216 538.5,479.5C 538.833,478.5 539.5,477.833 540.5,477.5C 551.663,471.419 562.663,465.086 573.5,458.5 Z"/></g>
<g><path style="opacity:1" fill="#ecc9bf" d="M 223.5,456.5 C 234.005,462.251 244.338,468.251 254.5,474.5C 251.017,483.473 247.517,492.473 244,501.5C 242.643,504.898 240.81,507.898 238.5,510.5C 236.183,506.854 233.516,503.52 230.5,500.5C 229.833,499.167 229.167,497.833 228.5,496.5C 227.386,483.866 225.386,471.366 222.5,459C 222.528,457.93 222.861,457.097 223.5,456.5 Z"/></g>
<g><path style="opacity:1" fill="#424bc3" d="M 489.5,459.5 C 492.5,460.5 494.5,462.5 495.5,465.5C 493.287,466.773 490.954,467.773 488.5,468.5C 486.086,467.089 484.419,465.089 483.5,462.5C 485.5,461.5 487.5,460.5 489.5,459.5 Z"/></g>
<g><path style="opacity:1" fill="#5d6cd2" d="M 482.5,462.5 C 482.833,462.5 483.167,462.5 483.5,462.5C 484.419,465.089 486.086,467.089 488.5,468.5C 488.5,468.833 488.5,469.167 488.5,469.5C 484.164,471.332 480.164,473.665 476.5,476.5C 475.391,476.557 474.391,476.89 473.5,477.5C 465.428,478.955 457.428,480.622 449.5,482.5C 460.5,475.833 471.5,469.167 482.5,462.5 Z"/></g>
<g><path style="opacity:1" fill="#3843bf" d="M 258.5,467.5 C 261.004,468.584 263.337,469.917 265.5,471.5C 264.067,473.558 263.4,475.892 263.5,478.5C 260.515,477.674 257.849,476.341 255.5,474.5C 255.935,471.843 256.935,469.509 258.5,467.5 Z"/></g>
<g><path style="opacity:1" fill="#3c4465" d="M 488.5,469.5 C 489.812,470.145 490.812,471.145 491.5,472.5C 486.759,474.603 481.759,475.936 476.5,476.5C 480.164,473.665 484.164,471.332 488.5,469.5 Z"/></g>
<g><path style="opacity:1" fill="#5266cf" d="M 265.5,471.5 C 265.833,471.5 266.167,471.5 266.5,471.5C 288.166,484.669 310.166,497.335 332.5,509.5C 332.5,509.833 332.5,510.167 332.5,510.5C 328.975,511.21 325.642,512.21 322.5,513.5C 321.833,513.167 321.167,512.833 320.5,512.5C 301.664,501.247 282.664,490.247 263.5,479.5C 263.5,479.167 263.5,478.833 263.5,478.5C 263.4,475.892 264.067,473.558 265.5,471.5 Z"/></g>
<g><path style="opacity:1" fill="#ab9ac0" d="M 254.5,474.5 C 254.833,474.5 255.167,474.5 255.5,474.5C 257.849,476.341 260.515,477.674 263.5,478.5C 263.5,478.833 263.5,479.167 263.5,479.5C 261.665,480.122 260.498,481.456 260,483.5C 256.518,492.471 253.018,501.471 249.5,510.5C 247.639,512.888 246.306,515.554 245.5,518.5C 245.167,518.5 244.833,518.5 244.5,518.5C 243.2,515.568 241.2,513.234 238.5,511.5C 238.5,511.167 238.5,510.833 238.5,510.5C 240.81,507.898 242.643,504.898 244,501.5C 247.517,492.473 251.017,483.473 254.5,474.5 Z"/></g>
<g><path style="opacity:1" fill="#5366ce" d="M 278.5,440.5 C 278.833,440.5 279.167,440.5 279.5,440.5C 286.329,444.749 293.329,448.749 300.5,452.5C 302.794,454.653 305.46,456.32 308.5,457.5C 332.699,471.432 357.032,485.099 381.5,498.5C 381.5,498.833 381.5,499.167 381.5,499.5C 377.613,499.646 373.946,500.313 370.5,501.5C 370.167,501.5 369.833,501.5 369.5,501.5C 361.483,497.138 353.483,492.805 345.5,488.5C 325.365,476.596 305.032,464.929 284.5,453.5C 281.634,451.568 278.634,449.901 275.5,448.5C 275.5,448.167 275.5,447.833 275.5,447.5C 276.736,445.351 277.736,443.018 278.5,440.5 Z"/></g>
<g><path style="opacity:1" fill="#bdb5cf" d="M 263.5,479.5 C 282.664,490.247 301.664,501.247 320.5,512.5C 317.509,513.371 314.509,514.371 311.5,515.5C 311.918,514.778 312.584,514.278 313.5,514C 297.216,508.952 281.049,503.785 265,498.5C 259.683,502.319 254.516,506.319 249.5,510.5C 253.018,501.471 256.518,492.471 260,483.5C 260.498,481.456 261.665,480.122 263.5,479.5 Z"/></g>
<g><path style="opacity:1" fill="#9b90e5" d="M 444.5,484.5 C 431.314,492.014 418.148,499.68 405,507.5C 404.501,502.845 404.334,498.179 404.5,493.5C 417.791,490.177 431.124,487.177 444.5,484.5 Z"/></g>
<g><path style="opacity:1" fill="#c5b0f3" d="M 525.5,486.5 C 526.497,486.47 527.164,486.97 527.5,488C 526.467,492.265 525.134,496.431 523.5,500.5C 511.784,503.376 500.118,506.376 488.5,509.5C 487.893,509.376 487.56,509.043 487.5,508.5C 499.908,500.767 512.575,493.434 525.5,486.5 Z"/></g>
<g><path style="opacity:1" fill="#958be3" d="M 538.5,479.5 C 538.371,481.216 538.038,482.883 537.5,484.5C 535.442,490.535 533.442,496.702 531.5,503C 536.686,509.017 542.02,514.851 547.5,520.5C 548.5,522.167 549.833,523.5 551.5,524.5C 551.5,524.833 551.5,525.167 551.5,525.5C 550.194,527.473 548.527,529.139 546.5,530.5C 539.338,524.171 532.671,517.338 526.5,510C 509.531,512.244 492.864,515.744 476.5,520.5C 472.443,520.848 468.443,521.514 464.5,522.5C 471.964,517.597 479.631,512.93 487.5,508.5C 487.56,509.043 487.893,509.376 488.5,509.5C 500.118,506.376 511.784,503.376 523.5,500.5C 525.134,496.431 526.467,492.265 527.5,488C 527.164,486.97 526.497,486.47 525.5,486.5C 529.577,483.773 533.91,481.439 538.5,479.5 Z"/></g>
<g><path style="opacity:1" fill="#baa7ef" d="M 537.5,484.5 C 537.338,486.527 537.505,488.527 538,490.5C 541.183,500.588 544.35,510.588 547.5,520.5C 542.02,514.851 536.686,509.017 531.5,503C 533.442,496.702 535.442,490.535 537.5,484.5 Z"/></g>
<g><path style="opacity:1" fill="#667fdc" d="M 395.5,495.5 C 395.833,495.5 396.167,495.5 396.5,495.5C 396.666,499.514 396.499,503.514 396,507.5C 391.353,504.428 386.52,501.762 381.5,499.5C 381.5,499.167 381.5,498.833 381.5,498.5C 386.239,497.815 390.905,496.815 395.5,495.5 Z"/></g>
<g><path style="opacity:1" fill="#3844bf" d="M 473.5,477.5 C 465.667,481.916 458,486.582 450.5,491.5C 438.337,497.411 426.67,504.078 415.5,511.5C 410.366,513.567 405.366,515.901 400.5,518.5C 393.816,515.158 387.15,511.825 380.5,508.5C 377.167,506.167 373.833,503.833 370.5,501.5C 373.946,500.313 377.613,499.646 381.5,499.5C 386.52,501.762 391.353,504.428 396,507.5C 396.499,503.514 396.666,499.514 396.5,495.5C 396.5,495.167 396.5,494.833 396.5,494.5C 399.206,494.425 401.873,494.092 404.5,493.5C 404.334,498.179 404.501,502.845 405,507.5C 418.148,499.68 431.314,492.014 444.5,484.5C 446.05,483.559 447.716,482.893 449.5,482.5C 457.428,480.622 465.428,478.955 473.5,477.5 Z"/></g>
<g><path style="opacity:1" fill="#3f49c2" d="M 542.5,467.5 C 541.213,470.698 540.547,474.031 540.5,477.5C 539.5,477.833 538.833,478.5 538.5,479.5C 533.91,481.439 529.577,483.773 525.5,486.5C 512.575,493.434 499.908,500.767 487.5,508.5C 479.631,512.93 471.964,517.597 464.5,522.5C 463.167,522.833 461.833,523.167 460.5,523.5C 452.862,525.294 445.195,526.961 437.5,528.5C 444.002,524.75 450.335,520.75 456.5,516.5C 482.029,502.575 507.029,487.908 531.5,472.5C 532.492,472.672 533.158,472.338 533.5,471.5C 536.5,470.167 539.5,468.833 542.5,467.5 Z"/></g>
<g><path style="opacity:1" fill="#c8bdd3" d="M 311.5,515.5 C 291.807,519.727 272.14,524.06 252.5,528.5C 249.677,525.525 247.344,522.192 245.5,518.5C 246.306,515.554 247.639,512.888 249.5,510.5C 254.516,506.319 259.683,502.319 265,498.5C 281.049,503.785 297.216,508.952 313.5,514C 312.584,514.278 311.918,514.778 311.5,515.5 Z"/></g>
<g><path style="opacity:1" fill="#131845" d="M 369.5,501.5 C 369.833,501.5 370.167,501.5 370.5,501.5C 373.833,503.833 377.167,506.167 380.5,508.5C 370.321,509.602 360.321,511.602 350.5,514.5C 348.152,514.592 346.486,515.592 345.5,517.5C 341.299,514.9 336.966,512.566 332.5,510.5C 332.5,510.167 332.5,509.833 332.5,509.5C 345.052,507.275 357.385,504.608 369.5,501.5 Z"/></g>
<g><path style="opacity:1" fill="#010103" d="M 380.5,508.5 C 387.15,511.825 393.816,515.158 400.5,518.5C 405.366,515.901 410.366,513.567 415.5,511.5C 424.169,513.391 432.502,516.057 440.5,519.5C 425.54,522.99 410.54,526.323 395.5,529.5C 393.143,529.663 390.81,529.497 388.5,529C 375.833,525 363.167,521 350.5,517C 349.402,516.23 349.402,515.397 350.5,514.5C 360.321,511.602 370.321,509.602 380.5,508.5 Z"/></g>
<g><path style="opacity:1" fill="#3541be" d="M 332.5,510.5 C 336.966,512.566 341.299,514.9 345.5,517.5C 351.536,521.181 357.536,524.848 363.5,528.5C 358.033,528.413 352.7,526.913 347.5,524C 345.645,523.578 343.811,523.078 342,522.5C 341.235,522.57 340.735,522.903 340.5,523.5C 337.5,522.167 334.5,520.833 331.5,519.5C 328.709,517.265 325.709,515.265 322.5,513.5C 325.642,512.21 328.975,511.21 332.5,510.5 Z"/></g>
<g><path style="opacity:1" fill="#d3b9e3" d="M 546.5,530.5 C 546.5,531.167 546.5,531.833 546.5,532.5C 543.833,535.5 541.167,538.5 538.5,541.5C 517.499,535.112 496.499,528.612 475.5,522C 476.056,521.617 476.389,521.117 476.5,520.5C 492.864,515.744 509.531,512.244 526.5,510C 532.671,517.338 539.338,524.171 546.5,530.5 Z"/></g>
<g><path style="opacity:1" fill="#736fbe" d="M 230.5,500.5 C 233.516,503.52 236.183,506.854 238.5,510.5C 238.5,510.833 238.5,511.167 238.5,511.5C 238.278,514.504 237.278,517.171 235.5,519.5C 233.863,517.525 232.196,515.525 230.5,513.5C 231.124,509.352 231.124,505.018 230.5,500.5 Z"/></g>
<g><path style="opacity:1" fill="#ae9cc5" d="M 320.5,512.5 C 321.167,512.833 321.833,513.167 322.5,513.5C 325.709,515.265 328.709,517.265 331.5,519.5C 306.803,524.093 282.47,529.759 258.5,536.5C 256.5,534.167 254.5,531.833 252.5,529.5C 252.5,529.167 252.5,528.833 252.5,528.5C 272.14,524.06 291.807,519.727 311.5,515.5C 314.509,514.371 317.509,513.371 320.5,512.5 Z"/></g>
<g><path style="opacity:1" fill="#080815" d="M 350.5,514.5 C 349.402,515.397 349.402,516.23 350.5,517C 363.167,521 375.833,525 388.5,529C 390.81,529.497 393.143,529.663 395.5,529.5C 388.847,530.83 382.181,532.496 375.5,534.5C 371.5,532.5 367.5,530.5 363.5,528.5C 357.536,524.848 351.536,521.181 345.5,517.5C 346.486,515.592 348.152,514.592 350.5,514.5 Z"/></g>
<g><path style="opacity:1" fill="#3e48c1" d="M 238.5,511.5 C 241.2,513.234 243.2,515.568 244.5,518.5C 244.47,521.852 243.137,524.518 240.5,526.5C 238.6,524.381 236.934,522.047 235.5,519.5C 237.278,517.171 238.278,514.504 238.5,511.5 Z"/></g>
<g><path style="opacity:1" fill="#e9c7c4" d="M 331.5,519.5 C 334.5,520.833 337.5,522.167 340.5,523.5C 347.296,528.07 354.296,532.403 361.5,536.5C 332.371,543.622 303.038,550.288 273.5,556.5C 268.512,549.872 263.512,543.205 258.5,536.5C 282.47,529.759 306.803,524.093 331.5,519.5 Z"/></g>
<g><path style="opacity:1" fill="#141947" d="M 456.5,516.5 C 450.335,520.75 444.002,524.75 437.5,528.5C 436.391,528.557 435.391,528.89 434.5,529.5C 418.154,533.261 401.821,536.928 385.5,540.5C 385.167,540.5 384.833,540.5 384.5,540.5C 381.328,538.748 378.328,536.748 375.5,534.5C 382.181,532.496 388.847,530.83 395.5,529.5C 410.54,526.323 425.54,522.99 440.5,519.5C 445.743,518.07 451.076,517.07 456.5,516.5 Z"/></g>
<g><path style="opacity:1" fill="#c8b0df" d="M 476.5,520.5 C 476.389,521.117 476.056,521.617 475.5,522C 496.499,528.612 517.499,535.112 538.5,541.5C 536.853,544.473 534.853,547.14 532.5,549.5C 508.231,540.592 483.564,532.592 458.5,525.5C 459.167,524.833 459.833,524.167 460.5,523.5C 461.833,523.167 463.167,522.833 464.5,522.5C 468.443,521.514 472.443,520.848 476.5,520.5 Z"/></g>
<g><path style="opacity:1" fill="#5d6bd2" d="M 244.5,518.5 C 244.833,518.5 245.167,518.5 245.5,518.5C 247.344,522.192 249.677,525.525 252.5,528.5C 252.5,528.833 252.5,529.167 252.5,529.5C 249.572,529.565 246.905,530.232 244.5,531.5C 243.197,529.858 241.864,528.191 240.5,526.5C 243.137,524.518 244.47,521.852 244.5,518.5 Z"/></g>
<g><path style="opacity:1" fill="#222454" d="M 222.5,503.5 C 225.516,506.52 228.183,509.854 230.5,513.5C 232.196,515.525 233.863,517.525 235.5,519.5C 236.934,522.047 238.6,524.381 240.5,526.5C 241.864,528.191 243.197,529.858 244.5,531.5C 245.921,534.009 247.588,536.343 249.5,538.5C 244.025,539.561 238.525,540.561 233,541.5C 231.833,541.167 230.667,540.833 229.5,540.5C 228.74,536.98 227.74,533.647 226.5,530.5C 226.283,526.295 225.617,522.295 224.5,518.5C 224.205,513.436 223.538,508.436 222.5,503.5 Z"/></g>
<g><path style="opacity:1" fill="#d5bae1" d="M 458.5,525.5 C 483.564,532.592 508.231,540.592 532.5,549.5C 527.975,556.563 522.975,563.229 517.5,569.5C 488.654,560.461 459.987,551.128 431.5,541.5C 440.299,535.93 449.299,530.596 458.5,525.5 Z"/></g>
<g><path style="opacity:1" fill="#3a47c0" d="M 551.5,525.5 C 553.641,527.122 555.308,529.122 556.5,531.5C 555.559,533.772 554.226,535.772 552.5,537.5C 550.5,535.833 548.5,534.167 546.5,532.5C 546.5,531.833 546.5,531.167 546.5,530.5C 548.527,529.139 550.194,527.473 551.5,525.5 Z"/></g>
<g><path style="opacity:1" fill="#424bc3" d="M 363.5,528.5 C 367.5,530.5 371.5,532.5 375.5,534.5C 378.328,536.748 381.328,538.748 384.5,540.5C 380.705,541.617 376.705,542.283 372.5,542.5C 368.673,540.754 365.007,538.754 361.5,536.5C 354.296,532.403 347.296,528.07 340.5,523.5C 340.735,522.903 341.235,522.57 342,522.5C 343.811,523.078 345.645,523.578 347.5,524C 352.7,526.913 358.033,528.413 363.5,528.5 Z"/></g>
<g><path style="opacity:1" fill="#121016" d="M 226.5,530.5 C 227.74,533.647 228.74,536.98 229.5,540.5C 230.667,540.833 231.833,541.167 233,541.5C 238.525,540.561 244.025,539.561 249.5,538.5C 254.167,544.833 258.833,551.167 263.5,557.5C 260.486,559.115 257.319,560.782 254,562.5C 253.349,564.235 253.515,565.902 254.5,567.5C 260.893,570.015 267.56,571.681 274.5,572.5C 280.639,579.433 286.306,586.767 291.5,594.5C 242.849,599.12 194.183,603.287 145.5,607C 168.5,586 191.5,565 214.5,544C 219.147,539.866 223.147,535.366 226.5,530.5 Z"/></g>
<g><path style="opacity:1" fill="#af9dc5" d="M 361.5,536.5 C 365.007,538.754 368.673,540.754 372.5,542.5C 372.5,542.833 372.5,543.167 372.5,543.5C 341.257,549.978 310.257,556.978 279.5,564.5C 277.147,562.14 275.147,559.473 273.5,556.5C 303.038,550.288 332.371,543.622 361.5,536.5 Z"/></g>
<g><path style="opacity:1" fill="#5a4e55" d="M 434.5,529.5 C 423.23,536.14 411.896,542.807 400.5,549.5C 395.271,546.726 390.271,543.726 385.5,540.5C 401.821,536.928 418.154,533.261 434.5,529.5 Z"/></g>
<g><path style="opacity:1" fill="#524851" d="M 552.5,538.5 C 555.881,540.88 558.547,543.88 560.5,547.5C 558.899,549.855 557.232,552.355 555.5,555C 550.823,554.504 546.157,553.671 541.5,552.5C 544.435,547.235 548.101,542.568 552.5,538.5 Z"/></g>
<g><path style="opacity:1" fill="#7b75c2" d="M 460.5,523.5 C 459.833,524.167 459.167,524.833 458.5,525.5C 449.299,530.596 440.299,535.93 431.5,541.5C 427.665,543.25 423.999,545.25 420.5,547.5C 415.299,550.263 410.299,553.263 405.5,556.5C 404.506,566.319 404.173,576.319 404.5,586.5C 401.833,586.5 399.167,586.5 396.5,586.5C 396.5,586.167 396.5,585.833 396.5,585.5C 396.666,575.828 396.5,566.161 396,556.5C 388.26,551.91 380.426,547.576 372.5,543.5C 372.5,543.167 372.5,542.833 372.5,542.5C 376.705,542.283 380.705,541.617 384.5,540.5C 384.833,540.5 385.167,540.5 385.5,540.5C 390.271,543.726 395.271,546.726 400.5,549.5C 411.896,542.807 423.23,536.14 434.5,529.5C 435.391,528.89 436.391,528.557 437.5,528.5C 445.195,526.961 452.862,525.294 460.5,523.5 Z"/></g>
<g><path style="opacity:1" fill="#c7b0df" d="M 431.5,541.5 C 459.987,551.128 488.654,560.461 517.5,569.5C 514.066,574.716 510.399,579.716 506.5,584.5C 505.486,583.235 503.986,582.569 502,582.5C 479.336,584.47 456.502,586.637 433.5,589C 432.692,589.308 432.025,589.808 431.5,590.5C 432.949,591.172 434.282,591.839 435.5,592.5C 425.228,590.506 414.895,588.839 404.5,587.5C 404.5,587.167 404.5,586.833 404.5,586.5C 404.173,576.319 404.506,566.319 405.5,556.5C 405.5,565.5 405.5,574.5 405.5,583.5C 438.807,580.184 472.14,577.018 505.5,574C 477.366,564.713 449.033,555.88 420.5,547.5C 423.999,545.25 427.665,543.25 431.5,541.5 Z"/></g>
<g><path style="opacity:1" fill="#131744" d="M 631.5,433.5 C 639.125,501.413 645.625,569.413 651,637.5C 650.044,638.894 648.711,639.561 647,639.5C 596.836,630.3 546.669,621.3 496.5,612.5C 497.786,609.883 499.453,607.55 501.5,605.5C 546.194,613.073 590.861,620.573 635.5,628C 610.634,600.97 585.634,574.136 560.5,547.5C 558.547,543.88 555.881,540.88 552.5,538.5C 552.5,538.167 552.5,537.833 552.5,537.5C 554.226,535.772 555.559,533.772 556.5,531.5C 556.833,531.5 557.167,531.5 557.5,531.5C 585.478,561.813 613.478,592.146 641.5,622.5C 641.833,621.333 642.167,620.167 642.5,619C 636.269,560.188 630.269,501.354 624.5,442.5C 624.5,442.167 624.5,441.833 624.5,441.5C 626.833,438.833 629.167,436.167 631.5,433.5 Z"/></g>
<g><path style="opacity:1" fill="#e9c7c4" d="M 372.5,543.5 C 380.426,547.576 388.26,551.91 396,556.5C 396.5,566.161 396.666,575.828 396.5,585.5C 357.901,578.447 319.234,571.78 280.5,565.5C 279.833,565.5 279.5,565.167 279.5,564.5C 310.257,556.978 341.257,549.978 372.5,543.5 Z"/></g>
<g><path style="opacity:1" fill="#554845" d="M 560.5,547.5 C 585.634,574.136 610.634,600.97 635.5,628C 590.861,620.573 546.194,613.073 501.5,605.5C 501.5,605.167 501.5,604.833 501.5,604.5C 514.833,587.167 528.167,569.833 541.5,552.5C 546.157,553.671 550.823,554.504 555.5,555C 557.232,552.355 558.899,549.855 560.5,547.5 Z"/></g>
<g><path style="opacity:1" fill="#d4b9e3" d="M 420.5,547.5 C 449.033,555.88 477.366,564.713 505.5,574C 472.14,577.018 438.807,580.184 405.5,583.5C 405.5,574.5 405.5,565.5 405.5,556.5C 410.299,553.263 415.299,550.263 420.5,547.5 Z"/></g>
<g><path style="opacity:1" fill="#414ac2" d="M 252.5,529.5 C 254.5,531.833 256.5,534.167 258.5,536.5C 263.512,543.205 268.512,549.872 273.5,556.5C 275.147,559.473 277.147,562.14 279.5,564.5C 279.5,565.167 279.833,565.5 280.5,565.5C 282.482,568.81 284.815,571.81 287.5,574.5C 291.809,580.482 296.142,586.482 300.5,592.5C 297.382,592.768 294.716,593.768 292.5,595.5C 291.833,595.5 291.5,595.167 291.5,594.5C 286.306,586.767 280.639,579.433 274.5,572.5C 271.212,567.214 267.546,562.214 263.5,557.5C 258.833,551.167 254.167,544.833 249.5,538.5C 247.588,536.343 245.921,534.009 244.5,531.5C 246.905,530.232 249.572,529.565 252.5,529.5 Z"/></g>
<g><path style="opacity:1" fill="#7571be" d="M 546.5,532.5 C 548.5,534.167 550.5,535.833 552.5,537.5C 552.5,537.833 552.5,538.167 552.5,538.5C 548.101,542.568 544.435,547.235 541.5,552.5C 528.167,569.833 514.833,587.167 501.5,604.5C 498.518,604.037 495.518,603.704 492.5,603.5C 492.5,603.167 492.5,602.833 492.5,602.5C 497.518,596.81 502.185,590.81 506.5,584.5C 510.399,579.716 514.066,574.716 517.5,569.5C 522.975,563.229 527.975,556.563 532.5,549.5C 534.853,547.14 536.853,544.473 538.5,541.5C 541.167,538.5 543.833,535.5 546.5,532.5 Z"/></g>
<g><path style="opacity:1" fill="#222452" d="M 263.5,557.5 C 267.546,562.214 271.212,567.214 274.5,572.5C 267.56,571.681 260.893,570.015 254.5,567.5C 253.515,565.902 253.349,564.235 254,562.5C 257.319,560.782 260.486,559.115 263.5,557.5 Z"/></g>
<g><path style="opacity:1" fill="#ad9bc4" d="M 280.5,565.5 C 319.234,571.78 357.901,578.447 396.5,585.5C 396.5,585.833 396.5,586.167 396.5,586.5C 396.5,588.833 396.5,591.167 396.5,593.5C 396.167,593.5 395.833,593.5 395.5,593.5C 393.5,593.5 391.5,593.5 389.5,593.5C 377.356,590.862 365.022,588.529 352.5,586.5C 330.876,582.396 309.209,578.396 287.5,574.5C 284.815,571.81 282.482,568.81 280.5,565.5 Z"/></g>
<g><path style="opacity:1" fill="#e8c7c4" d="M 287.5,574.5 C 309.209,578.396 330.876,582.396 352.5,586.5C 353.953,587.825 353.619,588.658 351.5,589C 334.786,590.615 318.119,592.115 301.5,593.5C 300.833,593.5 300.5,593.167 300.5,592.5C 296.142,586.482 291.809,580.482 287.5,574.5 Z"/></g>
<g><path style="opacity:1" fill="#d4b9e1" d="M 506.5,584.5 C 502.185,590.81 497.518,596.81 492.5,602.5C 473.243,599.903 454.243,596.569 435.5,592.5C 434.282,591.839 432.949,591.172 431.5,590.5C 432.025,589.808 432.692,589.308 433.5,589C 456.502,586.637 479.336,584.47 502,582.5C 503.986,582.569 505.486,583.235 506.5,584.5 Z"/></g>
<g><path style="opacity:1" fill="#3440bd" d="M 396.5,586.5 C 399.167,586.5 401.833,586.5 404.5,586.5C 404.5,586.833 404.5,587.167 404.5,587.5C 404.5,590.167 404.5,592.833 404.5,595.5C 404.333,636.835 404.5,678.168 405,719.5C 405.717,718.956 406.217,718.289 406.5,717.5C 433.191,681.815 459.858,646.148 486.5,610.5C 488.737,608.353 490.737,606.02 492.5,603.5C 495.518,603.704 498.518,604.037 501.5,604.5C 501.5,604.833 501.5,605.167 501.5,605.5C 499.453,607.55 497.786,609.883 496.5,612.5C 464.814,653.526 433.481,694.859 402.5,736.5C 401.127,736.657 399.793,736.49 398.5,736C 364.617,691.623 330.95,647.123 297.5,602.5C 296.079,599.991 294.412,597.657 292.5,595.5C 294.716,593.768 297.382,592.768 300.5,592.5C 300.5,593.167 300.833,593.5 301.5,593.5C 303.147,596.473 305.147,599.14 307.5,601.5C 336.5,640.167 365.5,678.833 394.5,717.5C 394.783,718.289 395.283,718.956 396,719.5C 396.5,677.501 396.667,635.501 396.5,593.5C 396.5,591.167 396.5,588.833 396.5,586.5 Z"/></g>
<g><path style="opacity:1" fill="#ddbec0" d="M 352.5,586.5 C 365.022,588.529 377.356,590.862 389.5,593.5C 361.986,595.879 334.653,598.546 307.5,601.5C 305.147,599.14 303.147,596.473 301.5,593.5C 318.119,592.115 334.786,590.615 351.5,589C 353.619,588.658 353.953,587.825 352.5,586.5 Z"/></g>
<g><path style="opacity:1" fill="#958be3" d="M 404.5,587.5 C 414.895,588.839 425.228,590.506 435.5,592.5C 454.243,596.569 473.243,599.903 492.5,602.5C 492.5,602.833 492.5,603.167 492.5,603.5C 490.737,606.02 488.737,608.353 486.5,610.5C 460.383,605.313 434.05,600.646 407.5,596.5C 406.791,595.596 405.791,595.263 404.5,595.5C 404.5,592.833 404.5,590.167 404.5,587.5 Z"/></g>
<g><path style="opacity:1" fill="#edcabf" d="M 389.5,593.5 C 391.5,593.5 393.5,593.5 395.5,593.5C 395.832,635.003 395.499,676.337 394.5,717.5C 365.5,678.833 336.5,640.167 307.5,601.5C 334.653,598.546 361.986,595.879 389.5,593.5 Z"/></g>
<g><path style="opacity:1" fill="#ceb7c3" d="M 395.5,593.5 C 395.833,593.5 396.167,593.5 396.5,593.5C 396.667,635.501 396.5,677.501 396,719.5C 395.283,718.956 394.783,718.289 394.5,717.5C 395.499,676.337 395.832,635.003 395.5,593.5 Z"/></g>
<g><path style="opacity:1" fill="#a99be6" d="M 404.5,595.5 C 405.791,595.263 406.791,595.596 407.5,596.5C 406.167,616.322 405.5,636.489 405.5,657C 405.5,677.336 405.833,697.503 406.5,717.5C 406.217,718.289 405.717,718.956 405,719.5C 404.5,678.168 404.333,636.835 404.5,595.5 Z"/></g>
<g><path style="opacity:1" fill="#c8b2f4" d="M 407.5,596.5 C 434.05,600.646 460.383,605.313 486.5,610.5C 459.858,646.148 433.191,681.815 406.5,717.5C 405.833,697.503 405.5,677.336 405.5,657C 405.5,636.489 406.167,616.322 407.5,596.5 Z"/></g>
</svg>
