<?xml version="1.0" standalone="no"?>
<!DOCTYPE svg PUBLIC "-//W3C//DTD SVG 20010904//EN"
 "http://www.w3.org/TR/2001/REC-SVG-20010904/DTD/svg10.dtd">
<svg version="1.0" xmlns="http://www.w3.org/2000/svg"
 width="680.000000pt" height="720.000000pt" viewBox="0 0 680.000000 720.000000"
 preserveAspectRatio="xMidYMid meet">

<g transform="translate(0.000000,720.000000) scale(0.100000,-0.100000)"
fill="#000000" stroke="none">
<path d="M0 3600 l0 -3600 1645 0 c905 0 1645 2 1645 5 0 2 -35 51 -78 107
-43 57 -197 261 -342 453 -145 193 -304 402 -352 465 -49 63 -173 226 -276
361 l-187 247 -115 27 c-112 27 -150 45 -150 71 0 21 41 42 97 49 l52 7 -28
36 c-15 21 -51 67 -79 103 l-51 66 -93 -18 c-125 -24 -121 -29 -147 176 -12
88 -25 172 -30 187 -5 15 -102 152 -217 305 -341 456 -344 461 -344 488 0 57
41 41 339 -132 78 -47 144 -83 145 -81 3 4 -32 259 -38 274 -2 6 -42 33 -88
59 -45 26 -130 76 -188 110 -58 34 -119 70 -136 78 -17 9 -34 24 -38 32 -7 20
-4 27 109 205 51 80 123 195 160 255 l69 110 -43 322 c-43 318 -46 398 -20
429 14 17 43 18 56 2 9 -12 153 -417 153 -431 0 -3 5 -18 10 -33 10 -26 12
-25 75 72 35 54 71 111 79 125 16 28 27 -7 -116 397 l-43 124 21 17 c11 9 147
54 302 100 155 46 288 89 296 95 8 6 61 83 117 171 55 88 115 182 133 209 32
51 158 243 187 287 9 13 49 76 89 139 67 104 92 144 195 305 18 28 85 133 150
235 65 102 128 201 140 220 13 19 69 107 125 195 56 88 108 163 114 167 6 4
-735 8 -1646 8 l-1658 0 0 -3600z"/>
<path d="M3336 7192 c11 -6 186 -274 277 -422 19 -30 102 -161 185 -290 83
-129 188 -293 233 -365 45 -71 125 -195 178 -275 53 -80 130 -199 171 -264 41
-65 107 -166 145 -224 l70 -106 175 -54 c427 -131 430 -132 436 -155 3 -14
-28 -112 -81 -259 l-85 -236 77 -121 c42 -66 78 -119 80 -117 2 2 41 108 86
236 83 237 99 266 134 244 43 -27 36 -134 -42 -646 l-15 -96 66 -109 c37 -59
111 -178 165 -263 111 -174 119 -200 67 -226 -18 -9 -76 -42 -128 -73 -52 -32
-138 -82 -190 -111 -52 -29 -96 -54 -98 -56 -6 -4 -43 -276 -39 -281 3 -2 70
33 148 80 214 124 305 171 323 164 33 -13 17 -57 -52 -150 -38 -51 -103 -139
-146 -197 -42 -58 -82 -112 -89 -120 -7 -8 -72 -95 -145 -192 l-132 -177 -15
-118 c-24 -183 -36 -241 -51 -254 -14 -11 -84 -4 -179 17 -16 4 -35 -15 -93
-91 -71 -94 -79 -115 -44 -115 35 0 90 -21 96 -36 13 -35 -12 -52 -111 -74
-54 -11 -107 -25 -118 -29 -12 -5 -104 -118 -205 -251 -102 -133 -225 -295
-274 -359 -49 -64 -213 -280 -364 -481 -152 -201 -304 -402 -339 -448 -35 -45
-63 -85 -63 -87 0 -3 776 -5 1725 -5 l1725 0 0 3600 0 3600 -1737 0 c-956 0
-1733 -4 -1727 -8z"/>
<path d="M1955 2848 c8 -24 33 -98 56 -165 l42 -123 91 -54 c50 -29 190 -111
311 -181 121 -70 234 -136 250 -146 17 -11 98 -58 180 -105 l150 -86 133 23
c141 23 161 23 332 -10 l95 -17 185 106 c195 112 646 375 740 431 l56 33 57
159 c32 88 57 163 55 168 -4 9 -308 -164 -323 -185 -6 -8 -26 -59 -45 -113
-18 -54 -38 -103 -44 -110 -6 -7 -121 -32 -255 -58 l-244 -45 -106 -59 c-58
-32 -161 -89 -228 -126 l-123 -67 -122 67 c-68 37 -171 94 -230 127 l-107 59
-247 49 c-137 28 -253 55 -260 62 -6 7 -29 62 -50 121 l-39 108 -157 90 c-86
49 -159 89 -161 89 -3 0 1 -19 8 -42z"/>
</g>
</svg>
